<svg width="64" height="64" viewBox="0 0 64 64" fill="none" xmlns="http://www.w3.org/2000/svg">
<path d="M23.2578 3C22.6448 3 22.0734 3.27586 21.6914 3.75586C21.3094 4.23686 21.1693 4.85281 21.3223 5.50781L27.502 26.4551C22.574 26.6315 18.5708 26.8363 15.5801 27.0684L8.13869 15.9258C7.76769 15.3458 7.13919 15 6.45119 15H4.25783C3.64483 15 3.07243 15.2759 2.69143 15.7559C2.30943 16.2369 2.17071 16.8536 2.30471 17.4336L5.00002 30.1055V33.8945L2.30862 46.5508C2.17162 47.1468 2.30943 47.7641 2.69143 48.2441C3.07243 48.7241 3.64483 49 4.25783 49H6.45119C7.13919 49 7.76897 48.6548 8.12697 48.0938L15.5801 36.9316C18.5708 37.1637 22.574 37.3685 27.502 37.5449L21.3086 58.5508C21.1716 59.1468 21.3094 59.7641 21.6914 60.2441C22.0724 60.7241 22.6448 61 23.2578 61H27.4512C28.1392 61 28.7696 60.6538 29.0996 60.1328L45.5391 37.9512C49.9601 37.9988 52.9415 38 53 38C56.051 38 62 34.761 62 32C62 29.239 56.051 26 53 26C52.9415 26 49.9611 26.0012 45.541 26.0488L29.1387 3.92578C28.7677 3.34578 28.1392 3 27.4512 3H23.2578ZM23.2578 5L27.4903 5.05859L43.0781 26.0859C39.0545 26.1391 34.3898 26.2215 29.5625 26.375L23.2578 5ZM4.25783 17L6.46291 17.0195L13.3028 27.2617C9.85375 27.5926 7.84535 27.9622 6.6719 28.3477L4.25783 17ZM53 28C55.661 28 60 30.922 60 32C60 33.078 55.661 36 53 36C32.581 36 9.89102 35.1812 7.00002 33.6602V30.3398C9.89102 28.8188 32.581 28 53 28ZM12 30C11.447 30 11 30.447 11 31V33C11 33.553 11.447 34 12 34C12.553 34 13 33.553 13 33V31C13 30.447 12.553 30 12 30ZM17 30C16.447 30 16 30.447 16 31V33C16 33.553 16.447 34 17 34C17.553 34 18 33.553 18 33V31C18 30.447 17.553 30 17 30ZM22 30C21.447 30 21 30.447 21 31V33C21 33.553 21.447 34 22 34C22.553 34 23 33.553 23 33V31C23 30.447 22.553 30 22 30ZM27 30C26.447 30 26 30.447 26 31V33C26 33.553 26.447 34 27 34C27.553 34 28 33.553 28 33V31C28 30.447 27.553 30 27 30ZM32 30C31.447 30 31 30.447 31 31V33C31 33.553 31.447 34 32 34C32.553 34 33 33.553 33 33V31C33 30.447 32.553 30 32 30ZM37 30C36.447 30 36 30.447 36 31V33C36 33.553 36.447 34 37 34C37.553 34 38 33.553 38 33V31C38 30.447 37.553 30 37 30ZM42 30C41.447 30 41 30.447 41 31V33C41 33.553 41.447 34 42 34C42.553 34 43 33.553 43 33V31C43 30.447 42.553 30 42 30ZM47 30C46.447 30 46 30.447 46 31V33C46 33.553 46.447 34 47 34C47.553 34 48 33.553 48 33V31C48 30.447 47.553 30 47 30ZM52 30C51.447 30 51 30.447 51 31V33C51 33.553 51.447 34 52 34C52.553 34 53 33.553 53 33V31C53 30.447 52.553 30 52 30ZM6.6719 35.6523C7.84535 36.0378 9.85375 36.4074 13.3028 36.7383L6.45119 47L4.26174 46.9824L6.6719 35.6523ZM29.5625 37.625C34.389 37.7785 39.0529 37.8609 43.0762 37.9141L27.4512 59L23.2403 59.0586L29.5625 37.625Z" fill="black"/>
<path d="M12 30C11.447 30 11 30.447 11 31V33C11 33.553 11.447 34 12 34C12.553 34 13 33.553 13 33V31C13 30.447 12.553 30 12 30ZM17 30C16.447 30 16 30.447 16 31V33C16 33.553 16.447 34 17 34C17.553 34 18 33.553 18 33V31C18 30.447 17.553 30 17 30ZM22 30C21.447 30 21 30.447 21 31V33C21 33.553 21.447 34 22 34C22.553 34 23 33.553 23 33V31C23 30.447 22.553 30 22 30ZM27 30C26.447 30 26 30.447 26 31V33C26 33.553 26.447 34 27 34C27.553 34 28 33.553 28 33V31C28 30.447 27.553 30 27 30ZM32 30C31.447 30 31 30.447 31 31V33C31 33.553 31.447 34 32 34C32.553 34 33 33.553 33 33V31C33 30.447 32.553 30 32 30ZM37 30C36.447 30 36 30.447 36 31V33C36 33.553 36.447 34 37 34C37.553 34 38 33.553 38 33V31C38 30.447 37.553 30 37 30ZM42 30C41.447 30 41 30.447 41 31V33C41 33.553 41.447 34 42 34C42.553 34 43 33.553 43 33V31C43 30.447 42.553 30 42 30ZM47 30C46.447 30 46 30.447 46 31V33C46 33.553 46.447 34 47 34C47.553 34 48 33.553 48 33V31C48 30.447 47.553 30 47 30ZM52 30C51.447 30 51 30.447 51 31V33C51 33.553 51.447 34 52 34C52.553 34 53 33.553 53 33V31C53 30.447 52.553 30 52 30Z" fill="#BD9457"/>
</svg>
