<svg width="64" height="64" viewBox="0 0 64 64" fill="none" xmlns="http://www.w3.org/2000/svg">
<path d="M21.1445 6C17.0781 6 13.5 8.74609 12.4492 12.6836L10.5 20H5C3.34766 20 2 21.3477 2 23V25C2 26.6523 3.34766 28 5 28H5.47266C4.51562 29.8438 4 31.9141 4 34V45C4 46.6289 4.79297 48.0625 6 48.9727V54C6 54.7305 6.21094 55.4102 6.55469 56H1C0.445313 56 0 56.4492 0 57C0 57.5508 0.445313 58 1 58H63C63.5547 58 64 57.5508 64 57C64 56.4492 63.5547 56 63 56H57.4414C57.7891 55.4102 58 54.7305 58 54V48.9727C59.207 48.0625 60 46.625 60 45V34C60 31.9141 59.4844 29.8438 58.5273 28H59C60.6523 28 62 26.6523 62 25V23C62 21.3477 60.6523 20 59 20H53.5L51.5469 12.6836C50.5 8.74609 46.9219 6 42.8555 6H21.1445ZM21.1445 8H42.8555C46.0195 8 48.8008 10.1367 49.6172 13.1953L51.6367 20.7617C51.9336 21.8789 52.4375 22.9141 53.1289 23.8438L53.7266 24.6367L51.9766 25.4883C51.2969 25.8242 50.5352 26 49.7773 26H48.9102C48.4336 23.168 45.9688 21 43 21C40.0312 21 37.5703 23.168 37.0898 26H14.3164C13.5547 26 12.7891 25.8203 12.1016 25.4805L10.3047 24.5938L10.8711 23.8438C11.5625 22.918 12.0664 21.8789 12.3633 20.7617L14.3828 13.1953C15.1992 10.1367 17.9805 8 21.1445 8ZM29.918 12C29.3633 12 28.918 12.4492 28.918 13C28.918 13.5508 29.3633 14 29.918 14H34.168C34.7227 14 35.168 13.5508 35.168 13C35.168 12.4492 34.7227 12 34.168 12H29.918ZM5 22H9.69531C9.5625 22.2188 9.42578 22.4336 9.26953 22.6406L6.75 26H5C4.44922 26 4 25.5508 4 25V23C4 22.4492 4.44922 22 5 22ZM54.3086 22H59C59.5508 22 60 22.4492 60 23V25C60 25.5508 59.5508 26 59 26H57.25L54.7305 22.6406C54.5742 22.4336 54.4375 22.2188 54.3086 22ZM43 23C44.8594 23 46.4102 24.2812 46.8594 26H39.1406C39.5898 24.2812 41.1406 23 43 23ZM9.08594 26.2188L11.2188 27.2773C12.1758 27.75 13.25 28 14.3164 28H49.7773C50.8398 28 51.9023 27.7539 52.8555 27.2852L54.9492 26.2656L55.8008 27.4023C56.8555 28.8086 57.5586 30.4648 57.8477 32.1992C57.7891 32.2031 57.7305 32.1953 57.6719 32.207L49.3438 33.5938C47.4062 33.918 46 35.5781 46 37.543V38C46 39.1016 46.8984 40 48 40H58V45C58 46.6523 56.6523 48 55 48H9C7.34766 48 6 46.6523 6 45V40H16C17.1016 40 18 39.1016 18 38V37.543C18 35.5781 16.5938 33.918 14.6562 33.5938L6.32812 32.207C6.26953 32.1953 6.21094 32.2031 6.15234 32.1992C6.44141 30.4648 7.14453 28.8086 8.19922 27.4023L9.08594 26.2188ZM6 34.1797L14.3281 35.5664C15.2969 35.7305 16 36.5625 16 37.543V38H6V34.1797ZM58 34.1836V38H48V37.543C48 36.5625 48.7031 35.7305 49.6719 35.5664L58 34.1836ZM22 36C21.4453 36 21 36.4492 21 37V39C21 39.5508 21.4453 40 22 40C22.5547 40 23 39.5508 23 39V37C23 36.4492 22.5547 36 22 36ZM27 36C26.4453 36 26 36.4492 26 37V39C26 39.5508 26.4453 40 27 40C27.5547 40 28 39.5508 28 39V37C28 36.4492 27.5547 36 27 36ZM32 36C31.4453 36 31 36.4492 31 37V39C31 39.5508 31.4453 40 32 40C32.5547 40 33 39.5508 33 39V37C33 36.4492 32.5547 36 32 36ZM37 36C36.4453 36 36 36.4492 36 37V39C36 39.5508 36.4453 40 37 40C37.5547 40 38 39.5508 38 39V37C38 36.4492 37.5547 36 37 36ZM42 36C41.4453 36 41 36.4492 41 37V39C41 39.5508 41.4453 40 42 40C42.5547 40 43 39.5508 43 39V37C43 36.4492 42.5547 36 42 36ZM8.91797 42C8.36328 42 7.91797 42.4492 7.91797 43C7.91797 43.5508 8.36328 44 8.91797 44H13.168C13.7227 44 14.168 43.5508 14.168 43C14.168 42.4492 13.7227 42 13.168 42H8.91797ZM16.918 42C16.3633 42 15.918 42.4492 15.918 43C15.918 43.5508 16.3633 44 16.918 44H47.168C47.7227 44 48.168 43.5508 48.168 43C48.168 42.4492 47.7227 42 47.168 42H16.918ZM50.918 42C50.3633 42 49.918 42.4492 49.918 43C49.918 43.5508 50.3633 44 50.918 44H55.168C55.7227 44 56.168 43.5508 56.168 43C56.168 42.4492 55.7227 42 55.168 42H50.918ZM8 50H14V54C14 55.1016 13.1016 56 12 56H10C8.89844 56 8 55.1016 8 54V50ZM16 50H48V54C48 54.7305 48.2109 55.4102 48.5586 56H15.4414C15.7891 55.4102 16 54.7305 16 54V50ZM50 50H56V54C56 55.1016 55.1016 56 54 56H52C50.8984 56 50 55.1016 50 54V50Z" fill="black"/>
<path d="M6 34.1797L14.3281 35.5664C15.2969 35.7305 16 36.5625 16 37.543V38H6V34.1797ZM58 34.1836V38H48V37.543C48 36.5625 48.7031 35.7305 49.6719 35.5664L58 34.1836ZM22 36C21.4453 36 21 36.4492 21 37V39C21 39.5508 21.4453 40 22 40C22.5547 40 23 39.5508 23 39V37C23 36.4492 22.5547 36 22 36ZM27 36C26.4453 36 26 36.4492 26 37V39C26 39.5508 26.4453 40 27 40C27.5547 40 28 39.5508 28 39V37C28 36.4492 27.5547 36 27 36ZM32 36C31.4453 36 31 36.4492 31 37V39C31 39.5508 31.4453 40 32 40C32.5547 40 33 39.5508 33 39V37C33 36.4492 32.5547 36 32 36ZM37 36C36.4453 36 36 36.4492 36 37V39C36 39.5508 36.4453 40 37 40C37.5547 40 38 39.5508 38 39V37C38 36.4492 37.5547 36 37 36ZM42 36C41.4453 36 41 36.4492 41 37V39C41 39.5508 41.4453 40 42 40C42.5547 40 43 39.5508 43 39V37C43 36.4492 42.5547 36 42 36ZM8.91797 42C8.36328 42 7.91797 42.4492 7.91797 43C7.91797 43.5508 8.36328 44 8.91797 44H13.168C13.7227 44 14.168 43.5508 14.168 43C14.168 42.4492 13.7227 42 13.168 42H8.91797ZM16.918 42C16.3633 42 15.918 42.4492 15.918 43C15.918 43.5508 16.3633 44 16.918 44H47.168C47.7227 44 48.168 43.5508 48.168 43C48.168 42.4492 47.7227 42 47.168 42H16.918ZM50.918 42C50.3633 42 49.918 42.4492 49.918 43C49.918 43.5508 50.3633 44 50.918 44H55.168C55.7227 44 56.168 43.5508 56.168 43C56.168 42.4492 55.7227 42 55.168 42H50.918Z" fill="#BD9457"/>
</svg>
