<svg width="64" height="64" viewBox="0 0 64 64" fill="none" xmlns="http://www.w3.org/2000/svg">
<path d="M5 6C3.34766 6 2 7.34766 2 9V41C2 42.6523 3.34766 44 5 44H12.1445C12.207 45.0703 12.0312 47.3359 10.1406 50.4844C9.9375 50.8281 9.95703 51.2617 10.1875 51.582C10.3789 51.8477 10.6836 52 11 52C11.0703 52 11.1445 51.9922 11.2188 51.9766C18.9414 50.2617 21.8164 45.7383 22.6562 44H30V49C30 50.6523 31.3477 52 33 52H45.2344C45.8359 53.8398 47.8633 58.1328 53.8594 58.9883C53.9062 58.9961 53.9531 59 54 59C54.3047 59 54.5938 58.8594 54.7852 58.6172C55.0078 58.3359 55.0625 57.9609 54.9297 57.6289C53.7266 54.625 53.6914 52.8281 53.7812 52H59C60.6523 52 62 50.6523 62 49V27C62 25.3477 60.6523 24 59 24H54V9C54 7.34766 52.6523 6 51 6H5ZM5 8H51C51.5508 8 52 8.44922 52 9V41C52 41.5508 51.5508 42 51 42H22C21.5703 42 21.1875 42.2734 21.0508 42.6836C21.0352 42.7344 19.4727 47.2031 12.9531 49.4219C14.7812 45.3164 13.9883 42.8047 13.9492 42.6836C13.8125 42.2734 13.4297 42 13 42H5C4.44922 42 4 41.5508 4 41V9C4 8.44922 4.44922 8 5 8ZM13 20C12.4453 20 12 20.4492 12 21C12 21.5508 12.4453 22 13 22H31C31.5547 22 32 21.5508 32 21C32 20.4492 31.5547 20 31 20H13ZM35 20C34.4453 20 34 20.4492 34 21C34 21.5508 34.4453 22 35 22H39C39.5547 22 40 21.5508 40 21C40 20.4492 39.5547 20 39 20H35ZM13 26C12.4453 26 12 26.4492 12 27C12 27.5508 12.4453 28 13 28H35C35.5547 28 36 27.5508 36 27C36 26.4492 35.5547 26 35 26H13ZM54 26H59C59.5508 26 60 26.4492 60 27V49C60 49.5508 59.5508 50 59 50H53C52.6211 50 52.2773 50.2148 52.1055 50.5508C51.9961 50.7695 51.1914 52.5898 52.4492 56.6289C47.8008 55.1641 47.0195 51.0273 46.9844 50.8359C46.9062 50.3555 46.4883 50 46 50H33C32.4492 50 32 49.5508 32 49V44H51C52.6523 44 54 42.6523 54 41V26ZM8 36C7.44531 36 7 36.4492 7 37V39C7 39.5508 7.44531 40 8 40C8.55469 40 9 39.5508 9 39V37C9 36.4492 8.55469 36 8 36ZM13 36C12.4453 36 12 36.4492 12 37V39C12 39.5508 12.4453 40 13 40C13.5547 40 14 39.5508 14 39V37C14 36.4492 13.5547 36 13 36ZM18 36C17.4453 36 17 36.4492 17 37V39C17 39.5508 17.4453 40 18 40C18.5547 40 19 39.5508 19 39V37C19 36.4492 18.5547 36 18 36ZM23 36C22.4453 36 22 36.4492 22 37V39C22 39.5508 22.4453 40 23 40C23.5547 40 24 39.5508 24 39V37C24 36.4492 23.5547 36 23 36ZM28 36C27.4453 36 27 36.4492 27 37V39C27 39.5508 27.4453 40 28 40C28.5547 40 29 39.5508 29 39V37C29 36.4492 28.5547 36 28 36ZM33 36C32.4453 36 32 36.4492 32 37V39C32 39.5508 32.4453 40 33 40C33.5547 40 34 39.5508 34 39V37C34 36.4492 33.5547 36 33 36ZM38 36C37.4453 36 37 36.4492 37 37V39C37 39.5508 37.4453 40 38 40C38.5547 40 39 39.5508 39 39V37C39 36.4492 38.5547 36 38 36ZM43 36C42.4453 36 42 36.4492 42 37V39C42 39.5508 42.4453 40 43 40C43.5547 40 44 39.5508 44 39V37C44 36.4492 43.5547 36 43 36ZM48 36C47.4453 36 47 36.4492 47 37V39C47 39.5508 47.4453 40 48 40C48.5547 40 49 39.5508 49 39V37C49 36.4492 48.5547 36 48 36Z" fill="black"/>
<path d="M13 20C12.4453 20 12 20.4492 12 21C12 21.5508 12.4453 22 13 22H31C31.5547 22 32 21.5508 32 21C32 20.4492 31.5547 20 31 20H13ZM35 20C34.4453 20 34 20.4492 34 21C34 21.5508 34.4453 22 35 22H39C39.5547 22 40 21.5508 40 21C40 20.4492 39.5547 20 39 20H35ZM13 26C12.4453 26 12 26.4492 12 27C12 27.5508 12.4453 28 13 28H35C35.5547 28 36 27.5508 36 27C36 26.4492 35.5547 26 35 26H13ZM8 36C7.44531 36 7 36.4492 7 37V39C7 39.5508 7.44531 40 8 40C8.55469 40 9 39.5508 9 39V37C9 36.4492 8.55469 36 8 36ZM13 36C12.4453 36 12 36.4492 12 37V39C12 39.5508 12.4453 40 13 40C13.5547 40 14 39.5508 14 39V37C14 36.4492 13.5547 36 13 36ZM18 36C17.4453 36 17 36.4492 17 37V39C17 39.5508 17.4453 40 18 40C18.5547 40 19 39.5508 19 39V37C19 36.4492 18.5547 36 18 36ZM23 36C22.4453 36 22 36.4492 22 37V39C22 39.5508 22.4453 40 23 40C23.5547 40 24 39.5508 24 39V37C24 36.4492 23.5547 36 23 36ZM28 36C27.4453 36 27 36.4492 27 37V39C27 39.5508 27.4453 40 28 40C28.5547 40 29 39.5508 29 39V37C29 36.4492 28.5547 36 28 36ZM33 36C32.4453 36 32 36.4492 32 37V39C32 39.5508 32.4453 40 33 40C33.5547 40 34 39.5508 34 39V37C34 36.4492 33.5547 36 33 36ZM38 36C37.4453 36 37 36.4492 37 37V39C37 39.5508 37.4453 40 38 40C38.5547 40 39 39.5508 39 39V37C39 36.4492 38.5547 36 38 36ZM43 36C42.4453 36 42 36.4492 42 37V39C42 39.5508 42.4453 40 43 40C43.5547 40 44 39.5508 44 39V37C44 36.4492 43.5547 36 43 36ZM48 36C47.4453 36 47 36.4492 47 37V39C47 39.5508 47.4453 40 48 40C48.5547 40 49 39.5508 49 39V37C49 36.4492 48.5547 36 48 36Z" fill="#BD9457"/>
</svg>
