<svg width="64" height="64" viewBox="0 0 64 64" fill="none" xmlns="http://www.w3.org/2000/svg">
<path d="M9 3C7.346 3 6 4.346 6 6V20.1836C4.83716 20.5967 4 21.6954 4 23C4 29.2275 7.18141 34.724 12.002 37.957C12.0019 37.9716 12 37.9855 12 38C12 42.3105 14.7317 45.9738 18.5547 47.3789C20.5657 55.8655 28.2731 62 37 62C47.477 62 56 53.477 56 43V18.4121C58.9282 17.2225 61 14.3501 61 11C61 6.589 57.411 3 53 3C48.589 3 45 6.589 45 11C45 14.3501 47.0718 17.2225 50 18.4121V43C50 50.168 44.168 56 37 56C31.576 56 26.7321 52.5914 24.8438 47.584C28.9806 46.3585 32 42.5345 32 38C32 37.9855 31.9981 37.9716 31.998 37.957C36.8186 34.724 40 29.2275 40 23C40 21.6954 39.1628 20.5967 38 20.1836V6C38 4.346 36.654 3 35 3H32C30.346 3 29 4.346 29 6C29 7.654 30.346 9 32 9H35C35.3524 9 35.6856 8.92856 36 8.81641V20.1836C34.8372 20.5967 34 21.6954 34 23C34 29.617 28.617 35 22 35C15.383 35 10 29.617 10 23C10 21.6954 9.16284 20.5967 8 20.1836V8.81641C8.31439 8.92856 8.64761 9 9 9H12C13.654 9 15 7.654 15 6C15 4.346 13.654 3 12 3H9ZM9 5H12C12.552 5 13 5.449 13 6C13 6.551 12.552 7 12 7H9C8.448 7 8 6.551 8 6C8 5.449 8.448 5 9 5ZM32 5H35C35.552 5 36 5.449 36 6C36 6.551 35.552 7 35 7H32C31.448 7 31 6.551 31 6C31 5.449 31.448 5 32 5ZM53 5C56.309 5 59 7.691 59 11C59 14.309 56.309 17 53 17C49.691 17 47 14.309 47 11C47 7.691 49.691 5 53 5ZM53 7C50.794 7 49 8.794 49 11C49 13.206 50.794 15 53 15C55.206 15 57 13.206 57 11C57 8.794 55.206 7 53 7ZM53 9C54.103 9 55 9.897 55 11C55 12.103 54.103 13 53 13C51.897 13 51 12.103 51 11C51 9.897 51.897 9 53 9ZM52 19H54V43C54 52.374 46.374 60 37 60C29.564 60 22.9473 55.0223 20.7812 47.9883C21.0572 47.9952 21.3207 47.9867 21.584 47.9785C21.7229 47.9842 21.8597 48 22 48C22.2872 48 22.5705 47.9808 22.8516 47.957C24.938 53.9174 30.6221 58 37 58C45.271 58 52 51.271 52 43V19ZM7 22C7.551 22 8 22.449 8 23C8 30.72 14.28 37 22 37C29.72 37 36 30.72 36 23C36 22.449 36.449 22 37 22C37.551 22 38 22.449 38 23C38 28.2543 35.4428 32.9113 31.5195 35.8301C31.2515 36.0294 30.9816 36.2255 30.7012 36.4082C30.6381 36.4493 30.5715 36.4852 30.5078 36.5254C29.9319 36.8894 29.3309 37.216 28.709 37.5059C28.6052 37.5541 28.5054 37.6083 28.4004 37.6543C28.1601 37.7601 27.9123 37.8512 27.666 37.9453C27.4546 38.0257 27.2429 38.1061 27.0273 38.1777C26.8101 38.2503 26.5885 38.3156 26.3672 38.3789C26.102 38.4544 25.835 38.524 25.5645 38.5859C25.3669 38.6314 25.169 38.6749 24.9688 38.7129C24.656 38.7719 24.3384 38.8189 24.0195 38.8594C23.8484 38.8812 23.6787 38.9075 23.5059 38.9238C23.0093 38.9705 22.5085 39 22 39C21.4915 39 20.9907 38.9705 20.4941 38.9238C20.3213 38.9075 20.1516 38.8812 19.9805 38.8594C19.6616 38.8189 19.344 38.7719 19.0312 38.7129C18.831 38.6749 18.6331 38.6314 18.4355 38.5859C18.165 38.524 17.898 38.4544 17.6328 38.3789C17.4115 38.3156 17.1899 38.2503 16.9727 38.1777C16.7571 38.1061 16.5454 38.0257 16.334 37.9453C16.0877 37.8512 15.8399 37.7601 15.5996 37.6543C15.4946 37.6083 15.3948 37.5541 15.291 37.5059C14.6691 37.216 14.0681 36.8894 13.4922 36.5254C13.4285 36.4852 13.3619 36.4493 13.2988 36.4082C13.0184 36.2255 12.7485 36.0294 12.4805 35.8301C8.55718 32.9113 6 28.2543 6 23C6 22.449 6.449 22 7 22ZM14.084 39.1582C14.324 39.277 14.5681 39.3866 14.8125 39.4941C14.9203 39.5413 15.0278 39.5877 15.1367 39.6328C15.5801 39.8174 16.0303 39.9812 16.4863 40.1289C16.5744 40.1573 16.6614 40.1877 16.75 40.2148C17.2466 40.3671 17.7505 40.4954 18.2598 40.6035C18.3409 40.6208 18.4223 40.6362 18.5039 40.6523C19.0324 40.7568 19.5658 40.84 20.1055 40.8965C20.1619 40.9024 20.2188 40.9067 20.2754 40.9121C20.8455 40.9663 21.4202 41 22 41C22.5798 41 23.1545 40.9663 23.7246 40.9121C23.7812 40.9067 23.8381 40.9024 23.8945 40.8965C24.4342 40.84 24.9676 40.7568 25.4961 40.6523C25.5777 40.6362 25.6591 40.6208 25.7402 40.6035C26.2495 40.4954 26.7534 40.3671 27.25 40.2148C27.3386 40.1877 27.4256 40.1573 27.5137 40.1289C27.9697 39.9812 28.4199 39.8174 28.8633 39.6328C28.9722 39.5877 29.0797 39.5413 29.1875 39.4941C29.4319 39.3866 29.676 39.277 29.916 39.1582C29.353 43.0222 26.018 46 22 46C17.982 46 14.647 43.0222 14.084 39.1582ZM44.3457 45.1836C43.9555 45.1797 43.5837 45.4045 43.418 45.7832C43.198 46.2892 43.4295 46.8776 43.9355 47.0996L45.7676 47.9004C45.8976 47.9574 46.035 47.9824 46.168 47.9824C46.554 47.9824 46.9219 47.7598 47.0859 47.3828C47.3059 46.8768 47.0744 46.2884 46.5684 46.0664L44.7344 45.2656C44.6071 45.2106 44.4758 45.1849 44.3457 45.1836ZM30.9023 47.0449C30.6478 47.0184 30.383 47.0887 30.168 47.2637L28.6172 48.5273C28.1892 48.8753 28.1237 49.5065 28.4727 49.9355C28.6707 50.1775 28.957 50.3027 29.248 50.3027C29.47 50.3027 29.6949 50.2281 29.8809 50.0781L31.4316 48.8145C31.8596 48.4665 31.9232 47.8372 31.5742 47.4082C31.4002 47.1952 31.1568 47.0714 30.9023 47.0449ZM41.959 48.373C41.7055 48.3388 41.4393 48.4014 41.2188 48.5684C40.7798 48.9024 40.6933 49.5307 41.0273 49.9707L42.2383 51.5625C42.4343 51.8215 42.7332 51.957 43.0352 51.957C43.2462 51.957 43.4577 51.891 43.6387 51.752C44.0777 51.418 44.1621 50.7916 43.8281 50.3516L42.6191 48.7598C42.4526 48.5398 42.2125 48.4073 41.959 48.373ZM34.0488 49.4316C33.6594 49.4402 33.2944 49.6763 33.1406 50.0625L32.4023 51.9219C32.1993 52.4359 32.4508 53.0167 32.9648 53.2207C33.0858 53.2687 33.209 53.2891 33.332 53.2891C33.729 53.2891 34.1067 53.0512 34.2637 52.6582L35.002 50.8008C35.205 50.2868 34.9535 49.706 34.4395 49.502C34.3112 49.4512 34.1786 49.4288 34.0488 49.4316ZM37.9512 49.9258C37.4052 50.0008 37.0237 50.5057 37.0977 51.0527L37.3672 53.0332C37.4362 53.5342 37.8654 53.8965 38.3574 53.8965C38.4024 53.8965 38.4481 53.8957 38.4941 53.8887C39.0401 53.8137 39.4236 53.3087 39.3496 52.7617L39.0781 50.7793C39.0021 50.2333 38.4962 49.8538 37.9512 49.9258Z" fill="black"/>
<path d="M53 7C50.794 7 49 8.794 49 11C49 13.206 50.794 15 53 15C55.206 15 57 13.206 57 11C57 8.794 55.206 7 53 7ZM53 9C54.103 9 55 9.897 55 11C55 12.103 54.103 13 53 13C51.897 13 51 12.103 51 11C51 9.897 51.897 9 53 9ZM44.3457 45.1836C43.9555 45.1797 43.5837 45.4045 43.418 45.7832C43.198 46.2892 43.4295 46.8776 43.9355 47.0996L45.7676 47.9004C45.8976 47.9574 46.035 47.9824 46.168 47.9824C46.554 47.9824 46.9219 47.7598 47.0859 47.3828C47.3059 46.8768 47.0744 46.2884 46.5684 46.0664L44.7344 45.2656C44.6071 45.2106 44.4758 45.1849 44.3457 45.1836ZM30.9023 47.0449C30.6478 47.0184 30.383 47.0887 30.168 47.2637L28.6172 48.5273C28.1892 48.8753 28.1237 49.5065 28.4727 49.9355C28.6707 50.1775 28.957 50.3027 29.248 50.3027C29.47 50.3027 29.6949 50.2281 29.8809 50.0781L31.4316 48.8145C31.8596 48.4665 31.9232 47.8372 31.5742 47.4082C31.4002 47.1952 31.1568 47.0714 30.9023 47.0449ZM41.959 48.373C41.7055 48.3388 41.4393 48.4014 41.2188 48.5684C40.7798 48.9024 40.6933 49.5307 41.0273 49.9707L42.2383 51.5625C42.4343 51.8215 42.7332 51.957 43.0352 51.957C43.2462 51.957 43.4577 51.891 43.6387 51.752C44.0777 51.418 44.1621 50.7916 43.8281 50.3516L42.6191 48.7598C42.4526 48.5398 42.2125 48.4073 41.959 48.373ZM34.0488 49.4316C33.6594 49.4402 33.2944 49.6763 33.1406 50.0625L32.4023 51.9219C32.1993 52.4359 32.4508 53.0167 32.9648 53.2207C33.0858 53.2687 33.209 53.2891 33.332 53.2891C33.729 53.2891 34.1067 53.0512 34.2637 52.6582L35.002 50.8008C35.205 50.2868 34.9535 49.706 34.4395 49.502C34.3112 49.4512 34.1786 49.4288 34.0488 49.4316ZM37.9512 49.9258C37.4052 50.0008 37.0237 50.5057 37.0977 51.0527L37.3672 53.0332C37.4362 53.5342 37.8654 53.8965 38.3574 53.8965C38.4024 53.8965 38.4481 53.8957 38.4941 53.8887C39.0401 53.8137 39.4236 53.3087 39.3496 52.7617L39.0781 50.7793C39.0021 50.2333 38.4962 49.8538 37.9512 49.9258Z" fill="#BD9457"/>
</svg>
