<svg width="64" height="64" viewBox="0 0 64 64" fill="none" xmlns="http://www.w3.org/2000/svg">
<path d="M49.7972 1.30273C49.0289 1.30298 48.2611 1.59569 47.6761 2.17969C46.5061 3.34969 46.5061 5.25383 47.6761 6.42383L48.3831 7.13086L45.555 9.95703L44.8479 9.25195C43.7139 8.11795 41.7388 8.11795 40.6058 9.25195L9.90653 39.9492C8.73653 41.1192 8.73653 43.0234 9.90653 44.1934L10.6136 44.9004L7.07841 48.4355C6.68741 48.8265 6.68741 49.4586 7.07841 49.8496L7.78544 50.5566L4.25028 54.0918C3.85928 54.4828 3.85928 55.1149 4.25028 55.5059L5.66434 56.9199L2.12919 60.4551C1.73819 60.8461 1.73819 61.4781 2.12919 61.8691C2.32419 62.0641 2.58022 62.1621 2.83622 62.1621C3.09222 62.1621 3.34825 62.0641 3.54325 61.8691L7.07841 58.334L8.49247 59.748C8.68747 59.943 8.9435 60.041 9.1995 60.041C9.4555 60.041 9.71153 59.943 9.90653 59.748L13.4417 56.2129L14.1487 56.9199C14.3437 57.1149 14.5998 57.2129 14.8558 57.2129C15.1117 57.2129 15.3678 57.1149 15.5628 56.9199L19.0979 53.3848L19.805 54.0918C20.39 54.6768 21.1581 54.9688 21.9261 54.9688C22.6951 54.9688 23.4641 54.6768 24.0491 54.0918L54.7464 23.3926C55.3134 22.8266 55.6253 22.0735 55.6253 21.2715C55.6253 20.4695 55.3134 19.7164 54.7464 19.1504L54.0393 18.4434L56.8675 15.6133L57.5745 16.3203C58.1595 16.9053 58.9276 17.1973 59.6956 17.1973C60.4646 17.1973 61.2336 16.9053 61.8186 16.3203C62.9876 15.1513 62.9876 13.2501 61.8186 12.0801L51.9202 2.17969C51.3352 1.59469 50.5654 1.30248 49.7972 1.30273ZM49.7991 3.30273C50.0551 3.30273 50.3111 3.4007 50.5061 3.5957L60.4046 13.4941C60.7936 13.8841 60.7936 14.5182 60.4046 14.9082C60.0156 15.2972 59.3796 15.2982 58.9886 14.9082L57.5745 13.4941L50.5042 6.42383L49.0901 5.00977C48.7001 4.61977 48.7001 3.9857 49.0901 3.5957C49.2851 3.4007 49.5421 3.30273 49.7991 3.30273ZM49.7972 8.54492L55.4534 14.2012L52.6272 17.0293L46.969 11.373L49.7972 8.54492ZM42.7268 10.373C42.9948 10.373 43.2449 10.477 43.4339 10.666L53.3323 20.5664C53.5213 20.7544 53.6253 21.0054 53.6253 21.2734C53.6253 21.5414 53.5213 21.7905 53.3323 21.9785L22.635 52.6777C22.246 53.0677 21.61 53.0677 21.219 52.6777L19.805 51.2637L12.7347 44.1934L11.3206 42.7793C10.9306 42.3893 10.9306 41.7543 11.3206 41.3633L42.0179 10.666C42.2069 10.477 42.4588 10.373 42.7268 10.373ZM42.7249 17.3105C41.6884 17.3105 40.6523 17.6874 39.8968 18.4434L36.0686 22.2715C35.3126 23.0265 34.8968 24.0326 34.8968 25.1016C34.8968 26.1706 35.3126 27.1747 36.0686 27.9297C36.8236 28.6857 37.8288 29.1016 38.8968 29.1016C39.9648 29.1016 40.9708 28.6857 41.7268 27.9297L45.555 24.1016C46.311 23.3466 46.7268 22.3405 46.7268 21.2715C46.7268 20.2025 46.311 19.1984 45.555 18.4434C44.7995 17.6874 43.7614 17.3105 42.7249 17.3105ZM42.7268 19.2715C43.2618 19.2715 43.7629 19.4794 44.1409 19.8574C44.5189 20.2354 44.7268 20.7375 44.7268 21.2715C44.7268 21.8055 44.5189 22.3095 44.1409 22.6875L40.3128 26.5156C39.5568 27.2716 38.2387 27.2716 37.4827 26.5156C37.1047 26.1376 36.8968 25.6356 36.8968 25.1016C36.8968 24.5676 37.1047 24.0635 37.4827 23.6855L41.3108 19.8574C41.6888 19.4794 42.1918 19.2715 42.7268 19.2715ZM30.4124 25.5156C30.1566 25.5156 29.9009 25.6131 29.7054 25.8086L15.5628 39.9492C15.1718 40.3402 15.1718 40.9723 15.5628 41.3633L22.635 48.4355C22.83 48.6305 23.0861 48.7285 23.3421 48.7285C23.5981 48.7285 23.8541 48.6305 24.0491 48.4355L38.1897 34.293C38.5807 33.902 38.5807 33.2699 38.1897 32.8789L31.1194 25.8086C30.9239 25.6131 30.6681 25.5156 30.4124 25.5156ZM30.4124 27.9297L36.0686 33.5859L33.9475 35.707L31.8265 33.5859C31.4355 33.1949 30.8034 33.1949 30.4124 33.5859C30.0214 33.9769 30.0214 34.61 30.4124 35L32.5335 37.1211L30.4124 39.2422L28.2913 37.1211C27.9003 36.7301 27.2682 36.7301 26.8772 37.1211C26.4862 37.5121 26.4862 38.1442 26.8772 38.5352L28.9983 40.6562L26.8772 42.7793L24.7561 40.6562C24.3651 40.2653 23.7331 40.2653 23.3421 40.6562C22.9511 41.0462 22.9511 41.6793 23.3421 42.0703L25.4632 44.1934L23.3421 46.3145L17.6839 40.6562L30.4124 27.9297ZM12.0276 46.3125L17.6858 51.9707L14.8558 54.7988L14.1507 54.0938L14.1487 54.0918L9.90653 49.8496L9.90458 49.8477L9.1995 49.1426L12.0276 46.3125ZM9.19755 51.9707L12.0276 54.7988L9.1995 57.627L6.36942 54.7988L9.19755 51.9707Z" fill="black"/>
<path d="M42.7249 17.3105C41.6884 17.3105 40.6523 17.6874 39.8968 18.4434L36.0686 22.2715C35.3126 23.0265 34.8968 24.0326 34.8968 25.1016C34.8968 26.1706 35.3126 27.1747 36.0686 27.9297C36.8236 28.6857 37.8288 29.1016 38.8968 29.1016C39.9648 29.1016 40.9708 28.6857 41.7268 27.9297L45.555 24.1016C46.311 23.3466 46.7268 22.3405 46.7268 21.2715C46.7268 20.2025 46.311 19.1984 45.555 18.4434C44.7995 17.6874 43.7614 17.3105 42.7249 17.3105ZM42.7268 19.2715C43.2618 19.2715 43.7629 19.4794 44.1409 19.8574C44.5189 20.2354 44.7268 20.7375 44.7268 21.2715C44.7268 21.8055 44.5189 22.3095 44.1409 22.6875L40.3128 26.5156C39.5568 27.2716 38.2387 27.2716 37.4827 26.5156C37.1047 26.1376 36.8968 25.6356 36.8968 25.1016C36.8968 24.5676 37.1047 24.0635 37.4827 23.6855L41.3108 19.8574C41.6888 19.4794 42.1918 19.2715 42.7268 19.2715ZM30.4124 25.5156C30.1566 25.5156 29.9009 25.6131 29.7054 25.8086L15.5628 39.9492C15.1718 40.3402 15.1718 40.9723 15.5628 41.3633L22.635 48.4355C22.83 48.6305 23.0861 48.7285 23.3421 48.7285C23.5981 48.7285 23.8541 48.6305 24.0491 48.4355L38.1897 34.293C38.5807 33.902 38.5807 33.2699 38.1897 32.8789L31.1194 25.8086C30.9239 25.6131 30.6681 25.5156 30.4124 25.5156ZM30.4124 27.9297L36.0686 33.5859L33.9475 35.707L31.8265 33.5859C31.4355 33.1949 30.8034 33.1949 30.4124 33.5859C30.0214 33.9769 30.0214 34.61 30.4124 35L32.5335 37.1211L30.4124 39.2422L28.2913 37.1211C27.9003 36.7301 27.2682 36.7301 26.8772 37.1211C26.4862 37.5121 26.4862 38.1442 26.8772 38.5352L28.9983 40.6562L26.8772 42.7793L24.7561 40.6562C24.3651 40.2652 23.7331 40.2652 23.3421 40.6562C22.9511 41.0462 22.9511 41.6793 23.3421 42.0703L25.4632 44.1934L23.3421 46.3145L17.6839 40.6562L30.4124 27.9297Z" fill="#BD9457"/>
</svg>
