<svg width="18" height="18" viewBox="0 0 18 18" fill="none" xmlns="http://www.w3.org/2000/svg">
<path d="M0 2.52002V3.52127C1.08422 4.46486 7.30406 9.88736 7.79625 10.3163C8.3025 10.7578 8.80734 10.8 9 10.8C9.19266 10.8 9.6975 10.7578 10.2038 10.3163C10.7142 9.87189 17.2969 4.13299 18 3.52127V2.52002H0ZM0 4.47752V13.5113L5.445 9.21377C3.68016 7.67814 1.16297 5.49002 0 4.47752ZM18 4.47752C16.9017 5.43377 14.3452 7.65564 12.555 9.21377L18 13.5V4.47752ZM5.99625 9.69752L0 14.4225V15.48H18V14.4113L12.0038 9.69752C11.3063 10.305 10.8042 10.7452 10.6763 10.8563C9.98578 11.4567 9.27281 11.52 9 11.52C8.72719 11.52 8.01422 11.4581 7.32375 10.8563C7.19719 10.7466 6.69516 10.3064 5.99625 9.69752Z" fill="#BFAA86"/>
</svg>
