<svg width="18" height="18" viewBox="0 0 18 18" fill="none" xmlns="http://www.w3.org/2000/svg">
<path d="M8.99828 0.360352C5.82297 0.360352 3.23828 2.94504 3.23828 6.12035C3.23828 11.2011 8.50469 17.2607 8.72828 17.5166C8.79719 17.5954 8.89422 17.6404 8.99828 17.6404C9.10938 17.6333 9.19938 17.5954 9.26828 17.5166C9.49188 17.2564 14.7583 11.0929 14.7583 6.12035C14.7583 2.94504 12.1736 0.360352 8.99828 0.360352ZM8.99828 4.32035C10.1908 4.32035 11.1583 5.28785 11.1583 6.48035C11.1583 7.67285 10.1908 8.64035 8.99828 8.64035C7.80578 8.64035 6.83828 7.67285 6.83828 6.48035C6.83828 5.28785 7.80578 4.32035 8.99828 4.32035Z" fill="#BFAA86"/>
</svg>
