<svg width="70" height="64" viewBox="0 0 70 64" fill="none" xmlns="http://www.w3.org/2000/svg">
<path d="M31 2C15.0117 2 2 15.0078 2 31C2 46.9922 15.0117 60 31 60C46.9883 60 60 46.9922 60 31C60 15.0078 46.9883 2 31 2ZM31 4C45.8867 4 58 16.1133 58 31C58 45.8867 45.8867 58 31 58C16.1133 58 4 45.8867 4 31C4 16.1133 16.1133 4 31 4ZM30.5625 8.00781C24.6719 8.125 18.9609 10.5117 14.7344 14.7344C5.76953 23.7031 5.76953 38.293 14.7344 47.2617C14.9297 47.457 15.1875 47.5547 15.4414 47.5547C15.6992 47.5547 15.957 47.457 16.1523 47.2617C16.543 46.8711 16.543 46.2383 16.1523 45.8477C7.96094 37.6602 7.96484 24.3398 16.1523 16.1523C20.8984 11.4023 27.6992 9.20312 34.3398 10.2656C34.8828 10.3555 35.3984 9.98047 35.4844 9.4375C35.5742 8.89062 35.1992 8.375 34.6562 8.28906C33.293 8.07031 31.9219 7.97656 30.5625 8.00781ZM38.6562 9.38672C38.2695 9.40234 37.9102 9.64844 37.7656 10.0352C37.5703 10.5547 37.832 11.1289 38.3516 11.3242C39.0664 11.5898 39.7695 11.8984 40.4531 12.2383C40.5977 12.3125 40.75 12.3477 40.9023 12.3477C41.2656 12.3477 41.6172 12.1484 41.7969 11.7969C42.043 11.3047 41.8438 10.7031 41.3516 10.4531C40.6094 10.0781 39.832 9.74219 39.0508 9.44922C38.9219 9.40234 38.7891 9.38281 38.6562 9.38672ZM44.4336 12.6758C44.1797 12.707 43.9375 12.832 43.7656 13.0508C43.4258 13.4844 43.5 14.1133 43.9375 14.4531C44.6055 14.9766 45.2461 15.5469 45.8477 16.1523C54.0391 24.3398 54.0391 37.6602 45.8477 45.8477C45.457 46.2422 45.457 46.8711 45.8477 47.2656C46.043 47.457 46.3008 47.5586 46.5586 47.5586C46.8125 47.5586 47.0703 47.457 47.2656 47.2656C56.2305 38.2969 56.2305 23.7031 47.2656 14.7344C46.6055 14.0781 45.9023 13.4531 45.1719 12.8789C44.9531 12.7109 44.6836 12.6445 44.4336 12.6758ZM28 18C26.8984 18 26 18.8984 26 20V32H24C23.4453 32 23 32.4492 23 33C23 33.5508 23.4453 34 24 34H26V36H24C23.4453 36 23 36.4492 23 37C23 37.5508 23.4453 38 24 38H26V43C26 43.5508 26.4453 44 27 44C27.5547 44 28 43.5508 28 43V34H34C37.3086 34 40 31.3086 40 28V24C40 20.6914 37.3086 18 34 18H28ZM28 20H34C36.207 20 38 21.793 38 24V28C38 30.207 36.207 32 34 32H28V20ZM30 36C29.4453 36 29 36.4492 29 37C29 37.5508 29.4453 38 30 38H36C36.5547 38 37 37.5508 37 37C37 36.4492 36.5547 36 36 36H30ZM21.375 48.3945C20.9844 48.3477 20.5898 48.5273 20.3867 48.8867L19.3867 50.6211C19.1094 51.0977 19.2734 51.707 19.75 51.9844C19.9062 52.0742 20.0781 52.1211 20.25 52.1211C20.5938 52.1211 20.9297 51.9414 21.1133 51.6211L22.1133 49.8867C22.3906 49.4102 22.2305 48.7969 21.75 48.5195C21.6289 48.4531 21.5039 48.4102 21.375 48.3945ZM40.625 48.3945C40.4961 48.4102 40.3672 48.4531 40.25 48.5195C39.7695 48.7969 39.6094 49.4102 39.8867 49.8906L40.8867 51.6211C41.0703 51.9414 41.4062 52.1211 41.75 52.1211C41.9219 52.1211 42.0938 52.0781 42.25 51.9844C42.7305 51.7109 42.8906 51.0977 42.6133 50.6211L41.6133 48.8906C41.4062 48.5312 41.0117 48.3477 40.625 48.3945ZM36.1875 50.3438C36.0586 50.3242 35.9219 50.332 35.7852 50.3711C35.2539 50.5117 34.9375 51.0625 35.0781 51.5938L35.5977 53.5273C35.7188 53.9727 36.1211 54.2695 36.5625 54.2695C36.6523 54.2695 36.7383 54.2578 36.8242 54.2344C37.3555 54.0898 37.6758 53.543 37.5312 53.0117L37.0156 51.0781C36.9062 50.6758 36.5703 50.3984 36.1875 50.3438ZM25.8164 50.3438C25.4297 50.3984 25.0938 50.6758 24.9844 51.0781L24.4688 53.0117C24.3242 53.543 24.6445 54.0898 25.1758 54.2344C25.2617 54.2578 25.3477 54.2695 25.4375 54.2695C25.875 54.2695 26.2812 53.9727 26.4023 53.5273L26.9219 51.5938C27.0625 51.0625 26.7461 50.5117 26.2148 50.3711C26.0781 50.332 25.9453 50.3281 25.8164 50.3438ZM31 51C30.4453 51 30 51.4492 30 52V54C30 54.5508 30.4453 55 31 55C31.5547 55 32 54.5508 32 54V52C32 51.4492 31.5547 51 31 51Z" fill="black"/>
<path d="M30.6231 18C29.4183 18 28.4356 18.8984 28.4356 20V32H26.2481C25.6414 32 25.1544 32.4492 25.1544 33C25.1544 33.5508 25.6414 34 26.2481 34H28.4356V36H26.2481C25.6414 36 25.1544 36.4492 25.1544 37C25.1544 37.5508 25.6414 38 26.2481 38H28.4356V43C28.4356 43.5508 28.9227 44 29.5294 44C30.1361 44 30.6231 43.5508 30.6231 43V34H37.1856C40.8044 34 43.7481 31.3086 43.7481 28V24C43.7481 20.6914 40.8044 18 37.1856 18H30.6231ZM30.6231 20H37.1856C39.5996 20 41.5606 21.793 41.5606 24V28C41.5606 30.207 39.5996 32 37.1856 32H30.6231V20ZM32.8106 36C32.2039 36 31.7169 36.4492 31.7169 37C31.7169 37.5508 32.2039 38 32.8106 38H39.3731C39.9798 38 40.4669 37.5508 40.4669 37C40.4669 36.4492 39.9798 36 39.3731 36H32.8106ZM23.377 48.3945C22.9498 48.3477 22.5183 48.5273 22.2961 48.8867L21.2023 50.6211C20.899 51.0977 21.0784 51.707 21.5997 51.9844C21.7706 52.0742 21.9586 52.1211 22.1466 52.1211C22.5225 52.1211 22.89 51.9414 23.0908 51.6211L24.1845 49.8867C24.4879 49.4102 24.3127 48.7969 23.7872 48.5195C23.6547 48.4531 23.518 48.4102 23.377 48.3945ZM44.4317 48.3945C44.2907 48.4102 44.1497 48.4531 44.0216 48.5195C43.496 48.7969 43.3209 49.4102 43.6242 49.8906L44.718 51.6211C44.9188 51.9414 45.2862 52.1211 45.6622 52.1211C45.8502 52.1211 46.0382 52.0781 46.2091 51.9844C46.7346 51.7109 46.9097 51.0977 46.6064 50.6211L45.5126 48.8906C45.2862 48.5312 44.8547 48.3477 44.4317 48.3945ZM39.5782 50.3438C39.4372 50.3242 39.2877 50.332 39.1381 50.3711C38.5571 50.5117 38.211 51.0625 38.3648 51.5938L38.9331 53.5273C39.0655 53.9727 39.5056 54.2695 39.9883 54.2695C40.0866 54.2695 40.1806 54.2578 40.2746 54.2344C40.8557 54.0898 41.206 53.543 41.0479 53.0117L40.484 51.0781C40.3643 50.6758 39.9969 50.3984 39.5782 50.3438ZM28.2348 50.3438C27.8118 50.3984 27.4444 50.6758 27.3248 51.0781L26.7608 53.0117C26.6027 53.543 26.9531 54.0898 27.5341 54.2344C27.6281 54.2578 27.7221 54.2695 27.8204 54.2695C28.2989 54.2695 28.7432 53.9727 28.8757 53.5273L29.4439 51.5938C29.5977 51.0625 29.2517 50.5117 28.6706 50.3711C28.5211 50.332 28.3758 50.3281 28.2348 50.3438ZM33.9044 51C33.2977 51 32.8106 51.4492 32.8106 52V54C32.8106 54.5508 33.2977 55 33.9044 55C34.5111 55 34.9981 54.5508 34.9981 54V52C34.9981 51.4492 34.5111 51 33.9044 51Z" fill="#BD9457"/>
</svg>
