<svg width="64" height="64" viewBox="0 0 64 64" fill="none" xmlns="http://www.w3.org/2000/svg">
<path d="M32 0.0234375C29.3125 0.0234375 26.625 0.285156 23.957 0.820313C21.7773 1.25391 20.1055 2.94922 19.6992 5.13281L17.0156 19.4336C16.9531 19.7578 17.0586 20.0898 17.293 20.3242C17.5156 20.5469 17.8281 20.6484 18.1406 20.6016C18.1172 21.0039 18.0977 21.4961 18.0781 22.1094C17.9375 22.1211 17.8086 22.1406 17.707 22.1719C16.7969 22.4102 16.168 23.2188 15.918 24.4297C15.7188 25.4102 15.7891 26.5977 16.0977 27.7812C16.6367 29.7695 17.7578 31.2695 18.9883 31.7305C19.3984 33 19.9375 34.2578 20.5977 35.4688L8.25 41.3789C4.46094 43.1992 2 47.0898 2 51.3008V59C2 60.6484 3.35156 62 5 62H59C60.6484 62 62 60.6484 62 59V51.3008C62 47.0898 59.5391 43.1992 55.75 41.3789L43.4023 35.4688C44.0586 34.2617 44.6016 33 45.0117 31.7305C46.2383 31.2695 47.3594 29.7695 47.9023 27.7812C48.2109 26.5977 48.2812 25.4102 48.0781 24.4297C47.8281 23.2188 47.1992 22.4102 46.2891 22.1719C46.1875 22.1406 46.0586 22.1211 45.9297 22.1094C45.9102 21.543 45.8906 21.0312 45.8711 20.6055C45.9141 20.6094 45.957 20.6172 46 20.6172C46.2617 20.6172 46.5156 20.5156 46.7031 20.3281C46.9414 20.0938 47.043 19.7578 46.9844 19.4336L44.3008 5.13281C43.8906 2.94922 42.2188 1.25391 40.0391 0.820313C37.3711 0.285156 34.6836 0.0234375 32 0.0234375ZM32 2.02344C34.5547 2.02344 37.1133 2.27344 39.6484 2.78125C41.0234 3.05469 42.0781 4.125 42.3359 5.5L44.7461 18.3594L39.7383 17.3945C34.6016 16.4102 29.3945 16.4102 24.2578 17.3945L19.2539 18.3594L21.6602 5.5C21.9219 4.125 22.9766 3.05469 24.3516 2.78125C26.8906 2.27344 29.4453 2.02344 32 2.02344ZM32 5C31.4453 5 31 5.44922 31 6V9H28C27.4453 9 27 9.44922 27 10C27 10.5508 27.4453 11 28 11H31V14C31 14.5508 31.4453 15 32 15C32.5547 15 33 14.5508 33 14V11H36C36.5547 11 37 10.5508 37 10C37 9.44922 36.5547 9 36 9H33V6C33 5.44922 32.5547 5 32 5ZM32 18.6562C34.4609 18.6562 36.918 18.8906 39.3633 19.3594L43.8398 20.2188C43.8867 20.8242 43.9219 22.0703 43.9375 22.6602C43.9492 23 43.957 23.2812 43.9688 23.4297C43.9883 23.7891 44.1914 24.1094 44.5117 24.2812C44.8281 24.4375 45.2109 24.4219 45.5117 24.2188C45.6914 24.1094 45.7812 24.0977 45.7812 24.0977C45.8086 24.1094 46 24.2812 46.1211 24.8281C46.25 25.5 46.1992 26.3906 45.9688 27.2617C45.7188 28.1797 45.3594 28.8398 45.0195 29.2617C44.6914 29.6797 44.3789 29.8789 44.2305 29.8789C43.7891 29.8789 43.3984 30.168 43.2695 30.5977C42.8711 31.9609 42.3008 33.3281 41.6094 34.6211C41.2891 35.2109 40.9492 35.7891 40.5664 36.3398C38.3984 39.5781 35.3594 42 32 42C28.6406 42 25.6016 39.5781 23.4297 36.3398C23.0508 35.7891 22.7109 35.2109 22.3906 34.6211C21.6992 33.3281 21.1289 31.9609 20.7305 30.5977C20.6016 30.168 20.2109 29.8789 19.7695 29.8789C19.4688 29.8789 18.5312 29.1016 18.0312 27.2617C17.8008 26.3906 17.75 25.5 17.8789 24.8281C18 24.2695 18.1914 24.1094 18.2109 24.0977C18.2227 24.0977 18.3008 24.1094 18.4883 24.2188C18.7891 24.4219 19.1719 24.4375 19.4883 24.2812C19.8086 24.1094 20.0078 23.7891 20.0312 23.4297L20.0508 22.7383C20.0742 22.1289 20.1211 20.8594 20.168 20.2188L24.6367 19.3594C27.0781 18.8906 29.5391 18.6562 32 18.6562ZM21.6289 37.1992C24.1719 41.0703 27.8516 44 32 44C36.1484 44 39.8281 41.0703 42.3711 37.1992L43.6289 37.8008L34.332 60H29.668L20.3711 37.8008L21.6289 37.1992ZM18.5625 38.668L27.4961 60H5C4.44922 60 4 59.5508 4 59V51.3008C4 47.8594 6.00781 44.668 9.11719 43.1797L18.5625 38.668ZM45.4375 38.668L54.8789 43.1797C57.9922 44.668 60 47.8594 60 51.3008V59C60 59.5508 59.5508 60 59 60H36.5039L45.4375 38.668ZM7 54C6.44531 54 6 54.4492 6 55V57C6 57.5508 6.44531 58 7 58C7.55469 58 8 57.5508 8 57V55C8 54.4492 7.55469 54 7 54ZM12 54C11.4453 54 11 54.4492 11 55V57C11 57.5508 11.4453 58 12 58C12.5547 58 13 57.5508 13 57V55C13 54.4492 12.5547 54 12 54ZM17 54C16.4453 54 16 54.4492 16 55V57C16 57.5508 16.4453 58 17 58C17.5547 58 18 57.5508 18 57V55C18 54.4492 17.5547 54 17 54ZM22 54C21.4453 54 21 54.4492 21 55V57C21 57.5508 21.4453 58 22 58C22.5547 58 23 57.5508 23 57V55C23 54.4492 22.5547 54 22 54ZM42 54C41.4453 54 41 54.4492 41 55V57C41 57.5508 41.4453 58 42 58C42.5547 58 43 57.5508 43 57V55C43 54.4492 42.5547 54 42 54ZM47 54C46.4453 54 46 54.4492 46 55V57C46 57.5508 46.4453 58 47 58C47.5547 58 48 57.5508 48 57V55C48 54.4492 47.5547 54 47 54ZM52 54C51.4453 54 51 54.4492 51 55V57C51 57.5508 51.4453 58 52 58C52.5547 58 53 57.5508 53 57V55C53 54.4492 52.5547 54 52 54ZM57 54C56.4453 54 56 54.4492 56 55V57C56 57.5508 56.4453 58 57 58C57.5547 58 58 57.5508 58 57V55C58 54.4492 57.5547 54 57 54Z" fill="black"/>
<path d="M32 5C31.4453 5 31 5.44922 31 6V9H28C27.4453 9 27 9.44922 27 10C27 10.5508 27.4453 11 28 11H31V14C31 14.5508 31.4453 15 32 15C32.5547 15 33 14.5508 33 14V11H36C36.5547 11 37 10.5508 37 10C37 9.44922 36.5547 9 36 9H33V6C33 5.44922 32.5547 5 32 5ZM7 54C6.44531 54 6 54.4492 6 55V57C6 57.5508 6.44531 58 7 58C7.55469 58 8 57.5508 8 57V55C8 54.4492 7.55469 54 7 54ZM12 54C11.4453 54 11 54.4492 11 55V57C11 57.5508 11.4453 58 12 58C12.5547 58 13 57.5508 13 57V55C13 54.4492 12.5547 54 12 54ZM17 54C16.4453 54 16 54.4492 16 55V57C16 57.5508 16.4453 58 17 58C17.5547 58 18 57.5508 18 57V55C18 54.4492 17.5547 54 17 54ZM22 54C21.4453 54 21 54.4492 21 55V57C21 57.5508 21.4453 58 22 58C22.5547 58 23 57.5508 23 57V55C23 54.4492 22.5547 54 22 54ZM42 54C41.4453 54 41 54.4492 41 55V57C41 57.5508 41.4453 58 42 58C42.5547 58 43 57.5508 43 57V55C43 54.4492 42.5547 54 42 54ZM47 54C46.4453 54 46 54.4492 46 55V57C46 57.5508 46.4453 58 47 58C47.5547 58 48 57.5508 48 57V55C48 54.4492 47.5547 54 47 54ZM52 54C51.4453 54 51 54.4492 51 55V57C51 57.5508 51.4453 58 52 58C52.5547 58 53 57.5508 53 57V55C53 54.4492 52.5547 54 52 54ZM57 54C56.4453 54 56 54.4492 56 55V57C56 57.5508 56.4453 58 57 58C57.5547 58 58 57.5508 58 57V55C58 54.4492 57.5547 54 57 54Z" fill="#BD9457"/>
</svg>
