<svg width="64" height="64" viewBox="0 0 64 64" fill="none" xmlns="http://www.w3.org/2000/svg">
<path d="M31 2C27.75 2 24.5625 2.53516 21.5156 3.58594C20.9961 3.76562 20.7188 4.33594 20.9023 4.85938C21.082 5.37891 21.6523 5.65625 22.1719 5.47656C25.0039 4.49609 27.9727 4 31 4C45.8867 4 58 16.1133 58 31C58 45.168 46.9375 57.0039 32.8125 57.9375C32.2617 57.9766 31.8477 58.4531 31.8867 59.0039C31.918 59.5312 32.3594 59.9375 32.8789 59.9375C32.9023 59.9375 32.9258 59.9375 32.9492 59.9375C48.1172 58.9297 60 46.2188 60 31C60 15.0078 46.9922 2 31 2ZM16.875 5.75781C16.75 5.77344 16.6211 5.81641 16.5 5.88281C16.0195 6.16016 15.8594 6.77344 16.1367 7.25L17.1367 8.98438C17.3203 9.30469 17.6562 9.48438 18 9.48438C18.1719 9.48438 18.3438 9.44141 18.5 9.35156C18.9805 9.07422 19.1406 8.46094 18.8633 7.98438L17.8633 6.25C17.6602 5.89453 17.2656 5.71094 16.875 5.75781ZM31.5312 8.00391C28.4023 7.92969 25.2812 8.49609 22.3711 9.67188C21.8555 9.87891 21.6133 10.4648 21.8164 10.9766C21.9766 11.3672 22.3477 11.6016 22.7461 11.6016C22.8711 11.6016 22.9961 11.5781 23.1211 11.5312C26.6641 10.0938 30.5469 9.65625 34.3398 10.2656C34.8867 10.3555 35.3984 9.98047 35.4844 9.4375C35.5703 8.89062 35.1992 8.375 34.6562 8.28906C33.6172 8.12109 32.5703 8.02734 31.5312 8.00391ZM12.3164 9.19531C12.0625 9.17969 11.8008 9.26562 11.5938 9.44922C11.1836 9.82031 11.1523 10.4531 11.5195 10.8594L12.8594 12.3477C13.0547 12.5664 13.3281 12.6758 13.6055 12.6758C13.8398 12.6758 14.082 12.5938 14.2695 12.4219C14.6836 12.0508 14.7148 11.418 14.3438 11.0117L13.0078 9.52344C12.8242 9.31641 12.5703 9.20703 12.3164 9.19531ZM38.6602 9.38672C38.2695 9.40234 37.9102 9.64844 37.7656 10.0352C37.5742 10.5547 37.8359 11.1289 38.3516 11.3242C39.0625 11.5898 39.7695 11.8945 40.4492 12.2383C40.5938 12.3125 40.75 12.3477 40.9023 12.3477C41.2656 12.3477 41.6172 12.1484 41.7969 11.7969C42.043 11.3047 41.8438 10.7031 41.3516 10.4531C40.6055 10.0781 39.832 9.74219 39.0508 9.44922C38.9219 9.40234 38.7891 9.38281 38.6602 9.38672ZM8.19141 13.5547C7.9375 13.5938 7.70312 13.7305 7.53906 13.9531C7.21484 14.3984 7.3125 15.0273 7.75781 15.3516L9.37891 16.5273C9.55469 16.6562 9.76172 16.7188 9.96484 16.7188C10.2734 16.7188 10.5781 16.5742 10.7773 16.3086C11.1016 15.8594 11 15.2344 10.5547 14.9062L8.9375 13.7344C8.71094 13.5703 8.44531 13.5156 8.19141 13.5547ZM5.4375 18.6094C5.05078 18.6055 4.67578 18.8281 4.50781 19.2031C4.28516 19.7109 4.50781 20.3008 5.01562 20.5273L6.84375 21.3398C6.97266 21.3984 7.10938 21.4258 7.24609 21.4258C7.62891 21.4258 7.99609 21.2031 8.16016 20.8281C8.38672 20.3242 8.16016 19.7344 7.65625 19.5117L5.82812 18.6992C5.69922 18.6406 5.57031 18.6133 5.4375 18.6094ZM43 22C42.7461 22 42.4883 22.0977 42.293 22.293L28 36.5859L20.707 29.293C20.3164 28.9023 19.6836 28.9023 19.293 29.293C18.9023 29.6836 18.9023 30.3164 19.293 30.707L27.293 38.707C27.4883 38.9023 27.7422 39 28 39C28.2578 39 28.5117 38.9023 28.707 38.707L43.707 23.707C44.0977 23.3164 44.0977 22.6836 43.707 22.293C43.5117 22.0977 43.2539 22 43 22ZM3.42188 24.1953C3.03906 24.2695 2.71875 24.5664 2.63281 24.9727C2.51953 25.5117 2.86328 26.043 3.40625 26.1562L5.35938 26.5742C5.42969 26.5859 5.5 26.5938 5.57031 26.5938C6.03125 26.5938 6.44531 26.2734 6.54688 25.8008C6.66016 25.2617 6.31641 24.7305 5.77344 24.6172L3.82031 24.2031C3.68359 24.1719 3.55078 24.1719 3.42188 24.1953ZM3 30C2.44922 30 2 30.4492 2 31C2 31.5508 2.44922 32 3 32H5C5.55078 32 6 31.5508 6 31C6 30.4492 5.55078 30 5 30H3ZM5.75781 35.4219C5.62891 35.3984 5.49219 35.3984 5.35938 35.4258L3.40234 35.8438C2.86328 35.957 2.51953 36.4883 2.63281 37.0312C2.73438 37.5 3.14844 37.8203 3.60938 37.8203C3.67969 37.8203 3.74609 37.8125 3.81641 37.7969L5.77344 37.3828C6.31641 37.2695 6.66016 36.7383 6.54688 36.1992C6.46094 35.793 6.13672 35.4961 5.75781 35.4219ZM7.23047 40.5742C7.10156 40.5781 6.96875 40.6055 6.84375 40.6602L5.01562 41.4727C4.51172 41.6992 4.28516 42.2891 4.50781 42.7969C4.67188 43.168 5.03906 43.3906 5.42188 43.3906C5.55859 43.3906 5.69531 43.3594 5.82812 43.3008L7.65625 42.4883C8.16016 42.2656 8.38672 41.6719 8.16406 41.168C7.99219 40.7891 7.62109 40.5664 7.23047 40.5742ZM10.1211 45.2969C9.86719 45.2539 9.60156 45.3086 9.375 45.4727L7.75781 46.6484C7.3125 46.9727 7.21484 47.6016 7.53906 48.0469C7.73438 48.3164 8.03906 48.457 8.35156 48.457C8.55469 48.457 8.75781 48.3984 8.9375 48.2656L10.5547 47.0938C11 46.7656 11.1016 46.1406 10.7773 45.6914C10.6133 45.4688 10.375 45.3359 10.1211 45.2969ZM13.5469 49.3242C13.293 49.3359 13.043 49.4492 12.8594 49.6523L11.5195 51.1406C11.1523 51.5469 11.1875 52.1797 11.5938 52.5508C11.7852 52.7227 12.0273 52.8086 12.2656 52.8086C12.5391 52.8086 12.8086 52.6953 13.0078 52.4766L14.3438 50.9883C14.7148 50.582 14.6797 49.9492 14.2695 49.5781C14.0664 49.3945 13.8047 49.3125 13.5469 49.3242ZM18.125 52.5234C17.7344 52.4766 17.3398 52.6562 17.1367 53.0156L16.1367 54.75C15.8594 55.2266 16.0234 55.8359 16.5 56.1133C16.6562 56.2031 16.8281 56.25 17 56.25C17.3438 56.25 17.6797 56.0703 17.8633 55.75L18.8633 54.0156C19.1406 53.5391 18.9805 52.9258 18.5 52.6523C18.3789 52.582 18.2539 52.5391 18.125 52.5234ZM22.8789 54.7305C22.4883 54.7656 22.1406 55.0234 22.0156 55.418L21.3945 57.3203C21.2266 57.8438 21.5117 58.4102 22.0352 58.5781C22.1406 58.6133 22.2461 58.6289 22.3477 58.6289C22.7695 58.6289 23.1602 58.3594 23.2969 57.9375L23.918 56.0352C24.0859 55.5117 23.7969 54.9453 23.2734 54.7773C23.1406 54.7344 23.0078 54.7188 22.8789 54.7305ZM28.3867 55.8633C27.8281 55.8086 27.3438 56.2031 27.2852 56.7539L27.0781 58.7422C27.0195 59.293 27.418 59.7852 27.9688 59.8438C28.0039 59.8438 28.0391 59.8438 28.0742 59.8438C28.5781 59.8438 29.0117 59.4648 29.0664 58.9492L29.2773 56.9609C29.3359 56.4141 28.9375 55.9219 28.3867 55.8633Z" fill="black"/>
<path d="M31.5312 8.00401C28.4023 7.9298 25.2812 8.4962 22.3711 9.67198C21.8555 9.87901 21.6133 10.465 21.8164 10.9767C21.9766 11.3673 22.3477 11.6017 22.7461 11.6017C22.8711 11.6017 22.9961 11.5782 23.1211 11.5314C26.6641 10.0939 30.5469 9.65636 34.3398 10.2657C34.8867 10.3556 35.3984 9.98058 35.4844 9.43761C35.5703 8.89073 35.1992 8.37511 34.6562 8.28917C33.6172 8.1212 32.5703 8.02745 31.5312 8.00401ZM38.6602 9.38683C38.2695 9.40245 37.9102 9.64855 37.7656 10.0353C37.5742 10.5548 37.8359 11.129 38.3516 11.3243C39.0625 11.59 39.7695 11.8946 40.4492 12.2384C40.5938 12.3126 40.75 12.3478 40.9023 12.3478C41.2656 12.3478 41.6172 12.1485 41.7969 11.797C42.043 11.3048 41.8438 10.7032 41.3516 10.4532C40.6055 10.0782 39.832 9.74229 39.0508 9.44933C38.9219 9.40245 38.7891 9.38292 38.6602 9.38683ZM43 22.0001C42.7461 22.0001 42.4883 22.0978 42.293 22.2931L28 36.586L20.707 29.2931C20.3164 28.9025 19.6836 28.9025 19.293 29.2931C18.9023 29.6837 18.9023 30.3165 19.293 30.7071L27.293 38.7071C27.4883 38.9025 27.7422 39.0001 28 39.0001C28.2578 39.0001 28.5117 38.9025 28.707 38.7071L43.707 23.7071C44.0977 23.3165 44.0977 22.6837 43.707 22.2931C43.5117 22.0978 43.2539 22.0001 43 22.0001Z" fill="#BD9457"/>
</svg>
