<svg width="88" height="88" viewBox="0 0 88 88" fill="none" xmlns="http://www.w3.org/2000/svg">
<circle cx="44" cy="44" r="44" fill="white" fill-opacity="0.72"/>
<circle cx="44" cy="44" r="32" fill="white"/>
<path d="M37.016 52.192C35.688 52.192 34.504 51.856 33.464 51.184C32.44 50.496 31.632 49.504 31.04 48.208C30.448 46.912 30.152 45.376 30.152 43.6C30.152 41.824 30.448 40.288 31.04 38.992C31.632 37.696 32.44 36.712 33.464 36.04C34.504 35.352 35.688 35.008 37.016 35.008C38.328 35.008 39.496 35.352 40.52 36.04C41.56 36.712 42.376 37.696 42.968 38.992C43.56 40.288 43.856 41.824 43.856 43.6C43.856 45.376 43.56 46.912 42.968 48.208C42.376 49.504 41.56 50.496 40.52 51.184C39.496 51.856 38.328 52.192 37.016 52.192ZM37.016 50.056C38.36 50.056 39.432 49.504 40.232 48.4C41.048 47.296 41.456 45.696 41.456 43.6C41.456 41.504 41.048 39.904 40.232 38.8C39.432 37.696 38.36 37.144 37.016 37.144C35.656 37.144 34.568 37.696 33.752 38.8C32.952 39.904 32.552 41.504 32.552 43.6C32.552 45.696 32.952 47.296 33.752 48.4C34.568 49.504 35.656 50.056 37.016 50.056ZM52.3574 42.256C54.0054 42.416 55.2614 42.928 56.1254 43.792C56.9894 44.64 57.4214 45.728 57.4214 47.056C57.4214 48.016 57.1814 48.888 56.7014 49.672C56.2214 50.44 55.5014 51.056 54.5414 51.52C53.5974 51.968 52.4374 52.192 51.0614 52.192C49.8614 52.192 48.7094 52.016 47.6054 51.664C46.5014 51.296 45.5974 50.792 44.8934 50.152L45.9974 48.256C46.5734 48.8 47.3094 49.24 48.2054 49.576C49.1014 49.896 50.0534 50.056 51.0614 50.056C52.3094 50.056 53.2774 49.792 53.9654 49.264C54.6694 48.736 55.0214 48.008 55.0214 47.08C55.0214 46.152 54.6774 45.432 53.9894 44.92C53.3014 44.408 52.2614 44.152 50.8694 44.152H49.5254V42.472L53.7494 37.288H45.6614V35.2H56.7494V36.832L52.3574 42.256Z" fill="#BFAA86"/>
</svg>
