<svg width="88" height="88" viewBox="0 0 88 88" fill="none" xmlns="http://www.w3.org/2000/svg">
<circle cx="44" cy="44" r="44" fill="white" fill-opacity="0.72"/>
<circle cx="44" cy="44" r="32" fill="white"/>
<path d="M40.016 52.192C38.688 52.192 37.504 51.856 36.464 51.184C35.44 50.496 34.632 49.504 34.04 48.208C33.448 46.912 33.152 45.376 33.152 43.6C33.152 41.824 33.448 40.288 34.04 38.992C34.632 37.696 35.44 36.712 36.464 36.04C37.504 35.352 38.688 35.008 40.016 35.008C41.328 35.008 42.496 35.352 43.52 36.04C44.56 36.712 45.376 37.696 45.968 38.992C46.56 40.288 46.856 41.824 46.856 43.6C46.856 45.376 46.56 46.912 45.968 48.208C45.376 49.504 44.56 50.496 43.52 51.184C42.496 51.856 41.328 52.192 40.016 52.192ZM40.016 50.056C41.36 50.056 42.432 49.504 43.232 48.4C44.048 47.296 44.456 45.696 44.456 43.6C44.456 41.504 44.048 39.904 43.232 38.8C42.432 37.696 41.36 37.144 40.016 37.144C38.656 37.144 37.568 37.696 36.752 38.8C35.952 39.904 35.552 41.504 35.552 43.6C35.552 45.696 35.952 47.296 36.752 48.4C37.568 49.504 38.656 50.056 40.016 50.056ZM54.2975 35.2V52H51.9215V37.288H48.1295V35.2H54.2975Z" fill="#BFAA86"/>
</svg>
