<svg width="88" height="88" viewBox="0 0 88 88" fill="none" xmlns="http://www.w3.org/2000/svg">
<circle cx="44" cy="44" r="44" fill="white" fill-opacity="0.72"/>
<circle cx="44" cy="44" r="32" fill="white"/>
<path d="M37.016 52.192C35.688 52.192 34.504 51.856 33.464 51.184C32.44 50.496 31.632 49.504 31.04 48.208C30.448 46.912 30.152 45.376 30.152 43.6C30.152 41.824 30.448 40.288 31.04 38.992C31.632 37.696 32.44 36.712 33.464 36.04C34.504 35.352 35.688 35.008 37.016 35.008C38.328 35.008 39.496 35.352 40.52 36.04C41.56 36.712 42.376 37.696 42.968 38.992C43.56 40.288 43.856 41.824 43.856 43.6C43.856 45.376 43.56 46.912 42.968 48.208C42.376 49.504 41.56 50.496 40.52 51.184C39.496 51.856 38.328 52.192 37.016 52.192ZM37.016 50.056C38.36 50.056 39.432 49.504 40.232 48.4C41.048 47.296 41.456 45.696 41.456 43.6C41.456 41.504 41.048 39.904 40.232 38.8C39.432 37.696 38.36 37.144 37.016 37.144C35.656 37.144 34.568 37.696 33.752 38.8C32.952 39.904 32.552 41.504 32.552 43.6C32.552 45.696 32.952 47.296 33.752 48.4C34.568 49.504 35.656 50.056 37.016 50.056ZM57.8975 49.912V52H45.8255V50.368L52.6655 43.768C53.4975 42.968 54.0575 42.28 54.3455 41.704C54.6335 41.112 54.7775 40.52 54.7775 39.928C54.7775 39.048 54.4655 38.368 53.8415 37.888C53.2335 37.392 52.3535 37.144 51.2015 37.144C49.3455 37.144 47.9135 37.752 46.9055 38.968L45.2735 37.552C45.9295 36.752 46.7855 36.128 47.8415 35.68C48.9135 35.232 50.1055 35.008 51.4175 35.008C53.1775 35.008 54.5775 35.432 55.6175 36.28C56.6575 37.112 57.1775 38.248 57.1775 39.688C57.1775 40.584 56.9855 41.432 56.6015 42.232C56.2175 43.032 55.4895 43.944 54.4175 44.968L49.2815 49.912H57.8975Z" fill="#BFAA86"/>
</svg>
