<?xml version="1.0" standalone="no"?>
<!DOCTYPE svg PUBLIC "-//W3C//DTD SVG 20010904//EN"
 "http://www.w3.org/TR/2001/REC-SVG-20010904/DTD/svg10.dtd">
<svg version="1.0" xmlns="http://www.w3.org/2000/svg"
 width="768.000000pt" height="768.000000pt" viewBox="0 0 768.000000 768.000000"
 preserveAspectRatio="xMidYMid meet">
<metadata>
Created by potrace 1.14, written by Peter Selinger 2001-2017
</metadata>
<g transform="translate(0.000000,768.000000) scale(0.100000,-0.100000)"
fill="#000000" stroke="none">
<path d="M2379 6396 c-2 -2 -35 -6 -74 -10 -77 -7 -114 -12 -190 -26 -27 -5
-63 -12 -80 -15 -16 -2 -45 -9 -63 -14 -18 -5 -35 -10 -37 -10 -3 -1 -6 -1 -7
-2 -2 0 -14 -3 -28 -5 -38 -7 -290 -93 -334 -115 -22 -10 -46 -19 -53 -19 -7
0 -13 -4 -13 -9 0 -5 -10 -11 -22 -14 -13 -4 -61 -27 -107 -52 -47 -25 -88
-45 -93 -45 -4 0 -8 -4 -8 -10 0 -5 -5 -10 -11 -10 -19 0 -269 -170 -315 -214
-6 -6 -35 -31 -65 -56 -51 -43 -169 -159 -235 -231 -88 -97 -234 -297 -283
-389 -13 -25 -29 -48 -35 -52 -6 -4 -8 -8 -4 -8 4 0 -6 -22 -22 -49 -17 -26
-30 -51 -30 -54 0 -4 -18 -44 -40 -89 -23 -46 -41 -84 -41 -85 1 -5 -11 -38
-24 -68 -21 -50 -81 -242 -91 -291 -1 -7 -9 -43 -17 -80 -9 -38 -19 -94 -22
-124 -4 -30 -8 -57 -10 -61 -18 -28 -27 -509 -12 -624 13 -94 17 -120 22 -145
2 -14 7 -41 10 -60 18 -109 99 -385 141 -477 8 -17 14 -34 14 -37 0 -8 89
-188 130 -261 70 -127 198 -309 303 -432 36 -41 190 -195 243 -241 215 -188
458 -336 734 -449 47 -19 90 -36 95 -37 52 -14 71 -20 80 -26 6 -5 28 -11 50
-15 22 -4 46 -12 53 -18 6 -5 12 -7 12 -4 0 3 15 1 33 -4 32 -9 164 -38 202
-44 161 -25 220 -30 420 -30 182 0 299 7 365 20 14 3 39 7 55 10 44 7 87 14
115 21 14 3 36 8 49 10 60 12 277 78 331 101 8 3 17 7 20 8 3 1 22 9 44 18 21
9 40 17 43 17 2 0 64 30 138 67 108 53 137 64 148 54 24 -19 210 -108 314
-150 175 -70 401 -131 538 -147 22 -3 45 -7 52 -9 56 -19 469 -28 608 -12 114
13 172 21 230 34 17 4 35 7 40 8 11 1 40 8 128 31 32 9 66 17 75 19 9 2 51 16
92 30 649 227 1166 676 1466 1275 35 71 64 130 64 133 0 2 8 22 17 43 9 22 17
41 18 44 1 3 5 12 8 20 20 48 71 206 72 225 0 6 3 15 7 20 3 6 10 28 14 50 5
22 9 42 9 45 1 3 5 23 10 45 4 22 9 49 12 60 2 11 6 34 8 50 3 17 7 41 10 55
20 97 28 499 13 622 -19 151 -33 229 -63 348 -9 36 -21 85 -27 110 -6 25 -14
50 -18 55 -4 6 -10 23 -14 39 -19 78 -126 319 -201 451 -132 234 -348 498
-545 665 -29 25 -58 50 -64 55 -25 23 -136 105 -206 152 -192 128 -441 244
-671 313 -57 17 -111 33 -119 35 -83 18 -181 38 -205 41 -16 2 -43 7 -60 9
-156 27 -582 27 -715 0 -14 -3 -38 -7 -55 -10 -41 -6 -84 -14 -120 -22 -16 -4
-32 -7 -35 -8 -3 0 -23 -4 -45 -9 -22 -4 -44 -11 -50 -14 -5 -4 -14 -7 -20 -7
-19 -1 -177 -52 -225 -72 -8 -3 -17 -7 -20 -8 -3 -1 -22 -9 -44 -18 -21 -9
-40 -17 -43 -17 -2 0 -64 -30 -138 -67 -108 -53 -137 -64 -148 -54 -19 15
-197 102 -267 131 -30 12 -68 28 -85 35 -95 43 -426 128 -552 141 -26 2 -59 7
-73 10 -27 6 -455 15 -461 10z"/>
</g>
</svg>
