<svg width="24" height="24" viewBox="0 0 24 24" fill="none" xmlns="http://www.w3.org/2000/svg">
<circle cx="12" cy="12" r="11.5" stroke="white"/>
<path d="M18.5046 11.9543C18.5046 11.9543 18.5044 11.9549 18.5041 11.9561L18.5046 11.9543ZM18.4294 11.8945C18.4558 11.9385 18.4742 11.9736 18.4864 12C18.4742 12.0264 18.4558 12.0615 18.4294 12.1055C18.3556 12.2281 18.2374 12.3891 18.073 12.5777C17.7455 12.9533 17.2616 13.4072 16.6566 13.8449C15.4414 14.7243 13.7926 15.5 12 15.5C10.2074 15.5 8.55858 14.7243 7.34337 13.8449C6.73845 13.4072 6.25447 12.9533 5.92696 12.5777C5.76259 12.3891 5.64444 12.2281 5.57062 12.1055C5.54419 12.0615 5.52581 12.0264 5.51357 12C5.52581 11.9736 5.54419 11.9385 5.57062 11.8945C5.64444 11.7719 5.76259 11.6109 5.92696 11.4223C6.25447 11.0467 6.73845 10.5928 7.34337 10.1551C8.55858 9.2757 10.2074 8.5 12 8.5C13.7926 8.5 15.4414 9.2757 16.6566 10.1551C17.2616 10.5928 17.7455 11.0467 18.073 11.4223C18.2374 11.6109 18.3556 11.7719 18.4294 11.8945ZM5.49544 11.9543C5.49547 11.9543 5.49565 11.9549 5.49594 11.9561L5.49544 11.9543ZM5.49544 12.0457C5.49542 12.0458 5.49557 12.0451 5.49594 12.0438L5.49544 12.0457ZM18.5041 12.0438C18.5044 12.0451 18.5046 12.0457 18.5046 12.0457L18.5041 12.0438Z" stroke="white"/>
<circle cx="12" cy="12" r="2" fill="white"/>
</svg>
