<?xml version="1.0" standalone="no"?>
<!DOCTYPE svg PUBLIC "-//W3C//DTD SVG 20010904//EN"
 "http://www.w3.org/TR/2001/REC-SVG-20010904/DTD/svg10.dtd">
<svg version="1.0" xmlns="http://www.w3.org/2000/svg"
 width="100.000000pt" height="100.000000pt" viewBox="0 0 100.000000 100.000000"
 preserveAspectRatio="xMidYMid meet">
<metadata>
Created by potrace 1.16, written by Peter Selinger 2001-2019
</metadata>
<g transform="translate(0.000000,100.000000) scale(0.100000,-0.100000)"
fill="#000000" stroke="none">
<path d="M63 985 c-63 -27 -63 -30 -63 -485 0 -457 0 -459 65 -486 51 -21 820
-21 871 1 63 26 64 35 64 485 0 450 -1 459 -64 485 -50 21 -825 21 -873 0z
m859 -62 c14 -12 18 -31 18 -80 l0 -63 -440 0 -440 0 0 62 c0 105 -31 98 438
98 363 0 407 -2 424 -17z m18 -515 c0 -276 -2 -314 -17 -330 -15 -17 -41 -18
-421 -18 -363 0 -407 2 -424 17 -17 15 -18 39 -18 330 l0 313 440 0 440 0 0
-312z"/>
<path d="M475 410 c-36 -99 -65 -188 -63 -198 2 -9 13 -18 24 -20 19 -3 29 16
88 176 74 200 78 222 42 222 -22 0 -30 -16 -91 -180z"/>
<path d="M626 497 c-23 -17 -10 -45 35 -78 l31 -22 -43 -43 c-44 -45 -48 -74
-9 -74 26 0 120 86 120 110 0 14 -99 120 -112 120 -3 0 -12 -6 -22 -13z"/>
<path d="M287 452 c-26 -26 -47 -55 -47 -63 0 -23 95 -109 120 -109 38 0 35
30 -8 73 l-41 40 41 37 c29 25 40 41 35 53 -12 31 -51 19 -100 -31z"/>
</g>
</svg>
