<svg width="64" height="64" viewBox="0 0 64 64" fill="none" xmlns="http://www.w3.org/2000/svg">
<path d="M32 5C31.4453 5 31 5.44922 31 6V9H28C27.4453 9 27 9.44922 27 10C27 10.5508 27.4453 11 28 11H31V14C31 14.5508 31.4453 15 32 15C32.5547 15 33 14.5508 33 14V11H36C36.5547 11 37 10.5508 37 10C37 9.44922 36.5547 9 36 9H33V6C33 5.44922 32.5547 5 32 5ZM7 54C6.44531 54 6 54.4492 6 55V57C6 57.5508 6.44531 58 7 58C7.55469 58 8 57.5508 8 57V55C8 54.4492 7.55469 54 7 54ZM12 54C11.4453 54 11 54.4492 11 55V57C11 57.5508 11.4453 58 12 58C12.5547 58 13 57.5508 13 57V55C13 54.4492 12.5547 54 12 54ZM17 54C16.4453 54 16 54.4492 16 55V57C16 57.5508 16.4453 58 17 58C17.5547 58 18 57.5508 18 57V55C18 54.4492 17.5547 54 17 54ZM22 54C21.4453 54 21 54.4492 21 55V57C21 57.5508 21.4453 58 22 58C22.5547 58 23 57.5508 23 57V55C23 54.4492 22.5547 54 22 54ZM42 54C41.4453 54 41 54.4492 41 55V57C41 57.5508 41.4453 58 42 58C42.5547 58 43 57.5508 43 57V55C43 54.4492 42.5547 54 42 54ZM47 54C46.4453 54 46 54.4492 46 55V57C46 57.5508 46.4453 58 47 58C47.5547 58 48 57.5508 48 57V55C48 54.4492 47.5547 54 47 54ZM52 54C51.4453 54 51 54.4492 51 55V57C51 57.5508 51.4453 58 52 58C52.5547 58 53 57.5508 53 57V55C53 54.4492 52.5547 54 52 54ZM57 54C56.4453 54 56 54.4492 56 55V57C56 57.5508 56.4453 58 57 58C57.5547 58 58 57.5508 58 57V55C58 54.4492 57.5547 54 57 54Z" fill="#BD9457"/>
</svg>
