<svg width="49" height="49" viewBox="0 0 49 49" fill="none" xmlns="http://www.w3.org/2000/svg">
<path d="M24.5 44.7891C13.3219 44.7891 4.21094 35.6781 4.21094 24.5C4.21094 13.3219 13.3219 4.21094 24.5 4.21094C35.6781 4.21094 44.7891 13.3219 44.7891 24.5C44.7891 35.6781 35.6781 44.7891 24.5 44.7891ZM24.5 6.50781C14.5852 6.50781 6.50781 14.5852 6.50781 24.5C6.50781 34.4148 14.5852 42.4922 24.5 42.4922C34.4148 42.4922 42.4922 34.4148 42.4922 24.5C42.4922 14.5852 34.4148 6.50781 24.5 6.50781Z" fill="white"/>
<path d="M24.5 31.3906C23.8492 31.3906 23.3516 30.893 23.3516 30.2422V18.7578C23.3516 18.107 23.8492 17.6094 24.5 17.6094C25.1508 17.6094 25.6484 18.107 25.6484 18.7578V30.2422C25.6484 30.893 25.1508 31.3906 24.5 31.3906Z" fill="white"/>
<path d="M30.2422 25.6484H18.7578C18.107 25.6484 17.6094 25.1508 17.6094 24.5C17.6094 23.8492 18.107 23.3516 18.7578 23.3516H30.2422C30.893 23.3516 31.3906 23.8492 31.3906 24.5C31.3906 25.1508 30.893 25.6484 30.2422 25.6484Z" fill="white"/>
</svg>
