<svg width="64" height="64" viewBox="0 0 64 64" fill="none" xmlns="http://www.w3.org/2000/svg">
<path d="M17 3C16.447 3 16 3.448 16 4V11.5293L14 12.6133V10C14 9.448 13.553 9 13 9C12.447 9 12 9.448 12 10V13.6953L7.52344 16.1211C7.20144 16.2951 7 16.633 7 17V23C7 23.353 7.18628 23.6784 7.48828 23.8594C7.79028 24.0404 8.16456 24.0459 8.47656 23.8789L11 22.5117V59H8C7.448 59 7 59.448 7 60C7 60.552 7.448 61 8 61H56C56.552 61 57 60.552 57 60C57 59.448 56.552 59 56 59H53V22.5117L55.5234 23.8789C55.6734 23.9599 55.836 24 56 24C56.177 24 56.3537 23.9534 56.5117 23.8594C56.8137 23.6794 57 23.353 57 23V17C57 16.633 56.7996 16.2951 56.4766 16.1211L32.4766 3.12109C32.1796 2.96009 31.8204 2.96009 31.5234 3.12109L18 10.4453V4C18 3.448 17.553 3 17 3ZM32 5.13672L55 17.5957V21.3203L32.4766 9.12109C32.3276 9.04009 32.164 9 32 9C31.836 9 31.6724 9.04009 31.5234 9.12109L9 21.3223V17.5957L32 5.13672ZM32 11.1367L51 21.4277V59H37V52C37 51.448 36.553 51 36 51H28C27.447 51 27 51.448 27 52V59H13V38H40C40.552 38 41 37.552 41 37C41 36.448 40.552 36 40 36H13V21.4277L32 11.1367ZM19 23C18.448 23 18 23.448 18 24C18 24.552 18.448 25 19 25H21C21.552 25 22 24.552 22 24C22 23.448 21.552 23 21 23H19ZM27 23C26.448 23 26 23.448 26 24C26 24.552 26.448 25 27 25H29C29.552 25 30 24.552 30 24C30 23.448 29.552 23 29 23H27ZM35 23C34.448 23 34 23.448 34 24C34 24.552 34.448 25 35 25H37C37.552 25 38 24.552 38 24C38 23.448 37.552 23 37 23H35ZM43 23C42.448 23 42 23.448 42 24C42 24.552 42.448 25 43 25H45C45.552 25 46 24.552 46 24C46 23.448 45.552 23 45 23H43ZM19 27C18.448 27 18 27.448 18 28C18 28.552 18.448 29 19 29H21C21.552 29 22 28.552 22 28C22 27.448 21.552 27 21 27H19ZM27 27C26.448 27 26 27.448 26 28C26 28.552 26.448 29 27 29H29C29.552 29 30 28.552 30 28C30 27.448 29.552 27 29 27H27ZM35 27C34.448 27 34 27.448 34 28C34 28.552 34.448 29 35 29H37C37.552 29 38 28.552 38 28C38 27.448 37.552 27 37 27H35ZM43 27C42.448 27 42 27.448 42 28C42 28.552 42.448 29 43 29H45C45.552 29 46 28.552 46 28C46 27.448 45.552 27 45 27H43ZM19 31C18.448 31 18 31.448 18 32C18 32.552 18.448 33 19 33H21C21.552 33 22 32.552 22 32C22 31.448 21.552 31 21 31H19ZM27 31C26.448 31 26 31.448 26 32C26 32.552 26.448 33 27 33H29C29.552 33 30 32.552 30 32C30 31.448 29.552 31 29 31H27ZM35 31C34.448 31 34 31.448 34 32C34 32.552 34.448 33 35 33H37C37.552 33 38 32.552 38 32C38 31.448 37.552 31 37 31H35ZM43 31C42.448 31 42 31.448 42 32C42 32.552 42.448 33 43 33H45C45.552 33 46 32.552 46 32C46 31.448 45.552 31 45 31H43ZM44 36C43.448 36 43 36.448 43 37C43 37.552 43.448 38 44 38H48C48.552 38 49 37.552 49 37C49 36.448 48.552 36 48 36H44ZM19 41C18.448 41 18 41.448 18 42C18 42.552 18.448 43 19 43H21C21.552 43 22 42.552 22 42C22 41.448 21.552 41 21 41H19ZM27 41C26.448 41 26 41.448 26 42C26 42.552 26.448 43 27 43H29C29.552 43 30 42.552 30 42C30 41.448 29.552 41 29 41H27ZM35 41C34.448 41 34 41.448 34 42C34 42.552 34.448 43 35 43H37C37.552 43 38 42.552 38 42C38 41.448 37.552 41 37 41H35ZM43 41C42.448 41 42 41.448 42 42C42 42.552 42.448 43 43 43H45C45.552 43 46 42.552 46 42C46 41.448 45.552 41 45 41H43ZM19 45C18.448 45 18 45.448 18 46C18 46.552 18.448 47 19 47H21C21.552 47 22 46.552 22 46C22 45.448 21.552 45 21 45H19ZM27 45C26.448 45 26 45.448 26 46C26 46.552 26.448 47 27 47H29C29.552 47 30 46.552 30 46C30 45.448 29.552 45 29 45H27ZM35 45C34.448 45 34 45.448 34 46C34 46.552 34.448 47 35 47H37C37.552 47 38 46.552 38 46C38 45.448 37.552 45 37 45H35ZM43 45C42.448 45 42 45.448 42 46C42 46.552 42.448 47 43 47H45C45.552 47 46 46.552 46 46C46 45.448 45.552 45 45 45H43ZM19 49C18.448 49 18 49.448 18 50C18 50.552 18.448 51 19 51H21C21.552 51 22 50.552 22 50C22 49.448 21.552 49 21 49H19ZM43 49C42.448 49 42 49.448 42 50C42 50.552 42.448 51 43 51H45C45.552 51 46 50.552 46 50C46 49.448 45.552 49 45 49H43ZM19 53C18.448 53 18 53.448 18 54C18 54.552 18.448 55 19 55H21C21.552 55 22 54.552 22 54C22 53.448 21.552 53 21 53H19ZM29 53H35V59H29V53ZM43 53C42.448 53 42 53.448 42 54C42 54.552 42.448 55 43 55H45C45.552 55 46 54.552 46 54C46 53.448 45.552 53 45 53H43Z" fill="black"/>
<path d="M19 23C18.448 23 18 23.448 18 24C18 24.552 18.448 25 19 25H21C21.552 25 22 24.552 22 24C22 23.448 21.552 23 21 23H19ZM27 23C26.448 23 26 23.448 26 24C26 24.552 26.448 25 27 25H29C29.552 25 30 24.552 30 24C30 23.448 29.552 23 29 23H27ZM35 23C34.448 23 34 23.448 34 24C34 24.552 34.448 25 35 25H37C37.552 25 38 24.552 38 24C38 23.448 37.552 23 37 23H35ZM43 23C42.448 23 42 23.448 42 24C42 24.552 42.448 25 43 25H45C45.552 25 46 24.552 46 24C46 23.448 45.552 23 45 23H43ZM19 27C18.448 27 18 27.448 18 28C18 28.552 18.448 29 19 29H21C21.552 29 22 28.552 22 28C22 27.448 21.552 27 21 27H19ZM27 27C26.448 27 26 27.448 26 28C26 28.552 26.448 29 27 29H29C29.552 29 30 28.552 30 28C30 27.448 29.552 27 29 27H27ZM35 27C34.448 27 34 27.448 34 28C34 28.552 34.448 29 35 29H37C37.552 29 38 28.552 38 28C38 27.448 37.552 27 37 27H35ZM43 27C42.448 27 42 27.448 42 28C42 28.552 42.448 29 43 29H45C45.552 29 46 28.552 46 28C46 27.448 45.552 27 45 27H43ZM19 31C18.448 31 18 31.448 18 32C18 32.552 18.448 33 19 33H21C21.552 33 22 32.552 22 32C22 31.448 21.552 31 21 31H19ZM27 31C26.448 31 26 31.448 26 32C26 32.552 26.448 33 27 33H29C29.552 33 30 32.552 30 32C30 31.448 29.552 31 29 31H27ZM35 31C34.448 31 34 31.448 34 32C34 32.552 34.448 33 35 33H37C37.552 33 38 32.552 38 32C38 31.448 37.552 31 37 31H35ZM43 31C42.448 31 42 31.448 42 32C42 32.552 42.448 33 43 33H45C45.552 33 46 32.552 46 32C46 31.448 45.552 31 45 31H43ZM44 36C43.448 36 43 36.448 43 37C43 37.552 43.448 38 44 38H48C48.552 38 49 37.552 49 37C49 36.448 48.552 36 48 36H44ZM19 41C18.448 41 18 41.448 18 42C18 42.552 18.448 43 19 43H21C21.552 43 22 42.552 22 42C22 41.448 21.552 41 21 41H19ZM27 41C26.448 41 26 41.448 26 42C26 42.552 26.448 43 27 43H29C29.552 43 30 42.552 30 42C30 41.448 29.552 41 29 41H27ZM35 41C34.448 41 34 41.448 34 42C34 42.552 34.448 43 35 43H37C37.552 43 38 42.552 38 42C38 41.448 37.552 41 37 41H35ZM43 41C42.448 41 42 41.448 42 42C42 42.552 42.448 43 43 43H45C45.552 43 46 42.552 46 42C46 41.448 45.552 41 45 41H43ZM19 45C18.448 45 18 45.448 18 46C18 46.552 18.448 47 19 47H21C21.552 47 22 46.552 22 46C22 45.448 21.552 45 21 45H19ZM27 45C26.448 45 26 45.448 26 46C26 46.552 26.448 47 27 47H29C29.552 47 30 46.552 30 46C30 45.448 29.552 45 29 45H27ZM35 45C34.448 45 34 45.448 34 46C34 46.552 34.448 47 35 47H37C37.552 47 38 46.552 38 46C38 45.448 37.552 45 37 45H35ZM43 45C42.448 45 42 45.448 42 46C42 46.552 42.448 47 43 47H45C45.552 47 46 46.552 46 46C46 45.448 45.552 45 45 45H43ZM19 49C18.448 49 18 49.448 18 50C18 50.552 18.448 51 19 51H21C21.552 51 22 50.552 22 50C22 49.448 21.552 49 21 49H19ZM43 49C42.448 49 42 49.448 42 50C42 50.552 42.448 51 43 51H45C45.552 51 46 50.552 46 50C46 49.448 45.552 49 45 49H43ZM19 53C18.448 53 18 53.448 18 54C18 54.552 18.448 55 19 55H21C21.552 55 22 54.552 22 54C22 53.448 21.552 53 21 53H19ZM43 53C42.448 53 42 53.448 42 54C42 54.552 42.448 55 43 55H45C45.552 55 46 54.552 46 54C46 53.448 45.552 53 45 53H43Z" fill="#BD9457"/>
</svg>
