<svg width="30" height="30" viewBox="0 0 30 30" fill="none" xmlns="http://www.w3.org/2000/svg">
<path d="M11.4844 14.2969L4.26562 14.2969L6.58594 11.9766C6.86719 11.6953 6.86719 11.25 6.58594 10.9922C6.30469 10.7109 5.85937 10.7109 5.60156 10.9922L2.08594 14.5078C1.94531 14.6484 1.875 14.8359 1.875 15C1.875 15.1875 1.94531 15.3516 2.08594 15.4922L5.60156 19.0078C5.74219 19.1484 5.92969 19.2187 6.09375 19.2187C6.25781 19.2187 6.44531 19.1484 6.58594 19.0078C6.86719 18.7266 6.86719 18.2813 6.58594 18.0234L4.26562 15.7031L11.4844 15.7031C11.8828 15.7031 12.1875 15.3984 12.1875 15C12.1875 14.6016 11.8828 14.2969 11.4844 14.2969ZM15 15.7031C15.1865 15.7031 15.3653 15.629 15.4972 15.4972C15.629 15.3653 15.7031 15.1865 15.7031 15C15.7031 14.8135 15.629 14.6347 15.4972 14.5028C15.3653 14.371 15.1865 14.2969 15 14.2969C14.8135 14.2969 14.6347 14.371 14.5028 14.5028C14.371 14.6347 14.2969 14.8135 14.2969 15C14.2969 15.1865 14.371 15.3653 14.5028 15.4972C14.6347 15.629 14.8135 15.7031 15 15.7031Z" fill="#BD9457"/>
</svg>
