<svg width="61" height="60" viewBox="0 0 61 60" fill="none" xmlns="http://www.w3.org/2000/svg">
<path d="M30.5 3C28.8529 3 27.4738 4.05469 26.9466 5.50195C26.2675 4.89551 25.3859 4.5 24.4 4.5C22.3031 4.5 20.5875 6.1875 20.5875 8.25V9.64746C20.0335 9.27246 19.4021 9 18.6812 9C16.7958 9 15.25 10.5205 15.25 12.375V14.25H3.8125V44.25H15.3215L15.524 46.2539C15.7146 48.1172 16.8167 49.6406 18.3 50.625V57H19.825V51C20.245 51 20.5875 50.6631 20.5875 50.25C20.5875 49.8369 20.245 49.5 19.825 49.5C19.6671 49.5 19.5152 49.5469 19.3842 49.6377C18.1094 48.9199 17.1979 47.6367 17.0431 46.1016L16.8554 44.25H35.3252L41.8094 38.6982L41.8779 38.5371C41.8779 38.5371 43.4923 34.5 48.6034 34.5C50.7122 34.5 51.4122 35.5283 51.6624 35.9736C51.1054 36.668 47.1142 41.6455 46.6495 42.2139L40.0164 50.3584C39.6887 50.7568 38.125 52.3301 38.125 54.7295V57H39.65V54.7295C39.65 52.9424 40.6984 51.9141 41.2018 51.2988H41.2048L46.9474 44.25H57.1875V14.25H40.4125V8.25C40.4125 6.1875 38.6969 4.5 36.6 4.5C35.6141 4.5 34.7325 4.89551 34.0534 5.50195C33.5262 4.05469 32.1471 3 30.5 3ZM30.5 4.5C31.7718 4.5 32.7875 5.49902 32.7875 6.75V8.25H34.3125C34.3125 6.99902 35.3282 6 36.6 6C37.8718 6 38.8875 6.99902 38.8875 8.25V14.25H34.3125C34.3125 13.8369 33.97 13.5 33.55 13.5C33.13 13.5 32.7875 13.8369 32.7875 14.25H28.2125C28.2125 13.8369 27.87 13.5 27.45 13.5C27.03 13.5 26.6875 13.8369 26.6875 14.25H16.775V12.375C16.775 11.332 17.6209 10.5 18.6812 10.5C19.7416 10.5 20.5875 11.332 20.5875 12.375H22.1125V8.25C22.1125 6.99902 23.1282 6 24.4 6C25.6718 6 26.6875 6.99902 26.6875 8.25C26.6875 8.66309 27.03 9 27.45 9C27.87 9 28.2125 8.66309 28.2125 8.25V6.75C28.2125 5.49902 29.2282 4.5 30.5 4.5ZM27.45 10.5C27.03 10.5 26.6875 10.8369 26.6875 11.25C26.6875 11.6631 27.03 12 27.45 12C27.87 12 28.2125 11.6631 28.2125 11.25C28.2125 10.8369 27.87 10.5 27.45 10.5ZM33.55 10.5C33.13 10.5 32.7875 10.8369 32.7875 11.25C32.7875 11.6631 33.13 12 33.55 12C33.97 12 34.3125 11.6631 34.3125 11.25C34.3125 10.8369 33.97 10.5 33.55 10.5ZM5.3375 15.75H55.6625V42.75H48.1626C49.1366 41.5459 53.2112 36.4658 53.2112 36.4658L53.4971 36.1055L53.3065 35.6924C53.3065 35.6924 51.9721 33 48.6034 33C43.0336 33 40.8474 37.207 40.5793 37.7637L34.7533 42.75H5.3375V15.75ZM12.2 17.25C11.78 17.25 11.4375 17.5869 11.4375 18C11.4375 18.4131 11.78 18.75 12.2 18.75C12.62 18.75 12.9625 18.4131 12.9625 18C12.9625 17.5869 12.62 17.25 12.2 17.25ZM14.4875 17.25C14.0675 17.25 13.725 17.5869 13.725 18C13.725 18.4131 14.0675 18.75 14.4875 18.75C14.9075 18.75 15.25 18.4131 15.25 18C15.25 17.5869 14.9075 17.25 14.4875 17.25ZM16.775 17.25C16.355 17.25 16.0125 17.5869 16.0125 18C16.0125 18.4131 16.355 18.75 16.775 18.75C17.195 18.75 17.5375 18.4131 17.5375 18C17.5375 17.5869 17.195 17.25 16.775 17.25ZM19.0625 17.25C18.6425 17.25 18.3 17.5869 18.3 18C18.3 18.4131 18.6425 18.75 19.0625 18.75C19.4825 18.75 19.825 18.4131 19.825 18C19.825 17.5869 19.4825 17.25 19.0625 17.25ZM21.35 17.25C20.93 17.25 20.5875 17.5869 20.5875 18C20.5875 18.4131 20.93 18.75 21.35 18.75C21.77 18.75 22.1125 18.4131 22.1125 18C22.1125 17.5869 21.77 17.25 21.35 17.25ZM23.6375 17.25C23.2175 17.25 22.875 17.5869 22.875 18C22.875 18.4131 23.2175 18.75 23.6375 18.75C24.0575 18.75 24.4 18.4131 24.4 18C24.4 17.5869 24.0575 17.25 23.6375 17.25ZM25.925 17.25C25.505 17.25 25.1625 17.5869 25.1625 18C25.1625 18.4131 25.505 18.75 25.925 18.75C26.345 18.75 26.6875 18.4131 26.6875 18C26.6875 17.5869 26.345 17.25 25.925 17.25ZM28.2125 17.25C27.7925 17.25 27.45 17.5869 27.45 18C27.45 18.4131 27.7925 18.75 28.2125 18.75C28.6325 18.75 28.975 18.4131 28.975 18C28.975 17.5869 28.6325 17.25 28.2125 17.25ZM30.5 17.25C30.08 17.25 29.7375 17.5869 29.7375 18C29.7375 18.4131 30.08 18.75 30.5 18.75C30.92 18.75 31.2625 18.4131 31.2625 18C31.2625 17.5869 30.92 17.25 30.5 17.25ZM32.7875 17.25C32.3675 17.25 32.025 17.5869 32.025 18C32.025 18.4131 32.3675 18.75 32.7875 18.75C33.2075 18.75 33.55 18.4131 33.55 18C33.55 17.5869 33.2075 17.25 32.7875 17.25ZM35.075 17.25C34.655 17.25 34.3125 17.5869 34.3125 18C34.3125 18.4131 34.655 18.75 35.075 18.75C35.495 18.75 35.8375 18.4131 35.8375 18C35.8375 17.5869 35.495 17.25 35.075 17.25ZM37.3625 17.25C36.9425 17.25 36.6 17.5869 36.6 18C36.6 18.4131 36.9425 18.75 37.3625 18.75C37.7825 18.75 38.125 18.4131 38.125 18C38.125 17.5869 37.7825 17.25 37.3625 17.25ZM39.65 17.25C39.23 17.25 38.8875 17.5869 38.8875 18C38.8875 18.4131 39.23 18.75 39.65 18.75C40.07 18.75 40.4125 18.4131 40.4125 18C40.4125 17.5869 40.07 17.25 39.65 17.25ZM41.9375 17.25C41.5175 17.25 41.175 17.5869 41.175 18C41.175 18.4131 41.5175 18.75 41.9375 18.75C42.3575 18.75 42.7 18.4131 42.7 18C42.7 17.5869 42.3575 17.25 41.9375 17.25ZM44.225 17.25C43.805 17.25 43.4625 17.5869 43.4625 18C43.4625 18.4131 43.805 18.75 44.225 18.75C44.645 18.75 44.9875 18.4131 44.9875 18C44.9875 17.5869 44.645 17.25 44.225 17.25ZM46.5125 17.25C46.0925 17.25 45.75 17.5869 45.75 18C45.75 18.4131 46.0925 18.75 46.5125 18.75C46.9325 18.75 47.275 18.4131 47.275 18C47.275 17.5869 46.9325 17.25 46.5125 17.25ZM48.8 17.25C48.38 17.25 48.0375 17.5869 48.0375 18C48.0375 18.4131 48.38 18.75 48.8 18.75C49.22 18.75 49.5625 18.4131 49.5625 18C49.5625 17.5869 49.22 17.25 48.8 17.25ZM11.4375 19.5C11.0175 19.5 10.675 19.8369 10.675 20.25C10.675 20.6631 11.0175 21 11.4375 21C11.8575 21 12.2 20.6631 12.2 20.25C12.2 19.8369 11.8575 19.5 11.4375 19.5ZM49.5625 19.5C49.1425 19.5 48.8 19.8369 48.8 20.25C48.8 20.6631 49.1425 21 49.5625 21C49.9825 21 50.325 20.6631 50.325 20.25C50.325 19.8369 49.9825 19.5 49.5625 19.5ZM9.9125 21C9.49253 21 9.15 21.3369 9.15 21.75C9.15 22.1631 9.49253 22.5 9.9125 22.5C10.3325 22.5 10.675 22.1631 10.675 21.75C10.675 21.3369 10.3325 21 9.9125 21ZM30.5 21C25.8773 21 22.1125 24.7031 22.1125 29.25C22.1125 33.7969 25.8773 37.5 30.5 37.5C35.1227 37.5 38.8875 33.7969 38.8875 29.25C38.8875 24.7031 35.1227 21 30.5 21ZM51.0875 21C50.6675 21 50.325 21.3369 50.325 21.75C50.325 22.1631 50.6675 22.5 51.0875 22.5C51.5075 22.5 51.85 22.1631 51.85 21.75C51.85 21.3369 51.5075 21 51.0875 21ZM7.625 21.75C7.20503 21.75 6.8625 22.0869 6.8625 22.5C6.8625 22.9131 7.20503 23.25 7.625 23.25C8.04497 23.25 8.3875 22.9131 8.3875 22.5C8.3875 22.0869 8.04497 21.75 7.625 21.75ZM53.375 21.75C52.955 21.75 52.6125 22.0869 52.6125 22.5C52.6125 22.9131 52.955 23.25 53.375 23.25C53.795 23.25 54.1375 22.9131 54.1375 22.5C54.1375 22.0869 53.795 21.75 53.375 21.75ZM30.5 22.5C34.2976 22.5 37.3625 25.5146 37.3625 29.25C37.3625 32.9853 34.2976 36 30.5 36C26.7024 36 23.6375 32.9853 23.6375 29.25C23.6375 25.5146 26.7024 22.5 30.5 22.5ZM7.625 24C7.20503 24 6.8625 24.3369 6.8625 24.75C6.8625 25.1631 7.20503 25.5 7.625 25.5C8.04497 25.5 8.3875 25.1631 8.3875 24.75C8.3875 24.3369 8.04497 24 7.625 24ZM53.375 24C52.955 24 52.6125 24.3369 52.6125 24.75C52.6125 25.1631 52.955 25.5 53.375 25.5C53.795 25.5 54.1375 25.1631 54.1375 24.75C54.1375 24.3369 53.795 24 53.375 24ZM7.625 26.25C7.20503 26.25 6.8625 26.5869 6.8625 27C6.8625 27.4131 7.20503 27.75 7.625 27.75C8.04497 27.75 8.3875 27.4131 8.3875 27C8.3875 26.5869 8.04497 26.25 7.625 26.25ZM14.4875 26.25C12.8106 26.25 11.4375 27.6006 11.4375 29.25C11.4375 30.8994 12.8106 32.25 14.4875 32.25C16.1644 32.25 17.5375 30.8994 17.5375 29.25C17.5375 27.6006 16.1644 26.25 14.4875 26.25ZM45.75 26.25C44.0731 26.25 42.7 27.6006 42.7 29.25C42.7 30.8994 44.0731 32.25 45.75 32.25C47.4269 32.25 48.8 30.8994 48.8 29.25C48.8 27.6006 47.4269 26.25 45.75 26.25ZM53.375 26.25C52.955 26.25 52.6125 26.5869 52.6125 27C52.6125 27.4131 52.955 27.75 53.375 27.75C53.795 27.75 54.1375 27.4131 54.1375 27C54.1375 26.5869 53.795 26.25 53.375 26.25ZM14.4875 27.75C15.3394 27.75 16.0125 28.4121 16.0125 29.25C16.0125 30.0879 15.3394 30.75 14.4875 30.75C13.6356 30.75 12.9625 30.0879 12.9625 29.25C12.9625 28.4121 13.6356 27.75 14.4875 27.75ZM45.75 27.75C46.6019 27.75 47.275 28.4121 47.275 29.25C47.275 30.0879 46.6019 30.75 45.75 30.75C44.8981 30.75 44.225 30.0879 44.225 29.25C44.225 28.4121 44.8981 27.75 45.75 27.75ZM7.625 28.5C7.20503 28.5 6.8625 28.8369 6.8625 29.25C6.8625 29.6631 7.20503 30 7.625 30C8.04497 30 8.3875 29.6631 8.3875 29.25C8.3875 28.8369 8.04497 28.5 7.625 28.5ZM53.375 28.5C52.955 28.5 52.6125 28.8369 52.6125 29.25C52.6125 29.6631 52.955 30 53.375 30C53.795 30 54.1375 29.6631 54.1375 29.25C54.1375 28.8369 53.795 28.5 53.375 28.5ZM7.625 30.75C7.20503 30.75 6.8625 31.0869 6.8625 31.5C6.8625 31.9131 7.20503 32.25 7.625 32.25C8.04497 32.25 8.3875 31.9131 8.3875 31.5C8.3875 31.0869 8.04497 30.75 7.625 30.75ZM53.375 30.75C52.955 30.75 52.6125 31.0869 52.6125 31.5C52.6125 31.9131 52.955 32.25 53.375 32.25C53.795 32.25 54.1375 31.9131 54.1375 31.5C54.1375 31.0869 53.795 30.75 53.375 30.75ZM7.625 33C7.20503 33 6.8625 33.3369 6.8625 33.75C6.8625 34.1631 7.20503 34.5 7.625 34.5C8.04497 34.5 8.3875 34.1631 8.3875 33.75C8.3875 33.3369 8.04497 33 7.625 33ZM7.625 35.25C7.20503 35.25 6.8625 35.5869 6.8625 36C6.8625 36.4131 7.20503 36.75 7.625 36.75C8.04497 36.75 8.3875 36.4131 8.3875 36C8.3875 35.5869 8.04497 35.25 7.625 35.25ZM9.9125 36C9.49253 36 9.15 36.3369 9.15 36.75C9.15 37.1631 9.49253 37.5 9.9125 37.5C10.3325 37.5 10.675 37.1631 10.675 36.75C10.675 36.3369 10.3325 36 9.9125 36ZM11.4375 37.5C11.0175 37.5 10.675 37.8369 10.675 38.25C10.675 38.6631 11.0175 39 11.4375 39C11.8575 39 12.2 38.6631 12.2 38.25C12.2 37.8369 11.8575 37.5 11.4375 37.5ZM12.2 39.75C11.78 39.75 11.4375 40.0869 11.4375 40.5C11.4375 40.9131 11.78 41.25 12.2 41.25C12.62 41.25 12.9625 40.9131 12.9625 40.5C12.9625 40.0869 12.62 39.75 12.2 39.75ZM14.4875 39.75C14.0675 39.75 13.725 40.0869 13.725 40.5C13.725 40.9131 14.0675 41.25 14.4875 41.25C14.9075 41.25 15.25 40.9131 15.25 40.5C15.25 40.0869 14.9075 39.75 14.4875 39.75ZM16.775 39.75C16.355 39.75 16.0125 40.0869 16.0125 40.5C16.0125 40.9131 16.355 41.25 16.775 41.25C17.195 41.25 17.5375 40.9131 17.5375 40.5C17.5375 40.0869 17.195 39.75 16.775 39.75ZM19.0625 39.75C18.6425 39.75 18.3 40.0869 18.3 40.5C18.3 40.9131 18.6425 41.25 19.0625 41.25C19.4825 41.25 19.825 40.9131 19.825 40.5C19.825 40.0869 19.4825 39.75 19.0625 39.75ZM21.35 39.75C20.93 39.75 20.5875 40.0869 20.5875 40.5C20.5875 40.9131 20.93 41.25 21.35 41.25C21.77 41.25 22.1125 40.9131 22.1125 40.5C22.1125 40.0869 21.77 39.75 21.35 39.75ZM23.6375 39.75C23.2175 39.75 22.875 40.0869 22.875 40.5C22.875 40.9131 23.2175 41.25 23.6375 41.25C24.0575 41.25 24.4 40.9131 24.4 40.5C24.4 40.0869 24.0575 39.75 23.6375 39.75ZM25.925 39.75C25.505 39.75 25.1625 40.0869 25.1625 40.5C25.1625 40.9131 25.505 41.25 25.925 41.25C26.345 41.25 26.6875 40.9131 26.6875 40.5C26.6875 40.0869 26.345 39.75 25.925 39.75ZM28.2125 39.75C27.7925 39.75 27.45 40.0869 27.45 40.5C27.45 40.9131 27.7925 41.25 28.2125 41.25C28.6325 41.25 28.975 40.9131 28.975 40.5C28.975 40.0869 28.6325 39.75 28.2125 39.75ZM30.5 39.75C30.08 39.75 29.7375 40.0869 29.7375 40.5C29.7375 40.9131 30.08 41.25 30.5 41.25C30.92 41.25 31.2625 40.9131 31.2625 40.5C31.2625 40.0869 30.92 39.75 30.5 39.75ZM32.7875 39.75C32.3675 39.75 32.025 40.0869 32.025 40.5C32.025 40.9131 32.3675 41.25 32.7875 41.25C33.2075 41.25 33.55 40.9131 33.55 40.5C33.55 40.0869 33.2075 39.75 32.7875 39.75ZM35.075 39.75C34.655 39.75 34.3125 40.0869 34.3125 40.5C34.3125 40.9131 34.655 41.25 35.075 41.25C35.495 41.25 35.8375 40.9131 35.8375 40.5C35.8375 40.0869 35.495 39.75 35.075 39.75ZM22.875 49.5C22.455 49.5 22.1125 49.8369 22.1125 50.25C22.1125 50.6631 22.455 51 22.875 51C23.295 51 23.6375 50.6631 23.6375 50.25C23.6375 49.8369 23.295 49.5 22.875 49.5ZM25.925 49.5C25.505 49.5 25.1625 49.8369 25.1625 50.25C25.1625 50.6631 25.505 51 25.925 51C26.345 51 26.6875 50.6631 26.6875 50.25C26.6875 49.8369 26.345 49.5 25.925 49.5Z" fill="white"/>
<path d="M27.45 10.5C27.03 10.5 26.6875 10.8369 26.6875 11.25C26.6875 11.6631 27.03 12 27.45 12C27.87 12 28.2125 11.6631 28.2125 11.25C28.2125 10.8369 27.87 10.5 27.45 10.5ZM33.55 10.5C33.13 10.5 32.7875 10.8369 32.7875 11.25C32.7875 11.6631 33.13 12 33.55 12C33.97 12 34.3125 11.6631 34.3125 11.25C34.3125 10.8369 33.97 10.5 33.55 10.5ZM12.2 17.25C11.78 17.25 11.4375 17.5869 11.4375 18C11.4375 18.4131 11.78 18.75 12.2 18.75C12.62 18.75 12.9625 18.4131 12.9625 18C12.9625 17.5869 12.62 17.25 12.2 17.25ZM14.4875 17.25C14.0675 17.25 13.725 17.5869 13.725 18C13.725 18.4131 14.0675 18.75 14.4875 18.75C14.9075 18.75 15.25 18.4131 15.25 18C15.25 17.5869 14.9075 17.25 14.4875 17.25ZM16.775 17.25C16.355 17.25 16.0125 17.5869 16.0125 18C16.0125 18.4131 16.355 18.75 16.775 18.75C17.195 18.75 17.5375 18.4131 17.5375 18C17.5375 17.5869 17.195 17.25 16.775 17.25ZM19.0625 17.25C18.6425 17.25 18.3 17.5869 18.3 18C18.3 18.4131 18.6425 18.75 19.0625 18.75C19.4825 18.75 19.825 18.4131 19.825 18C19.825 17.5869 19.4825 17.25 19.0625 17.25ZM21.35 17.25C20.93 17.25 20.5875 17.5869 20.5875 18C20.5875 18.4131 20.93 18.75 21.35 18.75C21.77 18.75 22.1125 18.4131 22.1125 18C22.1125 17.5869 21.77 17.25 21.35 17.25ZM23.6375 17.25C23.2175 17.25 22.875 17.5869 22.875 18C22.875 18.4131 23.2175 18.75 23.6375 18.75C24.0575 18.75 24.4 18.4131 24.4 18C24.4 17.5869 24.0575 17.25 23.6375 17.25ZM25.925 17.25C25.505 17.25 25.1625 17.5869 25.1625 18C25.1625 18.4131 25.505 18.75 25.925 18.75C26.345 18.75 26.6875 18.4131 26.6875 18C26.6875 17.5869 26.345 17.25 25.925 17.25ZM28.2125 17.25C27.7925 17.25 27.45 17.5869 27.45 18C27.45 18.4131 27.7925 18.75 28.2125 18.75C28.6325 18.75 28.975 18.4131 28.975 18C28.975 17.5869 28.6325 17.25 28.2125 17.25ZM30.5 17.25C30.08 17.25 29.7375 17.5869 29.7375 18C29.7375 18.4131 30.08 18.75 30.5 18.75C30.92 18.75 31.2625 18.4131 31.2625 18C31.2625 17.5869 30.92 17.25 30.5 17.25ZM32.7875 17.25C32.3675 17.25 32.025 17.5869 32.025 18C32.025 18.4131 32.3675 18.75 32.7875 18.75C33.2075 18.75 33.55 18.4131 33.55 18C33.55 17.5869 33.2075 17.25 32.7875 17.25ZM35.075 17.25C34.655 17.25 34.3125 17.5869 34.3125 18C34.3125 18.4131 34.655 18.75 35.075 18.75C35.495 18.75 35.8375 18.4131 35.8375 18C35.8375 17.5869 35.495 17.25 35.075 17.25ZM37.3625 17.25C36.9425 17.25 36.6 17.5869 36.6 18C36.6 18.4131 36.9425 18.75 37.3625 18.75C37.7825 18.75 38.125 18.4131 38.125 18C38.125 17.5869 37.7825 17.25 37.3625 17.25ZM39.65 17.25C39.23 17.25 38.8875 17.5869 38.8875 18C38.8875 18.4131 39.23 18.75 39.65 18.75C40.07 18.75 40.4125 18.4131 40.4125 18C40.4125 17.5869 40.07 17.25 39.65 17.25ZM41.9375 17.25C41.5175 17.25 41.175 17.5869 41.175 18C41.175 18.4131 41.5175 18.75 41.9375 18.75C42.3575 18.75 42.7 18.4131 42.7 18C42.7 17.5869 42.3575 17.25 41.9375 17.25ZM44.225 17.25C43.805 17.25 43.4625 17.5869 43.4625 18C43.4625 18.4131 43.805 18.75 44.225 18.75C44.645 18.75 44.9875 18.4131 44.9875 18C44.9875 17.5869 44.645 17.25 44.225 17.25ZM46.5125 17.25C46.0925 17.25 45.75 17.5869 45.75 18C45.75 18.4131 46.0925 18.75 46.5125 18.75C46.9325 18.75 47.275 18.4131 47.275 18C47.275 17.5869 46.9325 17.25 46.5125 17.25ZM48.8 17.25C48.38 17.25 48.0375 17.5869 48.0375 18C48.0375 18.4131 48.38 18.75 48.8 18.75C49.22 18.75 49.5625 18.4131 49.5625 18C49.5625 17.5869 49.22 17.25 48.8 17.25ZM11.4375 19.5C11.0175 19.5 10.675 19.8369 10.675 20.25C10.675 20.6631 11.0175 21 11.4375 21C11.8575 21 12.2 20.6631 12.2 20.25C12.2 19.8369 11.8575 19.5 11.4375 19.5ZM49.5625 19.5C49.1425 19.5 48.8 19.8369 48.8 20.25C48.8 20.6631 49.1425 21 49.5625 21C49.9825 21 50.325 20.6631 50.325 20.25C50.325 19.8369 49.9825 19.5 49.5625 19.5ZM9.9125 21C9.49253 21 9.15 21.3369 9.15 21.75C9.15 22.1631 9.49253 22.5 9.9125 22.5C10.3325 22.5 10.675 22.1631 10.675 21.75C10.675 21.3369 10.3325 21 9.9125 21ZM30.5 21C25.8773 21 22.1125 24.7031 22.1125 29.25C22.1125 33.7969 25.8773 37.5 30.5 37.5C35.1227 37.5 38.8875 33.7969 38.8875 29.25C38.8875 24.7031 35.1227 21 30.5 21ZM51.0875 21C50.6675 21 50.325 21.3369 50.325 21.75C50.325 22.1631 50.6675 22.5 51.0875 22.5C51.5075 22.5 51.85 22.1631 51.85 21.75C51.85 21.3369 51.5075 21 51.0875 21ZM7.625 21.75C7.20503 21.75 6.8625 22.0869 6.8625 22.5C6.8625 22.9131 7.20503 23.25 7.625 23.25C8.04497 23.25 8.3875 22.9131 8.3875 22.5C8.3875 22.0869 8.04497 21.75 7.625 21.75ZM53.375 21.75C52.955 21.75 52.6125 22.0869 52.6125 22.5C52.6125 22.9131 52.955 23.25 53.375 23.25C53.795 23.25 54.1375 22.9131 54.1375 22.5C54.1375 22.0869 53.795 21.75 53.375 21.75ZM30.5 22.5C34.2976 22.5 37.3625 25.5146 37.3625 29.25C37.3625 32.9853 34.2976 36 30.5 36C26.7024 36 23.6375 32.9853 23.6375 29.25C23.6375 25.5146 26.7024 22.5 30.5 22.5ZM7.625 24C7.20503 24 6.8625 24.3369 6.8625 24.75C6.8625 25.1631 7.20503 25.5 7.625 25.5C8.04497 25.5 8.3875 25.1631 8.3875 24.75C8.3875 24.3369 8.04497 24 7.625 24ZM53.375 24C52.955 24 52.6125 24.3369 52.6125 24.75C52.6125 25.1631 52.955 25.5 53.375 25.5C53.795 25.5 54.1375 25.1631 54.1375 24.75C54.1375 24.3369 53.795 24 53.375 24ZM7.625 26.25C7.20503 26.25 6.8625 26.5869 6.8625 27C6.8625 27.4131 7.20503 27.75 7.625 27.75C8.04497 27.75 8.3875 27.4131 8.3875 27C8.3875 26.5869 8.04497 26.25 7.625 26.25ZM14.4875 26.25C12.8106 26.25 11.4375 27.6006 11.4375 29.25C11.4375 30.8994 12.8106 32.25 14.4875 32.25C16.1644 32.25 17.5375 30.8994 17.5375 29.25C17.5375 27.6006 16.1644 26.25 14.4875 26.25ZM45.75 26.25C44.0731 26.25 42.7 27.6006 42.7 29.25C42.7 30.8994 44.0731 32.25 45.75 32.25C47.4269 32.25 48.8 30.8994 48.8 29.25C48.8 27.6006 47.4269 26.25 45.75 26.25ZM53.375 26.25C52.955 26.25 52.6125 26.5869 52.6125 27C52.6125 27.4131 52.955 27.75 53.375 27.75C53.795 27.75 54.1375 27.4131 54.1375 27C54.1375 26.5869 53.795 26.25 53.375 26.25ZM14.4875 27.75C15.3394 27.75 16.0125 28.4121 16.0125 29.25C16.0125 30.0879 15.3394 30.75 14.4875 30.75C13.6356 30.75 12.9625 30.0879 12.9625 29.25C12.9625 28.4121 13.6356 27.75 14.4875 27.75ZM45.75 27.75C46.6019 27.75 47.275 28.4121 47.275 29.25C47.275 30.0879 46.6019 30.75 45.75 30.75C44.8981 30.75 44.225 30.0879 44.225 29.25C44.225 28.4121 44.8981 27.75 45.75 27.75ZM7.625 28.5C7.20503 28.5 6.8625 28.8369 6.8625 29.25C6.8625 29.6631 7.20503 30 7.625 30C8.04497 30 8.3875 29.6631 8.3875 29.25C8.3875 28.8369 8.04497 28.5 7.625 28.5ZM53.375 28.5C52.955 28.5 52.6125 28.8369 52.6125 29.25C52.6125 29.6631 52.955 30 53.375 30C53.795 30 54.1375 29.6631 54.1375 29.25C54.1375 28.8369 53.795 28.5 53.375 28.5ZM7.625 30.75C7.20503 30.75 6.8625 31.0869 6.8625 31.5C6.8625 31.9131 7.20503 32.25 7.625 32.25C8.04497 32.25 8.3875 31.9131 8.3875 31.5C8.3875 31.0869 8.04497 30.75 7.625 30.75ZM53.375 30.75C52.955 30.75 52.6125 31.0869 52.6125 31.5C52.6125 31.9131 52.955 32.25 53.375 32.25C53.795 32.25 54.1375 31.9131 54.1375 31.5C54.1375 31.0869 53.795 30.75 53.375 30.75ZM7.625 33C7.20503 33 6.8625 33.3369 6.8625 33.75C6.8625 34.1631 7.20503 34.5 7.625 34.5C8.04497 34.5 8.3875 34.1631 8.3875 33.75C8.3875 33.3369 8.04497 33 7.625 33ZM7.625 35.25C7.20503 35.25 6.8625 35.5869 6.8625 36C6.8625 36.4131 7.20503 36.75 7.625 36.75C8.04497 36.75 8.3875 36.4131 8.3875 36C8.3875 35.5869 8.04497 35.25 7.625 35.25ZM9.9125 36C9.49253 36 9.15 36.3369 9.15 36.75C9.15 37.1631 9.49253 37.5 9.9125 37.5C10.3325 37.5 10.675 37.1631 10.675 36.75C10.675 36.3369 10.3325 36 9.9125 36ZM11.4375 37.5C11.0175 37.5 10.675 37.8369 10.675 38.25C10.675 38.6631 11.0175 39 11.4375 39C11.8575 39 12.2 38.6631 12.2 38.25C12.2 37.8369 11.8575 37.5 11.4375 37.5ZM12.2 39.75C11.78 39.75 11.4375 40.0869 11.4375 40.5C11.4375 40.9131 11.78 41.25 12.2 41.25C12.62 41.25 12.9625 40.9131 12.9625 40.5C12.9625 40.0869 12.62 39.75 12.2 39.75ZM14.4875 39.75C14.0675 39.75 13.725 40.0869 13.725 40.5C13.725 40.9131 14.0675 41.25 14.4875 41.25C14.9075 41.25 15.25 40.9131 15.25 40.5C15.25 40.0869 14.9075 39.75 14.4875 39.75ZM16.775 39.75C16.355 39.75 16.0125 40.0869 16.0125 40.5C16.0125 40.9131 16.355 41.25 16.775 41.25C17.195 41.25 17.5375 40.9131 17.5375 40.5C17.5375 40.0869 17.195 39.75 16.775 39.75ZM19.0625 39.75C18.6425 39.75 18.3 40.0869 18.3 40.5C18.3 40.9131 18.6425 41.25 19.0625 41.25C19.4825 41.25 19.825 40.9131 19.825 40.5C19.825 40.0869 19.4825 39.75 19.0625 39.75ZM21.35 39.75C20.93 39.75 20.5875 40.0869 20.5875 40.5C20.5875 40.9131 20.93 41.25 21.35 41.25C21.77 41.25 22.1125 40.9131 22.1125 40.5C22.1125 40.0869 21.77 39.75 21.35 39.75ZM23.6375 39.75C23.2175 39.75 22.875 40.0869 22.875 40.5C22.875 40.9131 23.2175 41.25 23.6375 41.25C24.0575 41.25 24.4 40.9131 24.4 40.5C24.4 40.0869 24.0575 39.75 23.6375 39.75ZM25.925 39.75C25.505 39.75 25.1625 40.0869 25.1625 40.5C25.1625 40.9131 25.505 41.25 25.925 41.25C26.345 41.25 26.6875 40.9131 26.6875 40.5C26.6875 40.0869 26.345 39.75 25.925 39.75ZM28.2125 39.75C27.7925 39.75 27.45 40.0869 27.45 40.5C27.45 40.9131 27.7925 41.25 28.2125 41.25C28.6325 41.25 28.975 40.9131 28.975 40.5C28.975 40.0869 28.6325 39.75 28.2125 39.75ZM30.5 39.75C30.08 39.75 29.7375 40.0869 29.7375 40.5C29.7375 40.9131 30.08 41.25 30.5 41.25C30.92 41.25 31.2625 40.9131 31.2625 40.5C31.2625 40.0869 30.92 39.75 30.5 39.75ZM32.7875 39.75C32.3675 39.75 32.025 40.0869 32.025 40.5C32.025 40.9131 32.3675 41.25 32.7875 41.25C33.2075 41.25 33.55 40.9131 33.55 40.5C33.55 40.0869 33.2075 39.75 32.7875 39.75ZM35.075 39.75C34.655 39.75 34.3125 40.0869 34.3125 40.5C34.3125 40.9131 34.655 41.25 35.075 41.25C35.495 41.25 35.8375 40.9131 35.8375 40.5C35.8375 40.0869 35.495 39.75 35.075 39.75ZM22.875 49.5C22.455 49.5 22.1125 49.8369 22.1125 50.25C22.1125 50.6631 22.455 51 22.875 51C23.295 51 23.6375 50.6631 23.6375 50.25C23.6375 49.8369 23.295 49.5 22.875 49.5ZM25.925 49.5C25.505 49.5 25.1625 49.8369 25.1625 50.25C25.1625 50.6631 25.505 51 25.925 51C26.345 51 26.6875 50.6631 26.6875 50.25C26.6875 49.8369 26.345 49.5 25.925 49.5Z" fill="#BD9457"/>
</svg>
