<svg width="18" height="18" viewBox="0 0 18 18" fill="none" xmlns="http://www.w3.org/2000/svg">
<path d="M14.0522 16.9198C14.0466 16.9198 14.0409 16.9198 14.0353 16.9198C11.3297 16.8312 8.15999 14.2085 5.97609 12.0232C3.78937 9.83788 1.16671 6.66679 1.08234 3.97382C1.0514 3.02882 3.37031 1.34835 3.39421 1.33148C3.99609 0.912414 4.66406 1.06148 4.93828 1.44116C5.1239 1.69851 6.88171 4.36195 7.07296 4.66429C7.27124 4.97788 7.24171 5.44476 6.99421 5.91304C6.85781 6.1732 6.40499 6.96913 6.19265 7.34038C6.42187 7.66663 7.02796 8.46679 8.27953 9.71835C9.53249 10.9699 10.3312 11.5774 10.6589 11.8066C11.0302 11.5943 11.8261 11.1415 12.0862 11.0051C12.5475 10.7604 13.0116 10.7294 13.328 10.9235C13.6514 11.1218 16.3078 12.888 16.5525 13.0582C16.7578 13.203 16.89 13.4505 16.9167 13.7388C16.942 14.0299 16.852 14.3379 16.665 14.6065C16.6495 14.629 14.9887 16.9198 14.0522 16.9198Z" fill="#BFAA86"/>
</svg>
