<svg width="36" height="35" viewBox="0 0 36 35" fill="none" xmlns="http://www.w3.org/2000/svg">
<ellipse cx="18" cy="17.5" rx="18" ry="17.5" fill="white"/>
<path d="M22.8497 11.1227C22.6713 11.131 22.5032 11.1829 22.3538 11.241H22.3517C22.2002 11.3012 21.4801 11.6042 20.3865 12.0628C19.2928 12.5235 17.8734 13.1212 16.4644 13.7147C13.6504 14.8996 10.8842 16.0659 10.8842 16.0659L10.9174 16.0534C10.9174 16.0534 10.7264 16.1157 10.5272 16.2526C10.4255 16.319 10.3135 16.4103 10.2159 16.5535C10.1184 16.6967 10.0396 16.9167 10.0686 17.1429C10.1163 17.5268 10.3654 17.7571 10.5438 17.8837C10.7244 18.0124 10.8966 18.0726 10.8966 18.0726H10.9008L13.4948 18.9462C13.611 19.3198 14.2854 21.5361 14.4473 22.0466C14.5427 22.3516 14.6361 22.5425 14.7523 22.6878C14.8084 22.7625 14.8748 22.8248 14.9536 22.8746C14.9847 22.8932 15.0179 22.9078 15.0511 22.9202C15.0615 22.9264 15.0719 22.9285 15.0844 22.9306L15.0574 22.9244C15.0657 22.9264 15.0719 22.9327 15.0781 22.9347C15.0989 22.941 15.1134 22.9431 15.1404 22.9472C15.5513 23.0717 15.8812 22.8165 15.8812 22.8165L15.8999 22.8019L17.4314 21.4074L19.9984 23.3768L20.0565 23.4017C20.5919 23.6362 21.1335 23.5054 21.4199 23.2751C21.7084 23.0427 21.8204 22.7459 21.8204 22.7459L21.8391 22.6982L23.823 12.5359C23.879 12.2848 23.8936 12.0503 23.8313 11.8221C23.769 11.5938 23.6093 11.3801 23.4163 11.2659C23.2212 11.1497 23.0282 11.1144 22.8497 11.1227ZM22.7958 12.2122C22.7937 12.2454 22.7999 12.2413 22.7854 12.3056V12.3118L20.8202 22.3682C20.8119 22.3827 20.7974 22.4139 20.7579 22.445C20.7164 22.4782 20.6832 22.499 20.511 22.4305L17.3712 20.0232L15.4745 21.7519L15.8729 19.2077C15.8729 19.2077 20.7911 14.6236 21.0028 14.4264C21.2145 14.2293 21.1439 14.1878 21.1439 14.1878C21.1584 13.9471 20.8243 14.1172 20.8243 14.1172L14.356 18.1244L14.3539 18.1141L11.2535 17.0702V17.0682C11.2515 17.0682 11.2473 17.0661 11.2452 17.0661C11.2473 17.0661 11.2618 17.0599 11.2618 17.0599L11.2784 17.0516L11.295 17.0453C11.295 17.0453 14.0634 15.8791 16.8773 14.6941C18.2864 14.1006 19.7058 13.503 20.7974 13.0423C21.8889 12.5837 22.6962 12.2475 22.7418 12.2288C22.7854 12.2122 22.7646 12.2122 22.7958 12.2122Z" fill="#7491A5" fill-opacity="0.6"/>
</svg>
