<svg width="20" height="20" viewBox="0 0 20 20" fill="none" xmlns="http://www.w3.org/2000/svg">
<path fill-rule="evenodd" clip-rule="evenodd" d="M10 0C4.47994 0 0 4.47993 0 10C0 15.5201 4.47994 20 10 20C15.5201 20 20 15.5201 20 10C20 4.47993 15.5201 0 10 0ZM10 15C9.45008 15 8.99993 14.5499 8.99993 13.9999V10C8.99993 9.45007 9.45008 8.99992 10 8.99992C10.5499 8.99992 11.0001 9.45007 11.0001 10V13.9999C11.0001 14.5499 10.5499 15 10 15ZM11.0001 6.99977H8.99993V5H11.0001V7.00015V6.99977Z" fill="#5B5B5B"/>
</svg>
