<svg width="140" height="50" viewBox="0 0 140 50" fill="none" xmlns="http://www.w3.org/2000/svg">
<path d="M24.3482 50C37.7954 50 48.6965 38.8967 48.6965 25.2C48.6965 11.5034 37.7954 0.400024 24.3482 0.400024C10.9011 0.400024 0 11.5034 0 25.2C0 38.8967 10.9011 50 24.3482 50Z" fill="url(#paint0_radial)"/>
<path d="M18.2503 32.8994C19.5571 32.8994 20.6164 31.8204 20.6164 30.4894C20.6164 29.1584 19.5571 28.0794 18.2503 28.0794C16.9436 28.0794 15.8843 29.1584 15.8843 30.4894C15.8843 31.8204 16.9436 32.8994 18.2503 32.8994Z" fill="#FEFEFE"/>
<path d="M24.1331 32.9163C25.4399 32.9163 26.4992 31.8374 26.4992 30.5064C26.4992 29.1754 25.4399 28.0964 24.1331 28.0964C22.8264 28.0964 21.7671 29.1754 21.7671 30.5064C21.7671 31.8374 22.8264 32.9163 24.1331 32.9163Z" fill="#FEFEFE"/>
<path d="M30.0496 32.9449C31.3564 32.9449 32.4157 31.8659 32.4157 30.5349C32.4157 29.2039 31.3564 28.1249 30.0496 28.1249C28.7429 28.1249 27.6836 29.2039 27.6836 30.5349C27.6836 31.8659 28.7429 32.9449 30.0496 32.9449Z" fill="#FEFEFE"/>
<path d="M18.2698 26.2812C19.5766 26.2812 20.6359 25.2022 20.6359 23.8713C20.6359 22.5403 19.5766 21.4614 18.2698 21.4614C16.9631 21.4614 15.9038 22.5403 15.9038 23.8713C15.9038 25.2022 16.9631 26.2812 18.2698 26.2812Z" fill="#FEFEFE"/>
<path d="M24.1527 26.2985C25.4595 26.2985 26.5188 25.2195 26.5188 23.8885C26.5188 22.5575 25.4595 21.4785 24.1527 21.4785C22.846 21.4785 21.7866 22.5575 21.7866 23.8885C21.7866 25.2195 22.846 26.2985 24.1527 26.2985Z" fill="#FEFEFE"/>
<path d="M30.0692 26.3267C31.376 26.3267 32.4353 25.2477 32.4353 23.9167C32.4353 22.5857 31.376 21.5067 30.0692 21.5067C28.7624 21.5067 27.7031 22.5857 27.7031 23.9167C27.7031 25.2477 28.7624 26.3267 30.0692 26.3267Z" fill="#FEFEFE"/>
<path d="M18.2894 19.9847C19.5962 19.9847 20.6555 18.9057 20.6555 17.5747C20.6555 16.2438 19.5962 15.1648 18.2894 15.1648C16.9827 15.1648 15.9233 16.2438 15.9233 17.5747C15.9233 18.9057 16.9827 19.9847 18.2894 19.9847Z" fill="#FEFEFE"/>
<path d="M24.1722 20.0019C25.479 20.0019 26.5383 18.9229 26.5383 17.5919C26.5383 16.2609 25.479 15.1819 24.1722 15.1819C22.8655 15.1819 21.8062 16.2609 21.8062 17.5919C21.8062 18.9229 22.8655 20.0019 24.1722 20.0019Z" fill="#FEFEFE"/>
<path d="M30.0888 20.0302C31.3955 20.0302 32.4548 18.9513 32.4548 17.6203C32.4548 16.2893 31.3955 15.2103 30.0888 15.2103C28.782 15.2103 27.7227 16.2893 27.7227 17.6203C27.7227 18.9513 28.782 20.0302 30.0888 20.0302Z" fill="#FEFEFE"/>
<path d="M35.9549 26.3439C37.2617 26.3439 38.3211 25.2649 38.3211 23.9339C38.3211 22.6029 37.2617 21.524 35.9549 21.524C34.6482 21.524 33.5889 22.6029 33.5889 23.9339C33.5889 25.2649 34.6482 26.3439 35.9549 26.3439Z" fill="#FEFEFE"/>
<path d="M12.3534 26.2556C13.6601 26.2556 14.7194 25.1766 14.7194 23.8456C14.7194 22.5146 13.6601 21.4356 12.3534 21.4356C11.0467 21.4356 9.9873 22.5146 9.9873 23.8456C9.9873 25.1766 11.0467 26.2556 12.3534 26.2556Z" fill="#FEFEFE"/>
<path d="M24.2143 13.5858C25.521 13.5858 26.5803 12.5068 26.5803 11.1758C26.5803 9.84479 25.521 8.76581 24.2143 8.76581C22.9075 8.76581 21.8481 9.84479 21.8481 11.1758C21.8481 12.5068 22.9075 13.5858 24.2143 13.5858Z" fill="#FEFEFE"/>
<path d="M18.2503 39.6738C19.5571 39.6738 20.6164 38.5948 20.6164 37.2638C20.6164 35.9329 19.5571 34.8539 18.2503 34.8539C16.9436 34.8539 15.8843 35.9329 15.8843 37.2638C15.8843 38.5948 16.9436 39.6738 18.2503 39.6738Z" fill="#FEFEFE"/>
<path d="M24.1331 39.6908C25.4399 39.6908 26.4992 38.6119 26.4992 37.2808C26.4992 35.9498 25.4399 34.8708 24.1331 34.8708C22.8264 34.8708 21.7671 35.9498 21.7671 37.2808C21.7671 38.6119 22.8264 39.6908 24.1331 39.6908Z" fill="#FEFEFE"/>
<path d="M30.0496 39.7193C31.3564 39.7193 32.4157 38.6403 32.4157 37.3093C32.4157 35.9783 31.3564 34.8993 30.0496 34.8993C28.7429 34.8993 27.6836 35.9783 27.6836 37.3093C27.6836 38.6403 28.7429 39.7193 30.0496 39.7193Z" fill="#FEFEFE"/>
<path d="M66.5734 30.9474V32.5874H68.5419V30.9474C68.5419 30.8666 68.5684 30.7992 68.6204 30.7462C68.6723 30.6927 68.7386 30.6663 68.8179 30.6663H69.821C69.9006 30.6663 69.9665 30.6927 70.0188 30.7462C70.0707 30.7992 70.097 30.8666 70.097 30.9474V35.3988C70.097 35.4802 70.0707 35.547 70.0188 35.6003C69.9665 35.6535 69.9006 35.6799 69.821 35.6799H68.8179C68.7386 35.6799 68.6723 35.6535 68.6204 35.6003C68.5684 35.547 68.5419 35.4802 68.5419 35.3988V33.6933H66.5734V35.3988C66.5734 35.4802 66.5474 35.547 66.4949 35.6003C66.4429 35.6535 66.377 35.6799 66.2974 35.6799H65.2945C65.2147 35.6799 65.149 35.6535 65.0965 35.6003C65.0446 35.547 65.0186 35.4802 65.0186 35.3988V30.9474C65.0186 30.8666 65.0446 30.7992 65.0965 30.7462C65.149 30.6927 65.2147 30.6663 65.2945 30.6663H66.2974C66.377 30.6663 66.4429 30.6927 66.4949 30.7462C66.5474 30.7992 66.5734 30.8666 66.5734 30.9474ZM75.8928 33.6558H72.5071C72.5379 34.0308 72.6438 34.3039 72.8248 34.4758C73.0055 34.6477 73.2831 34.7336 73.6572 34.7336C74.0804 34.7336 74.3745 34.63 74.5405 34.4243C74.6692 34.2616 74.8408 34.1805 75.0556 34.1805H75.7274C75.8067 34.1805 75.8729 34.2072 75.9249 34.2601C75.9768 34.3133 76.0034 34.3805 76.0034 34.4619C76.0034 35.3362 75.1846 35.7738 73.5469 35.7738C72.7189 35.7738 72.0747 35.5502 71.6146 35.1035C71.1548 34.6571 70.9247 34.0149 70.9247 33.1778C70.9247 32.3407 71.1563 31.6971 71.6194 31.2476C72.0825 30.7977 72.7248 30.573 73.5469 30.573C74.3745 30.573 75.0187 30.7912 75.4788 31.2288C75.9385 31.6661 76.1688 32.2938 76.1688 33.1123V33.3747C76.1688 33.4561 76.1428 33.5229 76.0905 33.5758C76.0386 33.6293 75.9724 33.6558 75.8928 33.6558ZM74.5863 32.6904C74.5556 31.9722 74.2095 31.6126 73.5469 31.6126C72.8845 31.6126 72.5348 31.9722 72.4982 32.6904H74.5863ZM82.0754 35.6799H76.8129C76.733 35.6799 76.6668 35.6535 76.6149 35.6003C76.5629 35.547 76.5369 35.4802 76.5369 35.3988V34.8554C76.5369 34.774 76.5629 34.7068 76.6149 34.6536C76.6668 34.6007 76.733 34.5742 76.8129 34.5742H77.1624L77.7789 32.0533C78.0057 31.1286 78.7568 30.6663 80.0329 30.6663H82.0754C82.1548 30.6663 82.2209 30.6927 82.2729 30.7462C82.3249 30.7992 82.3508 30.8666 82.3508 30.9474V35.3988C82.3508 35.4802 82.3249 35.547 82.2729 35.6003C82.2209 35.6535 82.1548 35.6799 82.0754 35.6799ZM78.6345 34.5742H80.7963V31.7719H79.9868C79.5513 31.7719 79.2753 31.9973 79.1585 32.4469L78.6345 34.5742ZM86.6108 35.6799H83.7311C83.6512 35.6799 83.5855 35.6535 83.533 35.6003C83.481 35.547 83.4551 35.4802 83.4551 35.3988V30.9474C83.4551 30.8666 83.481 30.7992 83.533 30.7462C83.5855 30.6927 83.6512 30.6663 83.7311 30.6663H86.4175C86.9879 30.6663 87.4511 30.7787 87.8067 31.004C88.1625 31.2288 88.3405 31.5691 88.3405 32.0252C88.3405 32.475 88.1561 32.8153 87.7885 33.0466C88.3097 33.3152 88.5703 33.7246 88.5703 34.2741C88.5703 34.7802 88.4017 35.141 88.0645 35.3567C87.727 35.5721 87.2424 35.6799 86.6108 35.6799ZM86.5004 33.6276H85.0099V34.6585H86.5004C86.6655 34.6585 86.7932 34.6115 86.882 34.5176C86.9711 34.4243 87.0156 34.2991 87.0156 34.1432C87.0156 33.987 86.9711 33.8621 86.882 33.7682C86.7932 33.6746 86.6655 33.6276 86.5004 33.6276ZM85.0099 32.625H86.3253C86.4602 32.625 86.5708 32.5811 86.6569 32.4938C86.7426 32.4062 86.7854 32.2938 86.7854 32.1566C86.7854 32.0192 86.7426 31.9062 86.6569 31.8189C86.5708 31.7315 86.4602 31.688 86.3253 31.688H85.0099V32.625ZM90.8428 33.9554L92.4253 30.9943C92.4742 30.9004 92.5479 30.8228 92.6459 30.7602C92.7443 30.6979 92.839 30.6663 92.9312 30.6663H94.1918C94.2712 30.6663 94.3373 30.6927 94.3893 30.7462C94.4413 30.7992 94.4678 30.8666 94.4678 30.9474V35.3988C94.4678 35.4802 94.4413 35.547 94.3893 35.6003C94.3373 35.6535 94.2712 35.6799 94.1918 35.6799H93.2532C93.1733 35.6799 93.1077 35.6535 93.0552 35.6003C93.0032 35.547 92.9772 35.4802 92.9772 35.3988V32.4002L91.3945 35.3519C91.3456 35.4392 91.2722 35.516 91.1738 35.5815C91.0758 35.6469 90.9808 35.6799 90.8886 35.6799H89.6285C89.5486 35.6799 89.483 35.6535 89.4305 35.6003C89.3785 35.547 89.3525 35.4802 89.3525 35.3988V30.9474C89.3525 30.8666 89.3785 30.7992 89.4305 30.7462C89.483 30.6927 89.5486 30.6663 89.6285 30.6663H90.5668C90.6464 30.6663 90.7126 30.6927 90.7646 30.7462C90.8165 30.7992 90.8428 30.8666 90.8428 30.9474V33.9554ZM99.5272 35.6799H98.5247C98.4448 35.6799 98.3791 35.6535 98.3269 35.6003C98.2747 35.547 98.2487 35.4802 98.2487 35.3988V33.6933C97.8624 33.6933 97.5679 33.8965 97.3654 34.3025L96.8869 35.2488C96.74 35.5359 96.5101 35.6799 96.1972 35.6799H95.3508C95.2343 35.6799 95.162 35.6392 95.1346 35.5581C95.1066 35.4768 95.1268 35.3738 95.1944 35.2488L95.8656 33.993C96.105 33.5369 96.424 33.2623 96.8227 33.1684C96.5958 33.1124 96.3997 33.0091 96.2338 32.8591C96.0682 32.7095 95.9455 32.5376 95.8656 32.3439L95.3785 31.0973C95.2617 30.8102 95.3136 30.6663 95.5346 30.6663H96.381C96.5282 30.6663 96.6601 30.7053 96.7765 30.7838C96.8933 30.8615 96.9757 30.9665 97.0252 31.0973L97.3654 32.0346C97.519 32.4468 97.8132 32.6528 98.2487 32.6528V30.9474C98.2487 30.8666 98.2747 30.7992 98.3269 30.7462C98.3791 30.6927 98.4448 30.6663 98.5247 30.6663H99.5272C99.6071 30.6663 99.673 30.6927 99.7253 30.7462C99.7772 30.7992 99.8035 30.8666 99.8035 30.9474V32.6528C100.239 32.6528 100.533 32.4468 100.687 32.0346L101.027 31.0973C101.076 30.9665 101.159 30.8615 101.276 30.7838C101.392 30.7053 101.524 30.6663 101.671 30.6663H102.518C102.738 30.6663 102.79 30.8102 102.674 31.0973L102.186 32.3439C102.107 32.5376 101.984 32.7095 101.818 32.8591C101.653 33.0091 101.457 33.1124 101.23 33.1684C101.628 33.2623 101.947 33.5369 102.186 33.993L102.858 35.2488C102.926 35.3738 102.945 35.4768 102.918 35.5581C102.89 35.6392 102.818 35.6799 102.702 35.6799H101.855C101.542 35.6799 101.313 35.5359 101.165 35.2488L100.687 34.3025C100.484 33.8965 100.19 33.6933 99.8035 33.6933V35.3988C99.8035 35.4802 99.7772 35.547 99.7253 35.6003C99.673 35.6535 99.6071 35.6799 99.5272 35.6799ZM105.075 33.9554L106.657 30.9943C106.706 30.9004 106.78 30.8228 106.878 30.7602C106.976 30.6979 107.071 30.6663 107.163 30.6663H108.424C108.503 30.6663 108.57 30.6927 108.621 30.7462C108.674 30.7992 108.7 30.8666 108.7 30.9474V35.3988C108.7 35.4802 108.674 35.547 108.621 35.6003C108.57 35.6535 108.503 35.6799 108.424 35.6799H107.485C107.405 35.6799 107.34 35.6535 107.287 35.6003C107.235 35.547 107.209 35.4802 107.209 35.3988V32.4002L105.627 35.3519C105.578 35.4392 105.504 35.516 105.406 35.5815C105.308 35.6469 105.213 35.6799 105.121 35.6799H103.861C103.781 35.6799 103.715 35.6535 103.663 35.6003C103.611 35.547 103.585 35.4802 103.585 35.3988V30.9474C103.585 30.8666 103.611 30.7992 103.663 30.7462C103.715 30.6927 103.781 30.6663 103.861 30.6663H104.799C104.879 30.6663 104.945 30.6927 104.997 30.7462C105.049 30.7992 105.075 30.8666 105.075 30.9474V33.9554ZM113.346 35.6799H112.904C112.714 35.6799 112.573 35.5735 112.481 35.3613L111.331 32.5405V35.3988C111.331 35.4802 111.305 35.547 111.253 35.6003C111.201 35.6535 111.134 35.6799 111.055 35.6799H110.08C110 35.6799 109.934 35.6535 109.882 35.6003C109.83 35.547 109.804 35.4802 109.804 35.3988V30.9474C109.804 30.8666 109.83 30.7992 109.882 30.7462C109.934 30.6927 110 30.6663 110.08 30.6663H111.625C111.803 30.6663 111.938 30.7787 112.03 31.004L113.125 33.7306L114.22 31.004C114.312 30.7787 114.447 30.6663 114.625 30.6663H116.17C116.25 30.6663 116.316 30.6927 116.368 30.7462C116.42 30.7992 116.446 30.8666 116.446 30.9474V35.3988C116.446 35.4802 116.42 35.547 116.368 35.6003C116.316 35.6535 116.25 35.6799 116.17 35.6799H115.195C115.115 35.6799 115.049 35.6535 114.997 35.6003C114.945 35.547 114.919 35.4802 114.919 35.3988V32.5405L113.769 35.3613C113.677 35.5735 113.536 35.6799 113.346 35.6799ZM119.109 34.3586C119.296 34.6087 119.589 34.7336 119.988 34.7336C120.386 34.7336 120.68 34.6087 120.867 34.3586C121.054 34.1088 121.147 33.7121 121.147 33.1684C121.147 32.625 121.054 32.23 120.867 31.9831C120.68 31.7361 120.386 31.6126 119.988 31.6126C119.589 31.6126 119.296 31.7361 119.109 31.9831C118.922 32.23 118.829 32.625 118.829 33.1684C118.829 33.7121 118.922 34.1088 119.109 34.3586ZM117.973 31.2288C118.439 30.7912 119.111 30.573 119.988 30.573C120.865 30.573 121.537 30.7912 122.003 31.2288C122.469 31.6661 122.702 32.3126 122.702 33.1684C122.702 34.0243 122.469 34.6724 122.003 35.1131C121.537 35.5536 120.865 35.7738 119.988 35.7738C119.111 35.7738 118.439 35.5536 117.973 35.1131C117.507 34.6724 117.274 34.0243 117.274 33.1684C117.274 32.3126 117.507 31.6661 117.973 31.2288ZM126.033 31.6786C125.603 31.6786 125.3 31.7956 125.122 32.0297C124.944 32.2645 124.855 32.6469 124.855 33.1778C124.855 33.7027 124.947 34.0823 125.131 34.3165C125.315 34.5506 125.631 34.6676 126.078 34.6676C126.545 34.6676 126.867 34.5242 127.045 34.2365C127.186 34.0117 127.357 33.8994 127.56 33.8994H128.231C128.311 33.8994 128.377 33.9258 128.429 33.979C128.481 34.0322 128.507 34.0994 128.507 34.1805C128.507 34.7054 128.285 35.102 127.84 35.3706C127.396 35.6392 126.772 35.7738 125.968 35.7738C125.091 35.7738 124.42 35.5536 123.953 35.1131C123.487 34.6724 123.254 34.0274 123.254 33.1778C123.254 32.3219 123.486 31.6738 123.949 31.2333C124.412 30.7932 125.07 30.573 125.922 30.573C126.726 30.573 127.35 30.7072 127.795 30.9756C128.239 31.2441 128.461 31.6411 128.461 32.1657C128.461 32.2468 128.435 32.3143 128.383 32.3672C128.331 32.4204 128.265 32.4469 128.185 32.4469H127.514C127.312 32.4469 127.14 32.3345 126.999 32.1097C126.821 31.822 126.499 31.6786 126.033 31.6786ZM129.059 30.6663H133.484C133.564 30.6663 133.63 30.6927 133.682 30.7462C133.734 30.7992 133.76 30.8666 133.76 30.9474V31.4909C133.76 31.5722 133.734 31.6397 133.682 31.6926C133.63 31.7455 133.564 31.7719 133.484 31.7719H132.049V35.3988C132.049 35.4802 132.023 35.547 131.971 35.6003C131.919 35.6535 131.853 35.6799 131.773 35.6799H130.771C130.691 35.6799 130.625 35.6535 130.573 35.6003C130.521 35.547 130.495 35.4802 130.495 35.3988V31.7719H129.059C128.98 31.7719 128.913 31.7455 128.861 31.6926C128.809 31.6397 128.783 31.5722 128.783 31.4909V30.9474C128.783 30.8666 128.809 30.7992 128.861 30.7462C128.913 30.6927 128.98 30.6663 129.059 30.6663ZM135.959 32.3248H137.321C137.959 32.3248 138.453 32.4531 138.802 32.7095C139.152 32.9655 139.327 33.3966 139.327 34.0024C139.327 34.6087 139.152 35.0394 138.802 35.2958C138.453 35.5519 137.959 35.6799 137.321 35.6799H134.681C134.601 35.6799 134.535 35.6535 134.483 35.6003C134.431 35.547 134.405 35.4802 134.405 35.3988V30.9474C134.405 30.8666 134.431 30.7992 134.483 30.7462C134.535 30.6927 134.601 30.6663 134.681 30.6663H135.683C135.763 30.6663 135.829 30.6927 135.881 30.7462C135.933 30.7992 135.959 30.8666 135.959 30.9474V32.3248ZM137.183 33.365H135.959V34.6397H137.183C137.367 34.6397 137.511 34.5851 137.615 34.4758C137.72 34.3665 137.772 34.2086 137.772 34.0024C137.772 33.7961 137.72 33.6387 137.615 33.5295C137.511 33.4199 137.367 33.365 137.183 33.365Z" fill="#FEFEFE"/>
<path d="M69.8223 26.856H68.917C68.7533 26.856 68.5979 26.7988 68.4516 26.6844C68.3049 26.5706 68.2016 26.4343 68.141 26.2761L65.9168 19.9537V26.2368C65.9168 26.4124 65.8587 26.5595 65.7423 26.6781C65.6258 26.7965 65.4858 26.856 65.3219 26.856H64.1841C64.0201 26.856 63.8801 26.7965 63.7639 26.6781C63.6472 26.5595 63.5894 26.4124 63.5894 26.2368V18.2548C63.5894 18.0793 63.645 17.9319 63.7573 17.8135C63.8693 17.6946 64.0073 17.6357 64.171 17.6357H66.7445C66.9082 17.6357 67.0636 17.6946 67.2099 17.8135C67.3569 17.9319 67.456 18.0747 67.5077 18.2415L69.3695 23.7342L71.2319 18.2415C71.2835 18.0747 71.3827 17.9319 71.5291 17.8135C71.676 17.6946 71.8313 17.6357 71.9947 17.6357H74.568C74.732 17.6357 74.8703 17.6946 74.982 17.8135C75.094 17.9319 75.1502 18.0793 75.1502 18.2548V26.2368C75.1502 26.4124 75.0918 26.5595 74.9756 26.6781C74.8594 26.7965 74.7194 26.856 74.5555 26.856H73.4171C73.2537 26.856 73.1132 26.7965 72.997 26.6781C72.8808 26.5595 72.8225 26.4124 72.8225 26.2368V19.9537L70.598 26.2761C70.538 26.4343 70.4344 26.5706 70.288 26.6844C70.1413 26.7988 69.986 26.856 69.8223 26.856ZM84.6101 17.6357C84.7737 17.6357 84.914 17.6946 85.0305 17.8135C85.147 17.9319 85.2051 18.0747 85.2051 18.2415V18.8475C85.2051 19.0142 85.147 19.1568 85.0305 19.2754C84.914 19.394 84.7737 19.4532 84.6101 19.4532H79.114V21.3237H83.8472C84.0109 21.3237 84.1511 21.3832 84.2676 21.5015C84.3838 21.6199 84.4422 21.763 84.4422 21.9294V22.5357C84.4422 22.7025 84.3838 22.845 84.2676 22.9637C84.1511 23.082 84.0109 23.1415 83.8472 23.1415H79.114V25.0381H84.5975C84.7609 25.0381 84.8992 25.0951 85.0109 25.2094C85.1232 25.3238 85.1791 25.4641 85.1791 25.6311V26.2499C85.1791 26.4169 85.121 26.5595 85.0045 26.6781C84.8883 26.7965 84.7483 26.856 84.5844 26.856H77.3296C77.1656 26.856 77.0257 26.7965 76.9095 26.6781C76.7927 26.5595 76.7349 26.4124 76.7349 26.2368V18.2284C76.7349 18.0613 76.7927 17.9211 76.9095 17.8067C77.0257 17.6929 77.1656 17.6357 77.3296 17.6357H84.6101ZM86.8216 26.2633V18.2415C86.8216 18.0659 86.8775 17.9211 86.9895 17.8067C87.1018 17.6929 87.244 17.6357 87.4163 17.6357H93.5202C93.6929 17.6357 93.835 17.6929 93.9468 17.8067C94.0591 17.9211 94.1152 18.0659 94.1152 18.2415V18.8475C94.1152 19.023 94.0591 19.1679 93.9468 19.2822C93.835 19.3963 93.6929 19.4532 93.5202 19.4532H89.2008V26.2633C89.2008 26.43 89.1429 26.5706 89.0265 26.6844C88.91 26.7988 88.7698 26.856 88.6061 26.856H87.4163C87.2526 26.856 87.1124 26.7988 86.9962 26.6844C86.8797 26.5706 86.8216 26.43 86.8216 26.2633ZM93.4942 26.2633L95.0848 20.1381C95.5161 18.4696 96.9125 17.6357 99.2747 17.6357H102.676C102.831 17.6357 102.961 17.6946 103.064 17.8135C103.167 17.9319 103.219 18.0702 103.219 18.2284V26.2633C103.219 26.43 103.161 26.5706 103.044 26.6844C102.928 26.7988 102.788 26.856 102.624 26.856H101.434C101.262 26.856 101.12 26.7988 101.008 26.6844C100.896 26.5706 100.84 26.4255 100.84 26.2499V24.6298H96.3519L95.9256 26.2499C95.8823 26.4255 95.7876 26.5706 95.641 26.6844C95.4946 26.7988 95.3393 26.856 95.1753 26.856H93.9339C93.7699 26.856 93.6451 26.7988 93.5591 26.6844C93.4727 26.5706 93.4512 26.43 93.4942 26.2633ZM97.3737 20.7444L96.8178 22.8123H100.84V19.4532H99.0422C98.6369 19.4532 98.2835 19.5696 97.9816 19.8023C97.6799 20.0351 97.4773 20.3489 97.3737 20.7444ZM105.663 25.0381L106.84 20.1645C107.245 18.4784 108.611 17.6357 110.939 17.6357H114.353C114.517 17.6357 114.657 17.6929 114.774 17.8067C114.89 17.9211 114.948 18.0613 114.948 18.2284V26.2633C114.948 26.43 114.89 26.5706 114.774 26.6844C114.657 26.7988 114.517 26.856 114.353 26.856H105.172C105.008 26.856 104.868 26.7965 104.751 26.6781C104.635 26.5595 104.577 26.4169 104.577 26.2499V25.6311C104.577 25.4641 104.635 25.3238 104.751 25.2094C104.868 25.0951 105.008 25.0381 105.172 25.0381H105.663ZM109.155 20.7176L108.094 25.0381H112.569V19.4532H110.681C110.284 19.4532 109.954 19.5651 109.692 19.7893C109.428 20.0132 109.25 20.3227 109.155 20.7176ZM123.386 19.9474C122.96 19.4336 122.272 19.1767 121.323 19.1767C120.375 19.1767 119.688 19.4336 119.261 19.9474C118.834 20.4607 118.621 21.2272 118.621 22.2458C118.621 23.2644 118.834 24.0304 119.261 24.5442C119.688 25.0581 120.375 25.3147 121.323 25.3147C122.272 25.3147 122.96 25.0581 123.386 24.5442C123.813 24.0304 124.026 23.2644 124.026 22.2458C124.026 21.2272 123.813 20.4607 123.386 19.9474ZM117.534 25.9008C116.673 25.1326 116.241 23.9143 116.241 22.2458C116.241 20.5774 116.673 19.3591 117.534 18.5903C118.397 17.8223 119.66 17.4382 121.323 17.4382C122.987 17.4382 124.251 17.8223 125.113 18.5903C125.975 19.3591 126.406 20.5774 126.406 22.2458C126.406 23.9143 125.975 25.1326 125.113 25.9008C124.251 26.6693 122.987 27.0534 121.323 27.0534C119.66 27.0534 118.397 26.6693 117.534 25.9008ZM133.932 26.856H133.027C132.863 26.856 132.708 26.7988 132.561 26.6844C132.415 26.5706 132.311 26.4343 132.251 26.2761L130.026 19.9537V26.2368C130.026 26.4124 129.968 26.5595 129.852 26.6781C129.736 26.7965 129.595 26.856 129.432 26.856H128.294C128.13 26.856 127.99 26.7965 127.874 26.6781C127.757 26.5595 127.699 26.4124 127.699 26.2368V18.2548C127.699 18.0793 127.755 17.9319 127.867 17.8135C127.979 17.6946 128.117 17.6357 128.281 17.6357H130.854C131.018 17.6357 131.173 17.6946 131.32 17.8135C131.466 17.9319 131.566 18.0747 131.617 18.2415L133.479 23.7342L135.341 18.2415C135.393 18.0747 135.492 17.9319 135.639 17.8135C135.786 17.6946 135.941 17.6357 136.104 17.6357H138.678C138.842 17.6357 138.98 17.6946 139.092 17.8135C139.204 17.9319 139.26 18.0793 139.26 18.2548V26.2368C139.26 26.4124 139.202 26.5595 139.085 26.6781C138.969 26.7965 138.829 26.856 138.665 26.856H137.527C137.363 26.856 137.223 26.7965 137.107 26.6781C136.99 26.5595 136.932 26.4124 136.932 26.2368V19.9537L134.708 26.2761C134.648 26.4343 134.544 26.5706 134.398 26.6844C134.251 26.7988 134.096 26.856 133.932 26.856Z" fill="#FEFEFE"/>
<defs>
<radialGradient id="paint0_radial" cx="0" cy="0" r="1" gradientUnits="userSpaceOnUse" gradientTransform="translate(24.3482 25.2) scale(110.371 112.419)">
<stop stop-color="#FF8178"/>
<stop offset="1" stop-color="#FF4336"/>
</radialGradient>
</defs>
</svg>
