<svg width="60" height="59" viewBox="0 0 60 59" fill="none" xmlns="http://www.w3.org/2000/svg">
<path d="M22.5 5.1626C13.4355 5.1626 6 11.7338 6 19.9126C6 24.1676 8.06836 27.956 11.2734 30.638C10.7871 31.7385 10.1895 32.5336 9.62402 33.1501C9.30469 33.4987 9 33.8041 8.74219 34.144C8.48438 34.4811 8.25 34.8959 8.25 35.4001V36.1376H9C11.5664 36.1376 14.3701 34.9075 16.6699 33.6802C18.1436 34.1786 19.7109 34.5013 21.3486 34.6107C21.123 35.5816 21 36.5841 21 37.6126C21 45.7914 28.4355 52.3626 37.5 52.3626C39.5596 52.3626 41.5137 51.9938 43.3301 51.3802C45.6299 52.6075 48.4336 53.8376 51 53.8376H51.75V53.1001C51.75 52.5959 51.5156 52.1811 51.2578 51.844C51 51.5041 50.6953 51.1987 50.376 50.8501C49.8105 50.2336 49.2129 49.4385 48.7266 48.338C51.9316 45.656 54 41.8676 54 37.6126C54 29.7824 47.1855 23.4244 38.6484 22.8972C38.8711 21.935 39 20.9382 39 19.9126C39 11.7338 31.5645 5.1626 22.5 5.1626ZM22.5 6.6376C30.832 6.6376 37.5 12.6154 37.5 19.9126C37.5 27.2098 30.832 33.1876 22.5 33.1876C20.502 33.1876 18.6035 32.8333 16.8604 32.2081L16.5352 32.0929L16.2393 32.2542C14.4785 33.2106 12.4248 33.977 10.5586 34.3371C10.6289 34.2593 10.6611 34.2189 10.7373 34.1354C11.417 33.395 12.2959 32.3435 12.8906 30.736L13.0752 30.2347L12.6475 29.9063C9.4834 27.4604 7.5 23.8968 7.5 19.9126C7.5 12.6154 14.168 6.6376 22.5 6.6376ZM38.2148 24.3635C40.1191 24.4442 41.9326 24.8273 43.582 25.4755C43.5293 25.5792 43.5 25.6945 43.5 25.8126C43.5 26.2188 43.8369 26.5501 44.25 26.5501C44.5576 26.5501 44.833 26.3657 44.9443 26.0892C47.5225 27.3942 49.6025 29.3589 50.9268 31.7155C50.543 31.7529 50.25 32.0698 50.25 32.4501C50.25 32.8563 50.5869 33.1876 51 33.1876C51.2021 33.1876 51.3955 33.1069 51.5391 32.9658C52.1514 34.4148 52.5 35.9763 52.5 37.6126C52.5 41.5968 50.5166 45.1604 47.3525 47.6063L46.9248 47.9347L47.1094 48.436C47.7041 50.0435 48.583 51.095 49.2627 51.8354C49.3389 51.9189 49.3711 51.9593 49.4414 52.0371C47.5752 51.677 45.5215 50.9106 43.7607 49.9542L43.4648 49.7929L43.1396 49.9081C43.0107 49.9542 42.873 49.9888 42.7383 50.032C42.6797 49.6748 42.3662 49.4126 42 49.4126C41.5869 49.4126 41.25 49.7439 41.25 50.1501C41.25 50.248 41.2705 50.346 41.3086 50.4353C40.0898 50.7205 38.8213 50.8876 37.5 50.8876C37.9131 50.8876 38.25 50.5563 38.25 50.1501C38.25 49.7439 37.9131 49.4126 37.5 49.4126C37.0869 49.4126 36.75 49.7439 36.75 50.1501C36.75 50.5333 37.0459 50.8501 37.4326 50.8847C36.1377 50.879 34.8867 50.7176 33.6885 50.4382C33.7295 50.3489 33.75 50.2509 33.75 50.1501C33.75 49.7439 33.4131 49.4126 33 49.4126C32.6279 49.4126 32.3145 49.6805 32.2588 50.0406C26.543 48.1537 22.5 43.2908 22.5 37.6126C22.5 36.5928 22.6377 35.6046 22.8838 34.654C23.792 34.6338 24.6826 34.5502 25.5469 34.4062C25.5176 34.4869 25.5 34.5733 25.5 34.6626C25.5 35.0688 25.8369 35.4001 26.25 35.4001C26.6631 35.4001 27 35.0688 27 34.6626C27 34.4725 26.9238 34.291 26.792 34.1556C29.8037 33.4238 32.4814 31.9431 34.5586 29.9553C34.5205 30.0446 34.5 30.1396 34.5 30.2376C34.5 30.6438 34.8369 30.9751 35.25 30.9751C35.6631 30.9751 36 30.6438 36 30.2376C36 29.8314 35.6631 29.5001 35.25 29.5001C35.1504 29.5001 35.0537 29.5203 34.9629 29.5577C36.4131 28.0625 37.5234 26.2995 38.2148 24.3635ZM39.75 25.0751C39.3369 25.0751 39 25.4064 39 25.8126C39 26.2188 39.3369 26.5501 39.75 26.5501C40.1631 26.5501 40.5 26.2188 40.5 25.8126C40.5 25.4064 40.1631 25.0751 39.75 25.0751ZM37.5 27.2876C37.0869 27.2876 36.75 27.6189 36.75 28.0251C36.75 28.4313 37.0869 28.7626 37.5 28.7626C37.9131 28.7626 38.25 28.4313 38.25 28.0251C38.25 27.6189 37.9131 27.2876 37.5 27.2876ZM42 27.2876C41.5869 27.2876 41.25 27.6189 41.25 28.0251C41.25 28.4313 41.5869 28.7626 42 28.7626C42.4131 28.7626 42.75 28.4313 42.75 28.0251C42.75 27.6189 42.4131 27.2876 42 27.2876ZM46.5 27.2876C46.0869 27.2876 45.75 27.6189 45.75 28.0251C45.75 28.4313 46.0869 28.7626 46.5 28.7626C46.9131 28.7626 47.25 28.4313 47.25 28.0251C47.25 27.6189 46.9131 27.2876 46.5 27.2876ZM39.75 29.5001C39.3369 29.5001 39 29.8314 39 30.2376C39 30.6438 39.3369 30.9751 39.75 30.9751C40.1631 30.9751 40.5 30.6438 40.5 30.2376C40.5 29.8314 40.1631 29.5001 39.75 29.5001ZM44.25 29.5001C43.8369 29.5001 43.5 29.8314 43.5 30.2376C43.5 30.6438 43.8369 30.9751 44.25 30.9751C44.6631 30.9751 45 30.6438 45 30.2376C45 29.8314 44.6631 29.5001 44.25 29.5001ZM48.75 29.5001C48.3369 29.5001 48 29.8314 48 30.2376C48 30.6438 48.3369 30.9751 48.75 30.9751C49.1631 30.9751 49.5 30.6438 49.5 30.2376C49.5 29.8314 49.1631 29.5001 48.75 29.5001ZM33 31.7126C32.5869 31.7126 32.25 32.0439 32.25 32.4501C32.25 32.8563 32.5869 33.1876 33 33.1876C33.4131 33.1876 33.75 32.8563 33.75 32.4501C33.75 32.0439 33.4131 31.7126 33 31.7126ZM37.5 31.7126C37.0869 31.7126 36.75 32.0439 36.75 32.4501C36.75 32.8563 37.0869 33.1876 37.5 33.1876C37.9131 33.1876 38.25 32.8563 38.25 32.4501C38.25 32.0439 37.9131 31.7126 37.5 31.7126ZM42 31.7126C41.5869 31.7126 41.25 32.0439 41.25 32.4501C41.25 32.8563 41.5869 33.1876 42 33.1876C42.4131 33.1876 42.75 32.8563 42.75 32.4501C42.75 32.0439 42.4131 31.7126 42 31.7126ZM46.5 31.7126C46.0869 31.7126 45.75 32.0439 45.75 32.4501C45.75 32.8563 46.0869 33.1876 46.5 33.1876C46.9131 33.1876 47.25 32.8563 47.25 32.4501C47.25 32.0439 46.9131 31.7126 46.5 31.7126ZM30.75 33.9251C30.3369 33.9251 30 34.2564 30 34.6626C30 35.0688 30.3369 35.4001 30.75 35.4001C31.1631 35.4001 31.5 35.0688 31.5 34.6626C31.5 34.2564 31.1631 33.9251 30.75 33.9251ZM35.25 33.9251C34.8369 33.9251 34.5 34.2564 34.5 34.6626C34.5 35.0688 34.8369 35.4001 35.25 35.4001C35.6631 35.4001 36 35.0688 36 34.6626C36 34.2564 35.6631 33.9251 35.25 33.9251ZM39.75 33.9251C39.3369 33.9251 39 34.2564 39 34.6626C39 35.0688 39.3369 35.4001 39.75 35.4001C40.1631 35.4001 40.5 35.0688 40.5 34.6626C40.5 34.2564 40.1631 33.9251 39.75 33.9251ZM44.25 33.9251C43.8369 33.9251 43.5 34.2564 43.5 34.6626C43.5 35.0688 43.8369 35.4001 44.25 35.4001C44.6631 35.4001 45 35.0688 45 34.6626C45 34.2564 44.6631 33.9251 44.25 33.9251ZM48.75 33.9251C48.3369 33.9251 48 34.2564 48 34.6626C48 35.0688 48.3369 35.4001 48.75 35.4001C49.1631 35.4001 49.5 35.0688 49.5 34.6626C49.5 34.2564 49.1631 33.9251 48.75 33.9251ZM24 36.1376C23.5869 36.1376 23.25 36.4689 23.25 36.8751C23.25 37.2813 23.5869 37.6126 24 37.6126C24.4131 37.6126 24.75 37.2813 24.75 36.8751C24.75 36.4689 24.4131 36.1376 24 36.1376ZM28.5 36.1376C28.0869 36.1376 27.75 36.4689 27.75 36.8751C27.75 37.2813 28.0869 37.6126 28.5 37.6126C28.9131 37.6126 29.25 37.2813 29.25 36.8751C29.25 36.4689 28.9131 36.1376 28.5 36.1376ZM33 36.1376C32.5869 36.1376 32.25 36.4689 32.25 36.8751C32.25 37.2813 32.5869 37.6126 33 37.6126C33.4131 37.6126 33.75 37.2813 33.75 36.8751C33.75 36.4689 33.4131 36.1376 33 36.1376ZM37.5 36.1376C37.0869 36.1376 36.75 36.4689 36.75 36.8751C36.75 37.2813 37.0869 37.6126 37.5 37.6126C37.9131 37.6126 38.25 37.2813 38.25 36.8751C38.25 36.4689 37.9131 36.1376 37.5 36.1376ZM42 36.1376C41.5869 36.1376 41.25 36.4689 41.25 36.8751C41.25 37.2813 41.5869 37.6126 42 37.6126C42.4131 37.6126 42.75 37.2813 42.75 36.8751C42.75 36.4689 42.4131 36.1376 42 36.1376ZM46.5 36.1376C46.0869 36.1376 45.75 36.4689 45.75 36.8751C45.75 37.2813 46.0869 37.6126 46.5 37.6126C46.9131 37.6126 47.25 37.2813 47.25 36.8751C47.25 36.4689 46.9131 36.1376 46.5 36.1376ZM51 36.1376C50.5869 36.1376 50.25 36.4689 50.25 36.8751C50.25 37.2813 50.5869 37.6126 51 37.6126C51.4131 37.6126 51.75 37.2813 51.75 36.8751C51.75 36.4689 51.4131 36.1376 51 36.1376ZM26.25 38.3501C25.8369 38.3501 25.5 38.6814 25.5 39.0876C25.5 39.4938 25.8369 39.8251 26.25 39.8251C26.6631 39.8251 27 39.4938 27 39.0876C27 38.6814 26.6631 38.3501 26.25 38.3501ZM30.75 38.3501C30.3369 38.3501 30 38.6814 30 39.0876C30 39.4938 30.3369 39.8251 30.75 39.8251C31.1631 39.8251 31.5 39.4938 31.5 39.0876C31.5 38.6814 31.1631 38.3501 30.75 38.3501ZM35.25 38.3501C34.8369 38.3501 34.5 38.6814 34.5 39.0876C34.5 39.4938 34.8369 39.8251 35.25 39.8251C35.6631 39.8251 36 39.4938 36 39.0876C36 38.6814 35.6631 38.3501 35.25 38.3501ZM39.75 38.3501C39.3369 38.3501 39 38.6814 39 39.0876C39 39.4938 39.3369 39.8251 39.75 39.8251C40.1631 39.8251 40.5 39.4938 40.5 39.0876C40.5 38.6814 40.1631 38.3501 39.75 38.3501ZM44.25 38.3501C43.8369 38.3501 43.5 38.6814 43.5 39.0876C43.5 39.4938 43.8369 39.8251 44.25 39.8251C44.6631 39.8251 45 39.4938 45 39.0876C45 38.6814 44.6631 38.3501 44.25 38.3501ZM48.75 38.3501C48.3369 38.3501 48 38.6814 48 39.0876C48 39.4938 48.3369 39.8251 48.75 39.8251C49.1631 39.8251 49.5 39.4938 49.5 39.0876C49.5 38.6814 49.1631 38.3501 48.75 38.3501ZM24 40.5626C23.5869 40.5626 23.25 40.8939 23.25 41.3001C23.25 41.7063 23.5869 42.0376 24 42.0376C24.4131 42.0376 24.75 41.7063 24.75 41.3001C24.75 40.8939 24.4131 40.5626 24 40.5626ZM28.5 40.5626C28.0869 40.5626 27.75 40.8939 27.75 41.3001C27.75 41.7063 28.0869 42.0376 28.5 42.0376C28.9131 42.0376 29.25 41.7063 29.25 41.3001C29.25 40.8939 28.9131 40.5626 28.5 40.5626ZM33 40.5626C32.5869 40.5626 32.25 40.8939 32.25 41.3001C32.25 41.7063 32.5869 42.0376 33 42.0376C33.4131 42.0376 33.75 41.7063 33.75 41.3001C33.75 40.8939 33.4131 40.5626 33 40.5626ZM37.5 40.5626C37.0869 40.5626 36.75 40.8939 36.75 41.3001C36.75 41.7063 37.0869 42.0376 37.5 42.0376C37.9131 42.0376 38.25 41.7063 38.25 41.3001C38.25 40.8939 37.9131 40.5626 37.5 40.5626ZM42 40.5626C41.5869 40.5626 41.25 40.8939 41.25 41.3001C41.25 41.7063 41.5869 42.0376 42 42.0376C42.4131 42.0376 42.75 41.7063 42.75 41.3001C42.75 40.8939 42.4131 40.5626 42 40.5626ZM46.5 40.5626C46.0869 40.5626 45.75 40.8939 45.75 41.3001C45.75 41.7063 46.0869 42.0376 46.5 42.0376C46.9131 42.0376 47.25 41.7063 47.25 41.3001C47.25 40.8939 46.9131 40.5626 46.5 40.5626ZM51 40.5626C50.5869 40.5626 50.25 40.8939 50.25 41.3001C50.25 41.7063 50.5869 42.0376 51 42.0376C51.4131 42.0376 51.75 41.7063 51.75 41.3001C51.75 40.8939 51.4131 40.5626 51 40.5626ZM26.25 42.7751C25.8369 42.7751 25.5 43.1064 25.5 43.5126C25.5 43.9188 25.8369 44.2501 26.25 44.2501C26.6631 44.2501 27 43.9188 27 43.5126C27 43.1064 26.6631 42.7751 26.25 42.7751ZM30.75 42.7751C30.3369 42.7751 30 43.1064 30 43.5126C30 43.9188 30.3369 44.2501 30.75 44.2501C31.1631 44.2501 31.5 43.9188 31.5 43.5126C31.5 43.1064 31.1631 42.7751 30.75 42.7751ZM35.25 42.7751C34.8369 42.7751 34.5 43.1064 34.5 43.5126C34.5 43.9188 34.8369 44.2501 35.25 44.2501C35.6631 44.2501 36 43.9188 36 43.5126C36 43.1064 35.6631 42.7751 35.25 42.7751ZM39.75 42.7751C39.3369 42.7751 39 43.1064 39 43.5126C39 43.9188 39.3369 44.2501 39.75 44.2501C40.1631 44.2501 40.5 43.9188 40.5 43.5126C40.5 43.1064 40.1631 42.7751 39.75 42.7751ZM44.25 42.7751C43.8369 42.7751 43.5 43.1064 43.5 43.5126C43.5 43.9188 43.8369 44.2501 44.25 44.2501C44.6631 44.2501 45 43.9188 45 43.5126C45 43.1064 44.6631 42.7751 44.25 42.7751ZM48.75 42.7751C48.3369 42.7751 48 43.1064 48 43.5126C48 43.9188 48.3369 44.2501 48.75 44.2501C49.1631 44.2501 49.5 43.9188 49.5 43.5126C49.5 43.1064 49.1631 42.7751 48.75 42.7751ZM28.5 44.9876C28.0869 44.9876 27.75 45.3189 27.75 45.7251C27.75 46.1313 28.0869 46.4626 28.5 46.4626C28.9131 46.4626 29.25 46.1313 29.25 45.7251C29.25 45.3189 28.9131 44.9876 28.5 44.9876ZM33 44.9876C32.5869 44.9876 32.25 45.3189 32.25 45.7251C32.25 46.1313 32.5869 46.4626 33 46.4626C33.4131 46.4626 33.75 46.1313 33.75 45.7251C33.75 45.3189 33.4131 44.9876 33 44.9876ZM37.5 44.9876C37.0869 44.9876 36.75 45.3189 36.75 45.7251C36.75 46.1313 37.0869 46.4626 37.5 46.4626C37.9131 46.4626 38.25 46.1313 38.25 45.7251C38.25 45.3189 37.9131 44.9876 37.5 44.9876ZM42 44.9876C41.5869 44.9876 41.25 45.3189 41.25 45.7251C41.25 46.1313 41.5869 46.4626 42 46.4626C42.4131 46.4626 42.75 46.1313 42.75 45.7251C42.75 45.3189 42.4131 44.9876 42 44.9876ZM46.5 44.9876C46.0869 44.9876 45.75 45.3189 45.75 45.7251C45.75 46.1313 46.0869 46.4626 46.5 46.4626C46.9131 46.4626 47.25 46.1313 47.25 45.7251C47.25 45.3189 46.9131 44.9876 46.5 44.9876ZM30.75 47.2001C30.3369 47.2001 30 47.5314 30 47.9376C30 48.3438 30.3369 48.6751 30.75 48.6751C31.1631 48.6751 31.5 48.3438 31.5 47.9376C31.5 47.5314 31.1631 47.2001 30.75 47.2001ZM35.25 47.2001C34.8369 47.2001 34.5 47.5314 34.5 47.9376C34.5 48.3438 34.8369 48.6751 35.25 48.6751C35.6631 48.6751 36 48.3438 36 47.9376C36 47.5314 35.6631 47.2001 35.25 47.2001ZM39.75 47.2001C39.3369 47.2001 39 47.5314 39 47.9376C39 48.3438 39.3369 48.6751 39.75 48.6751C40.1631 48.6751 40.5 48.3438 40.5 47.9376C40.5 47.5314 40.1631 47.2001 39.75 47.2001ZM44.25 47.2001C43.8369 47.2001 43.5 47.5314 43.5 47.9376C43.5 48.3438 43.8369 48.6751 44.25 48.6751C44.6631 48.6751 45 48.3438 45 47.9376C45 47.5314 44.6631 47.2001 44.25 47.2001ZM46.5 49.4126C46.0869 49.4126 45.75 49.7439 45.75 50.1501C45.75 50.5563 46.0869 50.8876 46.5 50.8876C46.9131 50.8876 47.25 50.5563 47.25 50.1501C47.25 49.7439 46.9131 49.4126 46.5 49.4126Z" fill="white"/>
<path d="M39.75 25.0751C39.3369 25.0751 39 25.4064 39 25.8126C39 26.2188 39.3369 26.5501 39.75 26.5501C40.1631 26.5501 40.5 26.2188 40.5 25.8126C40.5 25.4064 40.1631 25.0751 39.75 25.0751ZM37.5 27.2876C37.0869 27.2876 36.75 27.6189 36.75 28.0251C36.75 28.4313 37.0869 28.7626 37.5 28.7626C37.9131 28.7626 38.25 28.4313 38.25 28.0251C38.25 27.6189 37.9131 27.2876 37.5 27.2876ZM42 27.2876C41.5869 27.2876 41.25 27.6189 41.25 28.0251C41.25 28.4313 41.5869 28.7626 42 28.7626C42.4131 28.7626 42.75 28.4313 42.75 28.0251C42.75 27.6189 42.4131 27.2876 42 27.2876ZM46.5 27.2876C46.0869 27.2876 45.75 27.6189 45.75 28.0251C45.75 28.4313 46.0869 28.7626 46.5 28.7626C46.9131 28.7626 47.25 28.4313 47.25 28.0251C47.25 27.6189 46.9131 27.2876 46.5 27.2876ZM39.75 29.5001C39.3369 29.5001 39 29.8314 39 30.2376C39 30.6438 39.3369 30.9751 39.75 30.9751C40.1631 30.9751 40.5 30.6438 40.5 30.2376C40.5 29.8314 40.1631 29.5001 39.75 29.5001ZM44.25 29.5001C43.8369 29.5001 43.5 29.8314 43.5 30.2376C43.5 30.6438 43.8369 30.9751 44.25 30.9751C44.6631 30.9751 45 30.6438 45 30.2376C45 29.8314 44.6631 29.5001 44.25 29.5001ZM48.75 29.5001C48.3369 29.5001 48 29.8314 48 30.2376C48 30.6438 48.3369 30.9751 48.75 30.9751C49.1631 30.9751 49.5 30.6438 49.5 30.2376C49.5 29.8314 49.1631 29.5001 48.75 29.5001ZM33 31.7126C32.5869 31.7126 32.25 32.0439 32.25 32.4501C32.25 32.8563 32.5869 33.1876 33 33.1876C33.4131 33.1876 33.75 32.8563 33.75 32.4501C33.75 32.0439 33.4131 31.7126 33 31.7126ZM37.5 31.7126C37.0869 31.7126 36.75 32.0439 36.75 32.4501C36.75 32.8563 37.0869 33.1876 37.5 33.1876C37.9131 33.1876 38.25 32.8563 38.25 32.4501C38.25 32.0439 37.9131 31.7126 37.5 31.7126ZM42 31.7126C41.5869 31.7126 41.25 32.0439 41.25 32.4501C41.25 32.8563 41.5869 33.1876 42 33.1876C42.4131 33.1876 42.75 32.8563 42.75 32.4501C42.75 32.0439 42.4131 31.7126 42 31.7126ZM46.5 31.7126C46.0869 31.7126 45.75 32.0439 45.75 32.4501C45.75 32.8563 46.0869 33.1876 46.5 33.1876C46.9131 33.1876 47.25 32.8563 47.25 32.4501C47.25 32.0439 46.9131 31.7126 46.5 31.7126ZM30.75 33.9251C30.3369 33.9251 30 34.2564 30 34.6626C30 35.0688 30.3369 35.4001 30.75 35.4001C31.1631 35.4001 31.5 35.0688 31.5 34.6626C31.5 34.2564 31.1631 33.9251 30.75 33.9251ZM35.25 33.9251C34.8369 33.9251 34.5 34.2564 34.5 34.6626C34.5 35.0688 34.8369 35.4001 35.25 35.4001C35.6631 35.4001 36 35.0688 36 34.6626C36 34.2564 35.6631 33.9251 35.25 33.9251ZM39.75 33.9251C39.3369 33.9251 39 34.2564 39 34.6626C39 35.0688 39.3369 35.4001 39.75 35.4001C40.1631 35.4001 40.5 35.0688 40.5 34.6626C40.5 34.2564 40.1631 33.9251 39.75 33.9251ZM44.25 33.9251C43.8369 33.9251 43.5 34.2564 43.5 34.6626C43.5 35.0688 43.8369 35.4001 44.25 35.4001C44.6631 35.4001 45 35.0688 45 34.6626C45 34.2564 44.6631 33.9251 44.25 33.9251ZM48.75 33.9251C48.3369 33.9251 48 34.2564 48 34.6626C48 35.0688 48.3369 35.4001 48.75 35.4001C49.1631 35.4001 49.5 35.0688 49.5 34.6626C49.5 34.2564 49.1631 33.9251 48.75 33.9251ZM24 36.1376C23.5869 36.1376 23.25 36.4689 23.25 36.8751C23.25 37.2813 23.5869 37.6126 24 37.6126C24.4131 37.6126 24.75 37.2813 24.75 36.8751C24.75 36.4689 24.4131 36.1376 24 36.1376ZM28.5 36.1376C28.0869 36.1376 27.75 36.4689 27.75 36.8751C27.75 37.2813 28.0869 37.6126 28.5 37.6126C28.9131 37.6126 29.25 37.2813 29.25 36.8751C29.25 36.4689 28.9131 36.1376 28.5 36.1376ZM33 36.1376C32.5869 36.1376 32.25 36.4689 32.25 36.8751C32.25 37.2813 32.5869 37.6126 33 37.6126C33.4131 37.6126 33.75 37.2813 33.75 36.8751C33.75 36.4689 33.4131 36.1376 33 36.1376ZM37.5 36.1376C37.0869 36.1376 36.75 36.4689 36.75 36.8751C36.75 37.2813 37.0869 37.6126 37.5 37.6126C37.9131 37.6126 38.25 37.2813 38.25 36.8751C38.25 36.4689 37.9131 36.1376 37.5 36.1376ZM42 36.1376C41.5869 36.1376 41.25 36.4689 41.25 36.8751C41.25 37.2813 41.5869 37.6126 42 37.6126C42.4131 37.6126 42.75 37.2813 42.75 36.8751C42.75 36.4689 42.4131 36.1376 42 36.1376ZM46.5 36.1376C46.0869 36.1376 45.75 36.4689 45.75 36.8751C45.75 37.2813 46.0869 37.6126 46.5 37.6126C46.9131 37.6126 47.25 37.2813 47.25 36.8751C47.25 36.4689 46.9131 36.1376 46.5 36.1376ZM51 36.1376C50.5869 36.1376 50.25 36.4689 50.25 36.8751C50.25 37.2813 50.5869 37.6126 51 37.6126C51.4131 37.6126 51.75 37.2813 51.75 36.8751C51.75 36.4689 51.4131 36.1376 51 36.1376ZM26.25 38.3501C25.8369 38.3501 25.5 38.6814 25.5 39.0876C25.5 39.4938 25.8369 39.8251 26.25 39.8251C26.6631 39.8251 27 39.4938 27 39.0876C27 38.6814 26.6631 38.3501 26.25 38.3501ZM30.75 38.3501C30.3369 38.3501 30 38.6814 30 39.0876C30 39.4938 30.3369 39.8251 30.75 39.8251C31.1631 39.8251 31.5 39.4938 31.5 39.0876C31.5 38.6814 31.1631 38.3501 30.75 38.3501ZM35.25 38.3501C34.8369 38.3501 34.5 38.6814 34.5 39.0876C34.5 39.4938 34.8369 39.8251 35.25 39.8251C35.6631 39.8251 36 39.4938 36 39.0876C36 38.6814 35.6631 38.3501 35.25 38.3501ZM39.75 38.3501C39.3369 38.3501 39 38.6814 39 39.0876C39 39.4938 39.3369 39.8251 39.75 39.8251C40.1631 39.8251 40.5 39.4938 40.5 39.0876C40.5 38.6814 40.1631 38.3501 39.75 38.3501ZM44.25 38.3501C43.8369 38.3501 43.5 38.6814 43.5 39.0876C43.5 39.4938 43.8369 39.8251 44.25 39.8251C44.6631 39.8251 45 39.4938 45 39.0876C45 38.6814 44.6631 38.3501 44.25 38.3501ZM48.75 38.3501C48.3369 38.3501 48 38.6814 48 39.0876C48 39.4938 48.3369 39.8251 48.75 39.8251C49.1631 39.8251 49.5 39.4938 49.5 39.0876C49.5 38.6814 49.1631 38.3501 48.75 38.3501ZM24 40.5626C23.5869 40.5626 23.25 40.8939 23.25 41.3001C23.25 41.7063 23.5869 42.0376 24 42.0376C24.4131 42.0376 24.75 41.7063 24.75 41.3001C24.75 40.8939 24.4131 40.5626 24 40.5626ZM28.5 40.5626C28.0869 40.5626 27.75 40.8939 27.75 41.3001C27.75 41.7063 28.0869 42.0376 28.5 42.0376C28.9131 42.0376 29.25 41.7063 29.25 41.3001C29.25 40.8939 28.9131 40.5626 28.5 40.5626ZM33 40.5626C32.5869 40.5626 32.25 40.8939 32.25 41.3001C32.25 41.7063 32.5869 42.0376 33 42.0376C33.4131 42.0376 33.75 41.7063 33.75 41.3001C33.75 40.8939 33.4131 40.5626 33 40.5626ZM37.5 40.5626C37.0869 40.5626 36.75 40.8939 36.75 41.3001C36.75 41.7063 37.0869 42.0376 37.5 42.0376C37.9131 42.0376 38.25 41.7063 38.25 41.3001C38.25 40.8939 37.9131 40.5626 37.5 40.5626ZM42 40.5626C41.5869 40.5626 41.25 40.8939 41.25 41.3001C41.25 41.7063 41.5869 42.0376 42 42.0376C42.4131 42.0376 42.75 41.7063 42.75 41.3001C42.75 40.8939 42.4131 40.5626 42 40.5626ZM46.5 40.5626C46.0869 40.5626 45.75 40.8939 45.75 41.3001C45.75 41.7063 46.0869 42.0376 46.5 42.0376C46.9131 42.0376 47.25 41.7063 47.25 41.3001C47.25 40.8939 46.9131 40.5626 46.5 40.5626ZM51 40.5626C50.5869 40.5626 50.25 40.8939 50.25 41.3001C50.25 41.7063 50.5869 42.0376 51 42.0376C51.4131 42.0376 51.75 41.7063 51.75 41.3001C51.75 40.8939 51.4131 40.5626 51 40.5626ZM26.25 42.7751C25.8369 42.7751 25.5 43.1064 25.5 43.5126C25.5 43.9188 25.8369 44.2501 26.25 44.2501C26.6631 44.2501 27 43.9188 27 43.5126C27 43.1064 26.6631 42.7751 26.25 42.7751ZM30.75 42.7751C30.3369 42.7751 30 43.1064 30 43.5126C30 43.9188 30.3369 44.2501 30.75 44.2501C31.1631 44.2501 31.5 43.9188 31.5 43.5126C31.5 43.1064 31.1631 42.7751 30.75 42.7751ZM35.25 42.7751C34.8369 42.7751 34.5 43.1064 34.5 43.5126C34.5 43.9188 34.8369 44.2501 35.25 44.2501C35.6631 44.2501 36 43.9188 36 43.5126C36 43.1064 35.6631 42.7751 35.25 42.7751ZM39.75 42.7751C39.3369 42.7751 39 43.1064 39 43.5126C39 43.9188 39.3369 44.2501 39.75 44.2501C40.1631 44.2501 40.5 43.9188 40.5 43.5126C40.5 43.1064 40.1631 42.7751 39.75 42.7751ZM44.25 42.7751C43.8369 42.7751 43.5 43.1064 43.5 43.5126C43.5 43.9188 43.8369 44.2501 44.25 44.2501C44.6631 44.2501 45 43.9188 45 43.5126C45 43.1064 44.6631 42.7751 44.25 42.7751ZM48.75 42.7751C48.3369 42.7751 48 43.1064 48 43.5126C48 43.9188 48.3369 44.2501 48.75 44.2501C49.1631 44.2501 49.5 43.9188 49.5 43.5126C49.5 43.1064 49.1631 42.7751 48.75 42.7751ZM28.5 44.9876C28.0869 44.9876 27.75 45.3189 27.75 45.7251C27.75 46.1313 28.0869 46.4626 28.5 46.4626C28.9131 46.4626 29.25 46.1313 29.25 45.7251C29.25 45.3189 28.9131 44.9876 28.5 44.9876ZM33 44.9876C32.5869 44.9876 32.25 45.3189 32.25 45.7251C32.25 46.1313 32.5869 46.4626 33 46.4626C33.4131 46.4626 33.75 46.1313 33.75 45.7251C33.75 45.3189 33.4131 44.9876 33 44.9876ZM37.5 44.9876C37.0869 44.9876 36.75 45.3189 36.75 45.7251C36.75 46.1313 37.0869 46.4626 37.5 46.4626C37.9131 46.4626 38.25 46.1313 38.25 45.7251C38.25 45.3189 37.9131 44.9876 37.5 44.9876ZM42 44.9876C41.5869 44.9876 41.25 45.3189 41.25 45.7251C41.25 46.1313 41.5869 46.4626 42 46.4626C42.4131 46.4626 42.75 46.1313 42.75 45.7251C42.75 45.3189 42.4131 44.9876 42 44.9876ZM46.5 44.9876C46.0869 44.9876 45.75 45.3189 45.75 45.7251C45.75 46.1313 46.0869 46.4626 46.5 46.4626C46.9131 46.4626 47.25 46.1313 47.25 45.7251C47.25 45.3189 46.9131 44.9876 46.5 44.9876ZM30.75 47.2001C30.3369 47.2001 30 47.5314 30 47.9376C30 48.3438 30.3369 48.6751 30.75 48.6751C31.1631 48.6751 31.5 48.3438 31.5 47.9376C31.5 47.5314 31.1631 47.2001 30.75 47.2001ZM35.25 47.2001C34.8369 47.2001 34.5 47.5314 34.5 47.9376C34.5 48.3438 34.8369 48.6751 35.25 48.6751C35.6631 48.6751 36 48.3438 36 47.9376C36 47.5314 35.6631 47.2001 35.25 47.2001ZM39.75 47.2001C39.3369 47.2001 39 47.5314 39 47.9376C39 48.3438 39.3369 48.6751 39.75 48.6751C40.1631 48.6751 40.5 48.3438 40.5 47.9376C40.5 47.5314 40.1631 47.2001 39.75 47.2001ZM44.25 47.2001C43.8369 47.2001 43.5 47.5314 43.5 47.9376C43.5 48.3438 43.8369 48.6751 44.25 48.6751C44.6631 48.6751 45 48.3438 45 47.9376C45 47.5314 44.6631 47.2001 44.25 47.2001ZM46.5 49.4126C46.0869 49.4126 45.75 49.7439 45.75 50.1501C45.75 50.5563 46.0869 50.8876 46.5 50.8876C46.9131 50.8876 47.25 50.5563 47.25 50.1501C47.25 49.7439 46.9131 49.4126 46.5 49.4126Z" fill="#BD9457"/>
</svg>
