<svg width="60" height="59" viewBox="0 0 60 59" fill="none" xmlns="http://www.w3.org/2000/svg">
<path d="M30 5.04736L29.625 5.26055L24.2314 8.3229H17.5664L14.2354 13.9982L8.46387 17.2737V23.8277L5.13281 29.5001L8.46387 35.1725V41.7265L14.2354 45.002L17.5664 50.6773H24.2314L30 53.9528L35.7686 50.6773H42.4336L45.7646 45.002L51.5361 41.7265V35.1725L54.8672 29.5001L51.5361 23.8277V17.2737L45.7646 13.9982L42.4336 8.3229H35.7686L30 5.04736ZM30 6.75283L35.3672 9.7979H41.5664L44.666 15.0785L50.0361 18.1265V24.2224L53.1328 29.5001L50.0361 34.7778V40.8737L44.666 43.9217L41.5664 49.2023H35.3672L30 52.2474L24.6328 49.2023H18.4336L15.334 43.9217L9.96387 40.8737V34.7778L6.86719 29.5001L9.96387 24.2224V18.1265L15.334 15.0785L18.4336 9.7979H24.6328L30 6.75283ZM30 8.8501C29.5869 8.8501 29.25 9.1814 29.25 9.5876C29.25 9.9938 29.5869 10.3251 30 10.3251C30.4131 10.3251 30.75 9.9938 30.75 9.5876C30.75 9.1814 30.4131 8.8501 30 8.8501ZM19.8574 11.5178C19.7314 11.5207 19.6084 11.5552 19.5 11.6157C19.3271 11.7137 19.2012 11.875 19.1484 12.0651C19.0986 12.2524 19.125 12.4541 19.2246 12.624C19.3242 12.794 19.4883 12.9179 19.6816 12.9668C19.8721 13.0187 20.0771 12.9928 20.25 12.8948C20.6074 12.6903 20.7305 12.238 20.5225 11.8865C20.3877 11.6532 20.1328 11.512 19.8574 11.5178ZM40.0898 11.5207C39.835 11.5322 39.6035 11.6705 39.4746 11.8894C39.2666 12.2409 39.3926 12.6903 39.75 12.8948C40.1074 13.0994 40.5674 12.9784 40.7725 12.6269C40.875 12.4569 40.9014 12.2553 40.8486 12.0651C40.7988 11.875 40.6729 11.7137 40.5 11.6157C40.377 11.5466 40.2334 11.512 40.0898 11.5207ZM30 11.8001C29.5869 11.8001 29.25 12.1314 29.25 12.5376C29.25 12.9438 29.5869 13.2751 30 13.2751C30.4131 13.2751 30.75 12.9438 30.75 12.5376C30.75 12.1314 30.4131 11.8001 30 11.8001ZM26.6367 12.1256C26.5869 12.1256 26.5371 12.1314 26.4873 12.14C26.083 12.2207 25.8193 12.6067 25.8984 13.0072C25.9805 13.4076 26.376 13.6669 26.7803 13.5862C27.1875 13.5056 27.4512 13.1195 27.3721 12.7191C27.3018 12.3763 26.9941 12.1285 26.6367 12.1256ZM33.3867 12.1256C33.0205 12.117 32.7012 12.3676 32.6309 12.7191C32.5488 13.1195 32.8125 13.5056 33.2197 13.5862C33.627 13.6669 34.0195 13.4076 34.1016 13.0072C34.1836 12.6067 33.9199 12.2207 33.5127 12.14C33.4717 12.1314 33.4277 12.1256 33.3867 12.1256ZM36.6182 13.0907C36.3076 13.0821 36.0264 13.2636 35.9062 13.543C35.833 13.7245 35.833 13.9291 35.9092 14.1105C35.9854 14.2892 36.1318 14.4332 36.3164 14.5081C36.6973 14.6637 37.1338 14.4851 37.292 14.1077C37.4531 13.7332 37.2715 13.301 36.8877 13.1455C36.8027 13.1109 36.7119 13.0907 36.6182 13.0907ZM23.4023 13.0907C23.3027 13.0907 23.2061 13.108 23.1123 13.1483C22.7285 13.3039 22.5469 13.7332 22.708 14.1105C22.8662 14.4851 23.3027 14.6637 23.6836 14.5081C23.8682 14.4361 24.0146 14.292 24.0908 14.1105C24.167 13.9291 24.167 13.7274 24.0938 13.5459C23.9766 13.2722 23.7041 13.0936 23.4023 13.0907ZM20.4258 14.6579C20.2734 14.655 20.124 14.6982 20.001 14.7818C19.6553 15.0094 19.5615 15.4646 19.793 15.8045C20.0215 16.1444 20.4873 16.2337 20.833 16.009C21 15.8996 21.1143 15.7325 21.1523 15.5395C21.1904 15.3464 21.1494 15.1477 21.0381 14.9834C20.9033 14.7818 20.6719 14.6608 20.4258 14.6579ZM39.5977 14.6579C39.3428 14.6521 39.1025 14.776 38.9619 14.9834C38.7305 15.3234 38.8242 15.7814 39.167 16.0062C39.5127 16.2337 39.9756 16.1416 40.207 15.8045C40.4385 15.4646 40.3447 15.0094 39.999 14.7818C39.8818 14.704 39.7412 14.6608 39.5977 14.6579ZM17.8125 16.7667C17.6104 16.7638 17.4141 16.8416 17.2734 16.9856C16.9805 17.2709 16.9805 17.7404 17.2734 18.0256C17.5635 18.3137 18.041 18.3137 18.3311 18.0256C18.624 17.7404 18.624 17.2709 18.3311 16.9856C18.1934 16.8474 18.0088 16.7725 17.8125 16.7667ZM42.208 16.7667C42.0059 16.7667 41.8096 16.8445 41.6689 16.9856C41.376 17.2709 41.376 17.7404 41.6689 18.0256C41.959 18.3137 42.4365 18.3137 42.7266 18.0256C43.0195 17.7404 43.0195 17.2709 42.7266 16.9856C42.5889 16.8474 42.4043 16.7696 42.208 16.7667ZM47.5195 18.8063C47.3936 18.8092 47.2705 18.8438 47.1592 18.9043C46.8018 19.1088 46.6787 19.5583 46.8867 19.9126C47.0947 20.2641 47.5518 20.3851 47.9092 20.1805C48.082 20.0854 48.208 19.9241 48.2607 19.734C48.3135 19.5438 48.2871 19.3422 48.1875 19.1751C48.0498 18.9417 47.792 18.8006 47.5195 18.8063ZM12.4277 18.8063C12.1729 18.8179 11.9414 18.9562 11.8125 19.1751C11.6045 19.5266 11.7305 19.9789 12.0879 20.1805C12.4453 20.3851 12.9053 20.2641 13.1133 19.9126C13.3184 19.5611 13.1953 19.1088 12.8379 18.9072C12.7148 18.8352 12.5713 18.8006 12.4277 18.8063ZM44.3525 19.3364C44.2002 19.3364 44.0508 19.3796 43.9248 19.4632C43.582 19.6879 43.4883 20.1459 43.7197 20.4859C43.9512 20.8229 44.4141 20.9151 44.7598 20.6875C45.1025 20.46 45.1963 20.0048 44.9648 19.6648C44.8301 19.4632 44.5986 19.3393 44.3525 19.3364ZM15.6709 19.3364C15.416 19.3335 15.1758 19.4574 15.0352 19.6677C14.8037 20.0048 14.8975 20.4628 15.2432 20.6875C15.5859 20.9151 16.0518 20.8229 16.2803 20.4859C16.3916 20.3246 16.4326 20.1229 16.3945 19.9328C16.3564 19.7397 16.2422 19.5698 16.0752 19.4632C15.9551 19.3825 15.8174 19.3393 15.6709 19.3364ZM37.7959 21.8197L28.0166 31.436L23.4697 27.3596L20.3232 30.9319L28.2334 37.8892L41.1855 25.1529L37.7959 21.8197ZM14.0771 22.272C13.7695 22.2634 13.4883 22.4449 13.3711 22.7243C13.21 23.1017 13.3916 23.5338 13.7754 23.6894C14.1592 23.845 14.5957 23.6664 14.7539 23.289C14.915 22.9145 14.7334 22.4823 14.3496 22.3268C14.2646 22.2922 14.1709 22.272 14.0771 22.272ZM45.9404 22.272C45.8408 22.2691 45.7441 22.2893 45.6504 22.3268C45.2666 22.4823 45.085 22.9145 45.2461 23.289C45.4043 23.6664 45.8408 23.845 46.2246 23.6894C46.6084 23.5338 46.79 23.1017 46.6289 22.7243C46.5146 22.4506 46.2422 22.272 45.9404 22.272ZM37.7959 23.9055L39.0645 25.1529L28.1748 35.861L22.4268 30.8022L23.5986 29.4713L28.0664 33.4757L37.7959 23.9055ZM13.1016 25.4554C12.7354 25.4438 12.416 25.6945 12.3457 26.0459C12.2637 26.4464 12.5273 26.8353 12.9346 26.916C13.3418 26.9937 13.7344 26.7345 13.8164 26.334C13.8545 26.1439 13.8164 25.9451 13.7051 25.7809C13.5938 25.6196 13.4238 25.5043 13.2275 25.4669C13.1865 25.4583 13.1426 25.4554 13.1016 25.4554ZM46.9219 25.4554C46.8721 25.4525 46.8223 25.4583 46.7725 25.4669C46.5791 25.5043 46.4062 25.6167 46.2949 25.7809C46.1865 25.9422 46.1455 26.141 46.1836 26.334C46.2217 26.5271 46.3359 26.6941 46.5029 26.8036C46.667 26.9131 46.8691 26.9534 47.0654 26.916C47.2617 26.8756 47.4316 26.7633 47.543 26.602C47.6543 26.4377 47.6953 26.239 47.6572 26.0459C47.5869 25.7031 47.2793 25.4554 46.9219 25.4554ZM9.75 28.7626C9.33691 28.7626 9 29.0939 9 29.5001C9 29.9063 9.33691 30.2376 9.75 30.2376C10.1631 30.2376 10.5 29.9063 10.5 29.5001C10.5 29.0939 10.1631 28.7626 9.75 28.7626ZM12.75 28.7626C12.3369 28.7626 12 29.0939 12 29.5001C12 29.9063 12.3369 30.2376 12.75 30.2376C13.1631 30.2376 13.5 29.9063 13.5 29.5001C13.5 29.0939 13.1631 28.7626 12.75 28.7626ZM47.25 28.7626C46.8369 28.7626 46.5 29.0939 46.5 29.5001C46.5 29.9063 46.8369 30.2376 47.25 30.2376C47.6631 30.2376 48 29.9063 48 29.5001C48 29.0939 47.6631 28.7626 47.25 28.7626ZM50.25 28.7626C49.8369 28.7626 49.5 29.0939 49.5 29.5001C49.5 29.9063 49.8369 30.2376 50.25 30.2376C50.6631 30.2376 51 29.9063 51 29.5001C51 29.0939 50.6631 28.7626 50.25 28.7626ZM46.9365 32.0698C46.5732 32.0612 46.2539 32.3118 46.1836 32.6662C46.1016 33.0637 46.3652 33.4526 46.7725 33.5333C47.1797 33.6111 47.5723 33.3518 47.6543 32.9542C47.7363 32.5538 47.4727 32.1649 47.0654 32.0842C47.0244 32.0785 46.9805 32.0727 46.9365 32.0698ZM13.0869 32.0727C13.0342 32.0727 12.9844 32.0756 12.9375 32.0842C12.7412 32.1246 12.5684 32.2369 12.457 32.3982C12.3486 32.5625 12.3076 32.7612 12.3457 32.9542C12.3838 33.1444 12.498 33.3144 12.665 33.4238C12.8291 33.5304 13.0312 33.5708 13.2275 33.5333C13.4238 33.4958 13.5938 33.3835 13.7051 33.2193C13.8164 33.058 13.8574 32.8592 13.8164 32.6662C13.749 32.3233 13.4414 32.0756 13.0869 32.0727ZM14.0713 35.2532C13.9688 35.2532 13.8691 35.2705 13.7783 35.3079C13.3945 35.4664 13.2129 35.8956 13.3711 36.273C13.5293 36.6504 13.9688 36.829 14.3525 36.6706C14.7334 36.515 14.915 36.0857 14.7568 35.7083C14.6426 35.4347 14.3701 35.2561 14.0713 35.2532ZM45.9521 35.2532C45.6445 35.2474 45.3633 35.426 45.2461 35.7083C45.085 36.0857 45.2666 36.515 45.6504 36.6706C45.835 36.7455 46.04 36.7455 46.2246 36.6706C46.4092 36.5957 46.5557 36.4516 46.6289 36.273C46.79 35.8956 46.6084 35.4635 46.2246 35.3079C46.1396 35.2733 46.0459 35.2561 45.9521 35.2532ZM44.3555 38.1859C44.1006 38.1801 43.8604 38.304 43.7197 38.5114C43.4883 38.8514 43.582 39.3094 43.9248 39.537C44.0918 39.6436 44.2939 39.6839 44.4902 39.6465C44.6865 39.6062 44.8564 39.4938 44.9678 39.3296C45.1963 38.9925 45.1055 38.5345 44.7598 38.3069C44.6396 38.2291 44.502 38.1859 44.3555 38.1859ZM15.668 38.1859C15.5156 38.183 15.3662 38.2262 15.2432 38.3098C14.8975 38.5374 14.8037 38.9925 15.0352 39.3325C15.2637 39.6724 15.7295 39.7617 16.0752 39.537C16.2422 39.4275 16.3564 39.2604 16.3945 39.0674C16.4326 38.8744 16.3916 38.6756 16.2803 38.5114C16.1455 38.3098 15.9141 38.1888 15.668 38.1859ZM12.4453 38.7188C12.3193 38.7217 12.1963 38.7563 12.0879 38.8168C11.7305 39.0213 11.6045 39.4708 11.8125 39.8251C11.9121 39.9922 12.0762 40.1161 12.2695 40.1679C12.46 40.2198 12.665 40.1938 12.8379 40.093C13.0107 39.998 13.1367 39.8366 13.1865 39.6465C13.2393 39.4563 13.2129 39.2547 13.1133 39.0876C12.9756 38.8542 12.7178 38.7131 12.4453 38.7188ZM47.499 38.7188C47.2441 38.7333 47.0127 38.8715 46.8867 39.0876C46.6787 39.4419 46.8018 39.8914 47.1592 40.0959C47.332 40.1938 47.5371 40.2198 47.7305 40.1708C47.9238 40.1189 48.0879 39.9951 48.1875 39.8251C48.2871 39.658 48.3135 39.4563 48.2607 39.2662C48.208 39.0761 48.082 38.9147 47.9092 38.8197C47.7861 38.7477 47.6426 38.7131 47.499 38.7188ZM17.8125 40.7556C17.6104 40.7527 17.4141 40.8305 17.2734 40.9717C16.9805 41.2598 16.9805 41.7265 17.2734 42.0146C17.5635 42.3026 18.041 42.3026 18.3311 42.0146C18.624 41.7265 18.624 41.2598 18.3311 40.9717C18.1934 40.8363 18.0088 40.7585 17.8125 40.7556ZM42.208 40.7585C42.0059 40.7527 41.8096 40.8305 41.666 40.9746C41.373 41.2598 41.373 41.7293 41.666 42.0146C41.959 42.3026 42.4336 42.3026 42.7266 42.0146C43.0195 41.7293 43.0195 41.2598 42.7266 40.9746C42.5889 40.8363 42.4043 40.7614 42.208 40.7585ZM39.5947 42.8644C39.4424 42.8644 39.293 42.9076 39.167 42.9912C38.8242 43.2159 38.7305 43.6739 38.9619 44.011C39.1934 44.3509 39.6562 44.4431 40.002 44.2155C40.3447 43.9879 40.4385 43.5328 40.207 43.1928C40.0723 42.9912 39.8408 42.8673 39.5947 42.8644ZM20.4316 42.8673C20.1768 42.8615 19.9365 42.9854 19.793 43.1928C19.5645 43.5328 19.6582 43.9879 20.001 44.2155C20.3467 44.4431 20.8096 44.3509 21.041 44.011C21.2725 43.6739 21.1787 43.2159 20.8359 42.9912C20.7158 42.9105 20.5752 42.8673 20.4316 42.8673ZM23.4141 44.4345C23.1064 44.4258 22.8252 44.6073 22.708 44.8868C22.5469 45.2642 22.7285 45.6963 23.1123 45.8519C23.4961 46.0074 23.9326 45.8288 24.0938 45.4514C24.252 45.0769 24.0703 44.6448 23.6865 44.4892C23.6016 44.4546 23.5078 44.4345 23.4141 44.4345ZM36.6094 44.4345C36.5068 44.4316 36.4072 44.4518 36.3164 44.4892C35.9326 44.6448 35.751 45.0769 35.9092 45.4514C36.0674 45.8288 36.5068 46.0074 36.8906 45.8519C37.2715 45.6963 37.4531 45.2642 37.2949 44.8868C37.1807 44.616 36.9082 44.4345 36.6094 44.4345ZM26.6572 45.3996C26.291 45.3909 25.9717 45.6416 25.8984 45.993C25.8604 46.186 25.9014 46.3848 26.0127 46.5461C26.124 46.7104 26.2939 46.8227 26.4902 46.8602C26.8975 46.9408 27.29 46.6815 27.3721 46.2811C27.4102 46.0881 27.3691 45.8893 27.2607 45.728C27.1494 45.5638 26.9766 45.4514 26.7803 45.414C26.7393 45.4053 26.6982 45.3996 26.6572 45.3996ZM33.3691 45.3996C33.3193 45.3996 33.2695 45.4053 33.2197 45.414C32.8125 45.4946 32.5488 45.8807 32.6309 46.2811C32.7129 46.6815 33.1055 46.9408 33.5127 46.8602C33.9199 46.7795 34.1836 46.3935 34.1016 45.993C34.0312 45.6502 33.7266 45.4024 33.3691 45.3996ZM30 45.7251C29.5869 45.7251 29.25 46.0564 29.25 46.4626C29.25 46.8688 29.5869 47.2001 30 47.2001C30.4131 47.2001 30.75 46.8688 30.75 46.4626C30.75 46.0564 30.4131 45.7251 30 45.7251ZM40.1045 46.0045C39.9814 46.0103 39.8584 46.042 39.75 46.1054C39.3896 46.3099 39.2666 46.7593 39.4746 47.1108C39.6826 47.4651 40.1396 47.5861 40.5 47.3845C40.6699 47.2865 40.7959 47.1252 40.8486 46.9351C40.9014 46.7449 40.875 46.5433 40.7725 46.3733C40.6377 46.1399 40.3799 45.9988 40.1045 46.0045ZM19.8398 46.0103C19.585 46.0218 19.3535 46.1601 19.2246 46.3762C19.125 46.5461 19.0986 46.7478 19.1484 46.9351C19.2012 47.1252 19.3271 47.2865 19.5 47.3845C19.8574 47.589 20.3174 47.4651 20.5225 47.1137C20.7305 46.7622 20.6074 46.3099 20.25 46.1054C20.124 46.0362 19.9834 46.0017 19.8398 46.0103ZM30 48.6751C29.5869 48.6751 29.25 49.0064 29.25 49.4126C29.25 49.8188 29.5869 50.1501 30 50.1501C30.4131 50.1501 30.75 49.8188 30.75 49.4126C30.75 49.0064 30.4131 48.6751 30 48.6751Z" fill="white"/>
<path d="M30 8.8501C29.5869 8.8501 29.25 9.1814 29.25 9.5876C29.25 9.9938 29.5869 10.3251 30 10.3251C30.4131 10.3251 30.75 9.9938 30.75 9.5876C30.75 9.1814 30.4131 8.8501 30 8.8501ZM19.8574 11.5178C19.7314 11.5207 19.6084 11.5552 19.5 11.6157C19.3271 11.7137 19.2012 11.875 19.1484 12.0651C19.0986 12.2524 19.125 12.4541 19.2246 12.624C19.3242 12.794 19.4883 12.9179 19.6816 12.9668C19.8721 13.0187 20.0771 12.9928 20.25 12.8948C20.6074 12.6903 20.7305 12.238 20.5225 11.8865C20.3877 11.6532 20.1328 11.512 19.8574 11.5178ZM40.0898 11.5207C39.835 11.5322 39.6035 11.6705 39.4746 11.8894C39.2666 12.2409 39.3926 12.6903 39.75 12.8948C40.1074 13.0994 40.5674 12.9784 40.7725 12.6269C40.875 12.4569 40.9014 12.2553 40.8486 12.0651C40.7988 11.875 40.6729 11.7137 40.5 11.6157C40.377 11.5466 40.2334 11.512 40.0898 11.5207ZM30 11.8001C29.5869 11.8001 29.25 12.1314 29.25 12.5376C29.25 12.9438 29.5869 13.2751 30 13.2751C30.4131 13.2751 30.75 12.9438 30.75 12.5376C30.75 12.1314 30.4131 11.8001 30 11.8001ZM26.6367 12.1256C26.5869 12.1256 26.5371 12.1314 26.4873 12.14C26.083 12.2207 25.8193 12.6067 25.8984 13.0072C25.9805 13.4076 26.376 13.6669 26.7803 13.5862C27.1875 13.5056 27.4512 13.1195 27.3721 12.7191C27.3018 12.3763 26.9941 12.1285 26.6367 12.1256ZM33.3867 12.1256C33.0205 12.117 32.7012 12.3676 32.6309 12.7191C32.5488 13.1195 32.8125 13.5056 33.2197 13.5862C33.627 13.6669 34.0195 13.4076 34.1016 13.0072C34.1836 12.6067 33.9199 12.2207 33.5127 12.14C33.4717 12.1314 33.4277 12.1256 33.3867 12.1256ZM36.6182 13.0907C36.3076 13.0821 36.0264 13.2636 35.9062 13.543C35.833 13.7245 35.833 13.9291 35.9092 14.1105C35.9854 14.2892 36.1318 14.4332 36.3164 14.5081C36.6973 14.6637 37.1338 14.4851 37.292 14.1077C37.4531 13.7332 37.2715 13.301 36.8877 13.1455C36.8027 13.1109 36.7119 13.0907 36.6182 13.0907ZM23.4023 13.0907C23.3027 13.0907 23.2061 13.108 23.1123 13.1483C22.7285 13.3039 22.5469 13.7332 22.708 14.1105C22.8662 14.4851 23.3027 14.6637 23.6836 14.5081C23.8682 14.4361 24.0146 14.292 24.0908 14.1105C24.167 13.9291 24.167 13.7274 24.0938 13.5459C23.9766 13.2722 23.7041 13.0936 23.4023 13.0907ZM20.4258 14.6579C20.2734 14.655 20.124 14.6982 20.001 14.7818C19.6553 15.0094 19.5615 15.4646 19.793 15.8045C20.0215 16.1444 20.4873 16.2337 20.833 16.009C21 15.8996 21.1143 15.7325 21.1523 15.5395C21.1904 15.3464 21.1494 15.1477 21.0381 14.9834C20.9033 14.7818 20.6719 14.6608 20.4258 14.6579ZM39.5977 14.6579C39.3428 14.6521 39.1025 14.776 38.9619 14.9834C38.7305 15.3234 38.8242 15.7814 39.167 16.0062C39.5127 16.2337 39.9756 16.1416 40.207 15.8045C40.4385 15.4646 40.3447 15.0094 39.999 14.7818C39.8818 14.704 39.7412 14.6608 39.5977 14.6579ZM17.8125 16.7667C17.6104 16.7638 17.4141 16.8416 17.2734 16.9856C16.9805 17.2708 16.9805 17.7404 17.2734 18.0256C17.5635 18.3137 18.041 18.3137 18.3311 18.0256C18.624 17.7404 18.624 17.2708 18.3311 16.9856C18.1934 16.8474 18.0088 16.7725 17.8125 16.7667ZM42.208 16.7667C42.0059 16.7667 41.8096 16.8445 41.6689 16.9856C41.376 17.2708 41.376 17.7404 41.6689 18.0256C41.959 18.3137 42.4365 18.3137 42.7266 18.0256C43.0195 17.7404 43.0195 17.2708 42.7266 16.9856C42.5889 16.8474 42.4043 16.7696 42.208 16.7667ZM47.5195 18.8063C47.3936 18.8092 47.2705 18.8438 47.1592 18.9043C46.8018 19.1088 46.6787 19.5583 46.8867 19.9126C47.0947 20.2641 47.5518 20.3851 47.9092 20.1805C48.082 20.0855 48.208 19.9241 48.2607 19.734C48.3135 19.5438 48.2871 19.3422 48.1875 19.1751C48.0498 18.9417 47.792 18.8006 47.5195 18.8063ZM12.4277 18.8063C12.1729 18.8179 11.9414 18.9562 11.8125 19.1751C11.6045 19.5266 11.7305 19.9789 12.0879 20.1805C12.4453 20.3851 12.9053 20.2641 13.1133 19.9126C13.3184 19.5611 13.1953 19.1088 12.8379 18.9072C12.7148 18.8352 12.5713 18.8006 12.4277 18.8063ZM44.3525 19.3364C44.2002 19.3364 44.0508 19.3796 43.9248 19.4632C43.582 19.6879 43.4883 20.1459 43.7197 20.4859C43.9512 20.8229 44.4141 20.9151 44.7598 20.6875C45.1025 20.46 45.1963 20.0048 44.9648 19.6648C44.8301 19.4632 44.5986 19.3393 44.3525 19.3364ZM15.6709 19.3364C15.416 19.3335 15.1758 19.4574 15.0352 19.6677C14.8037 20.0048 14.8975 20.4628 15.2432 20.6875C15.5859 20.9151 16.0518 20.8229 16.2803 20.4859C16.3916 20.3246 16.4326 20.1229 16.3945 19.9328C16.3564 19.7397 16.2422 19.5698 16.0752 19.4632C15.9551 19.3825 15.8174 19.3393 15.6709 19.3364ZM37.7959 21.8197L28.0166 31.436L23.4697 27.3596L20.3232 30.9319L28.2334 37.8892L41.1855 25.1529L37.7959 21.8197ZM14.0771 22.272C13.7695 22.2634 13.4883 22.4449 13.3711 22.7243C13.21 23.1017 13.3916 23.5338 13.7754 23.6894C14.1592 23.845 14.5957 23.6664 14.7539 23.289C14.915 22.9145 14.7334 22.4823 14.3496 22.3268C14.2646 22.2922 14.1709 22.272 14.0771 22.272ZM45.9404 22.272C45.8408 22.2691 45.7441 22.2893 45.6504 22.3268C45.2666 22.4823 45.085 22.9145 45.2461 23.289C45.4043 23.6664 45.8408 23.845 46.2246 23.6894C46.6084 23.5338 46.79 23.1017 46.6289 22.7243C46.5146 22.4506 46.2422 22.272 45.9404 22.272ZM37.7959 23.9055L39.0645 25.1529L28.1748 35.861L22.4268 30.8022L23.5986 29.4713L28.0664 33.4757L37.7959 23.9055ZM13.1016 25.4554C12.7354 25.4438 12.416 25.6945 12.3457 26.0459C12.2637 26.4464 12.5273 26.8353 12.9346 26.916C13.3418 26.9938 13.7344 26.7345 13.8164 26.334C13.8545 26.1439 13.8164 25.9451 13.7051 25.7809C13.5938 25.6196 13.4238 25.5043 13.2275 25.4669C13.1865 25.4583 13.1426 25.4554 13.1016 25.4554ZM46.9219 25.4554C46.8721 25.4525 46.8223 25.4583 46.7725 25.4669C46.5791 25.5043 46.4062 25.6167 46.2949 25.7809C46.1865 25.9422 46.1455 26.141 46.1836 26.334C46.2217 26.5271 46.3359 26.6941 46.5029 26.8036C46.667 26.9131 46.8691 26.9534 47.0654 26.916C47.2617 26.8756 47.4316 26.7633 47.543 26.602C47.6543 26.4377 47.6953 26.239 47.6572 26.0459C47.5869 25.7031 47.2793 25.4554 46.9219 25.4554ZM9.75 28.7626C9.33691 28.7626 9 29.0939 9 29.5001C9 29.9063 9.33691 30.2376 9.75 30.2376C10.1631 30.2376 10.5 29.9063 10.5 29.5001C10.5 29.0939 10.1631 28.7626 9.75 28.7626ZM12.75 28.7626C12.3369 28.7626 12 29.0939 12 29.5001C12 29.9063 12.3369 30.2376 12.75 30.2376C13.1631 30.2376 13.5 29.9063 13.5 29.5001C13.5 29.0939 13.1631 28.7626 12.75 28.7626ZM47.25 28.7626C46.8369 28.7626 46.5 29.0939 46.5 29.5001C46.5 29.9063 46.8369 30.2376 47.25 30.2376C47.6631 30.2376 48 29.9063 48 29.5001C48 29.0939 47.6631 28.7626 47.25 28.7626ZM50.25 28.7626C49.8369 28.7626 49.5 29.0939 49.5 29.5001C49.5 29.9063 49.8369 30.2376 50.25 30.2376C50.6631 30.2376 51 29.9063 51 29.5001C51 29.0939 50.6631 28.7626 50.25 28.7626ZM46.9365 32.0698C46.5732 32.0612 46.2539 32.3118 46.1836 32.6662C46.1016 33.0637 46.3652 33.4526 46.7725 33.5333C47.1797 33.6111 47.5723 33.3518 47.6543 32.9542C47.7363 32.5538 47.4727 32.1649 47.0654 32.0842C47.0244 32.0785 46.9805 32.0727 46.9365 32.0698ZM13.0869 32.0727C13.0342 32.0727 12.9844 32.0756 12.9375 32.0842C12.7412 32.1246 12.5684 32.2369 12.457 32.3982C12.3486 32.5625 12.3076 32.7612 12.3457 32.9542C12.3838 33.1444 12.498 33.3144 12.665 33.4238C12.8291 33.5304 13.0312 33.5708 13.2275 33.5333C13.4238 33.4958 13.5938 33.3835 13.7051 33.2193C13.8164 33.058 13.8574 32.8592 13.8164 32.6662C13.749 32.3233 13.4414 32.0756 13.0869 32.0727ZM14.0713 35.2532C13.9688 35.2532 13.8691 35.2705 13.7783 35.3079C13.3945 35.4664 13.2129 35.8956 13.3711 36.273C13.5293 36.6504 13.9688 36.829 14.3525 36.6706C14.7334 36.515 14.915 36.0857 14.7568 35.7083C14.6426 35.4347 14.3701 35.2561 14.0713 35.2532ZM45.9521 35.2532C45.6445 35.2474 45.3633 35.426 45.2461 35.7083C45.085 36.0857 45.2666 36.515 45.6504 36.6706C45.835 36.7455 46.04 36.7455 46.2246 36.6706C46.4092 36.5957 46.5557 36.4516 46.6289 36.273C46.79 35.8956 46.6084 35.4635 46.2246 35.3079C46.1396 35.2733 46.0459 35.2561 45.9521 35.2532ZM44.3555 38.1859C44.1006 38.1801 43.8604 38.304 43.7197 38.5114C43.4883 38.8514 43.582 39.3094 43.9248 39.537C44.0918 39.6436 44.2939 39.6839 44.4902 39.6465C44.6865 39.6062 44.8564 39.4938 44.9678 39.3296C45.1963 38.9925 45.1055 38.5345 44.7598 38.3069C44.6396 38.2291 44.502 38.1859 44.3555 38.1859ZM15.668 38.1859C15.5156 38.183 15.3662 38.2262 15.2432 38.3098C14.8975 38.5374 14.8037 38.9925 15.0352 39.3325C15.2637 39.6724 15.7295 39.7617 16.0752 39.537C16.2422 39.4275 16.3564 39.2604 16.3945 39.0674C16.4326 38.8744 16.3916 38.6756 16.2803 38.5114C16.1455 38.3098 15.9141 38.1888 15.668 38.1859ZM12.4453 38.7188C12.3193 38.7217 12.1963 38.7563 12.0879 38.8168C11.7305 39.0213 11.6045 39.4708 11.8125 39.8251C11.9121 39.9922 12.0762 40.1161 12.2695 40.1679C12.46 40.2198 12.665 40.1938 12.8379 40.093C13.0107 39.9979 13.1367 39.8366 13.1865 39.6465C13.2393 39.4563 13.2129 39.2547 13.1133 39.0876C12.9756 38.8542 12.7178 38.7131 12.4453 38.7188ZM47.499 38.7188C47.2441 38.7333 47.0127 38.8715 46.8867 39.0876C46.6787 39.4419 46.8018 39.8914 47.1592 40.0959C47.332 40.1938 47.5371 40.2198 47.7305 40.1708C47.9238 40.1189 48.0879 39.9951 48.1875 39.8251C48.2871 39.658 48.3135 39.4563 48.2607 39.2662C48.208 39.0761 48.082 38.9147 47.9092 38.8197C47.7861 38.7477 47.6426 38.7131 47.499 38.7188ZM17.8125 40.7556C17.6104 40.7527 17.4141 40.8305 17.2734 40.9717C16.9805 41.2598 16.9805 41.7265 17.2734 42.0146C17.5635 42.3026 18.041 42.3026 18.3311 42.0146C18.624 41.7265 18.624 41.2598 18.3311 40.9717C18.1934 40.8363 18.0088 40.7585 17.8125 40.7556ZM42.208 40.7585C42.0059 40.7527 41.8096 40.8305 41.666 40.9746C41.373 41.2598 41.373 41.7293 41.666 42.0146C41.959 42.3026 42.4336 42.3026 42.7266 42.0146C43.0195 41.7293 43.0195 41.2598 42.7266 40.9746C42.5889 40.8363 42.4043 40.7614 42.208 40.7585ZM39.5947 42.8644C39.4424 42.8644 39.293 42.9076 39.167 42.9912C38.8242 43.2159 38.7305 43.6739 38.9619 44.011C39.1934 44.3509 39.6562 44.4431 40.002 44.2155C40.3447 43.9879 40.4385 43.5328 40.207 43.1928C40.0723 42.9912 39.8408 42.8673 39.5947 42.8644ZM20.4316 42.8673C20.1768 42.8615 19.9365 42.9854 19.793 43.1928C19.5645 43.5328 19.6582 43.9879 20.001 44.2155C20.3467 44.4431 20.8096 44.3509 21.041 44.011C21.2725 43.6739 21.1787 43.2159 20.8359 42.9912C20.7158 42.9105 20.5752 42.8673 20.4316 42.8673ZM23.4141 44.4345C23.1064 44.4258 22.8252 44.6073 22.708 44.8868C22.5469 45.2642 22.7285 45.6963 23.1123 45.8519C23.4961 46.0074 23.9326 45.8288 24.0938 45.4514C24.252 45.0769 24.0703 44.6448 23.6865 44.4892C23.6016 44.4546 23.5078 44.4345 23.4141 44.4345ZM36.6094 44.4345C36.5068 44.4316 36.4072 44.4518 36.3164 44.4892C35.9326 44.6448 35.751 45.0769 35.9092 45.4514C36.0674 45.8288 36.5068 46.0074 36.8906 45.8519C37.2715 45.6963 37.4531 45.2642 37.2949 44.8868C37.1807 44.616 36.9082 44.4345 36.6094 44.4345ZM26.6572 45.3996C26.291 45.3909 25.9717 45.6416 25.8984 45.993C25.8604 46.186 25.9014 46.3848 26.0127 46.5461C26.124 46.7104 26.2939 46.8227 26.4902 46.8602C26.8975 46.9408 27.29 46.6815 27.3721 46.2811C27.4102 46.0881 27.3691 45.8893 27.2607 45.728C27.1494 45.5638 26.9766 45.4514 26.7803 45.414C26.7393 45.4053 26.6982 45.3996 26.6572 45.3996ZM33.3691 45.3996C33.3193 45.3996 33.2695 45.4053 33.2197 45.414C32.8125 45.4946 32.5488 45.8807 32.6309 46.2811C32.7129 46.6815 33.1055 46.9408 33.5127 46.8602C33.9199 46.7795 34.1836 46.3935 34.1016 45.993C34.0312 45.6502 33.7266 45.4024 33.3691 45.3996ZM30 45.7251C29.5869 45.7251 29.25 46.0564 29.25 46.4626C29.25 46.8688 29.5869 47.2001 30 47.2001C30.4131 47.2001 30.75 46.8688 30.75 46.4626C30.75 46.0564 30.4131 45.7251 30 45.7251ZM40.1045 46.0045C39.9814 46.0103 39.8584 46.042 39.75 46.1054C39.3896 46.3099 39.2666 46.7593 39.4746 47.1108C39.6826 47.4651 40.1396 47.5861 40.5 47.3845C40.6699 47.2865 40.7959 47.1252 40.8486 46.9351C40.9014 46.7449 40.875 46.5433 40.7725 46.3733C40.6377 46.1399 40.3799 45.9988 40.1045 46.0045ZM19.8398 46.0103C19.585 46.0218 19.3535 46.1601 19.2246 46.3762C19.125 46.5461 19.0986 46.7478 19.1484 46.9351C19.2012 47.1252 19.3271 47.2865 19.5 47.3845C19.8574 47.589 20.3174 47.4651 20.5225 47.1137C20.7305 46.7622 20.6074 46.3099 20.25 46.1054C20.124 46.0362 19.9834 46.0017 19.8398 46.0103ZM30 48.6751C29.5869 48.6751 29.25 49.0064 29.25 49.4126C29.25 49.8188 29.5869 50.1501 30 50.1501C30.4131 50.1501 30.75 49.8188 30.75 49.4126C30.75 49.0064 30.4131 48.6751 30 48.6751Z" fill="#BD9457"/>
</svg>
