<svg width="36" height="35" viewBox="0 0 36 35" fill="none" xmlns="http://www.w3.org/2000/svg">
<ellipse cx="18" cy="17.5" rx="18" ry="17.5" fill="white"/>
<path fill-rule="evenodd" clip-rule="evenodd" d="M23.3149 11.6899C21.9038 10.2788 20.0288 9.5 18.0317 9.5C13.9155 9.5 10.5635 12.8496 10.5635 16.9658C10.561 18.2817 10.9053 19.5659 11.5596 20.6987L10.5 24.5684L14.46 23.5283C15.5488 24.124 16.7793 24.4365 18.0293 24.439H18.0317C22.1479 24.439 25.4976 21.0894 25.5 16.9707C25.5 14.9761 24.7236 13.1011 23.3149 11.6899ZM18.0317 23.1768H18.0293C16.916 23.1768 15.8223 22.8765 14.8701 22.3125L14.6431 22.1782L12.292 22.7935L12.9194 20.5034L12.7729 20.269C12.1504 19.2803 11.8232 18.1377 11.8232 16.9658C11.8232 13.5454 14.6089 10.7622 18.0342 10.7622C19.6919 10.7622 21.2495 11.4092 22.4214 12.5811C23.5933 13.7554 24.2378 15.313 24.2378 16.9707C24.2378 20.3936 21.4521 23.1768 18.0317 23.1768ZM21.4351 18.5283C21.2495 18.4355 20.3315 17.9839 20.1606 17.9229C19.9897 17.8594 19.8652 17.8301 19.7407 18.0156C19.6162 18.2036 19.2598 18.6235 19.1499 18.748C19.0425 18.8701 18.9326 18.8872 18.7471 18.7944C18.5591 18.7017 17.9585 18.5039 17.2456 17.8667C16.6914 17.3735 16.3154 16.7607 16.208 16.5752C16.0981 16.3872 16.1958 16.2871 16.2886 16.1943C16.374 16.1113 16.4766 15.9771 16.5693 15.8672C16.6621 15.7598 16.6938 15.6816 16.7573 15.5571C16.8184 15.4326 16.7866 15.3228 16.7402 15.23C16.6938 15.1372 16.3203 14.2168 16.1641 13.8433C16.0127 13.4795 15.8589 13.5308 15.7441 13.5234C15.6367 13.5186 15.5122 13.5186 15.3877 13.5186C15.2632 13.5186 15.0605 13.5649 14.8896 13.7529C14.7188 13.9385 14.2378 14.3901 14.2378 15.3081C14.2378 16.2261 14.9067 17.1147 14.9995 17.2393C15.0923 17.3613 16.3154 19.2461 18.188 20.0542C18.6323 20.2471 18.979 20.3618 19.25 20.4473C19.6968 20.5889 20.1045 20.5693 20.4268 20.5229C20.7856 20.4692 21.5303 20.0713 21.6865 19.6343C21.8403 19.1997 21.8403 18.8262 21.7939 18.748C21.7476 18.6699 21.623 18.6235 21.4351 18.5283Z" fill="#7491A5" fill-opacity="0.6"/>
</svg>
